<?xml version="1.0" encoding="utf-8"?>
<!-- Generator: Adobe Illustrator 18.1.1, SVG Export Plug-In . SVG Version: 6.00 Build 0)  -->
<svg version="1.1" id="Laag_1" xmlns="http://www.w3.org/2000/svg" xmlns:xlink="http://www.w3.org/1999/xlink" x="0px" y="0px"
	 viewBox="0 188.7 960 183" enable-background="new 0 188.7 960 183" xml:space="preserve">
<polygon fill="#546E7A" points="763.7,258.8 701.2,249.3 673.6,189.9 646.1,249.3 583.6,258.8 629.1,304.4 618.5,370.1 673.6,339.3 
	729.8,370.1 719.2,304.4 "/>
<polygon fill="#546E7A" points="959.3,258.8 896.8,249.3 869.3,189.9 841.7,249.3 779.2,258.8 824.8,304.4 814.2,370.1 869.3,339.3 
	925.4,370.1 914.8,304.4 "/>
<polygon fill="#546E7A" points="569.9,258.8 507.4,249.3 479.9,189.9 452.3,249.3 389.8,258.8 435.4,304.4 424.8,370.1 479.9,339.3 
	536,370.1 525.4,304.4 "/>
<polygon fill="#546E7A" points="375.1,258.8 312.6,249.3 285,189.9 257.5,249.3 195,258.8 240.5,304.4 229.9,370.1 285,339.3 
	341.2,370.1 330.6,304.4 "/>
<polygon fill="#546E7A" points="180.1,258.8 117.6,249.3 90.1,189.9 62.5,249.3 0,258.8 45.6,304.4 33.9,370.1 90.1,339.3 
	146.2,370.1 134.6,304.4 "/>
</svg>
