<?xml version="1.0" encoding="utf-8"?>
<!-- Generator: Adobe Illustrator 18.1.1, SVG Export Plug-In . SVG Version: 6.00 Build 0)  -->
<svg version="1.1" id="Laag_1" xmlns="http://www.w3.org/2000/svg" xmlns:xlink="http://www.w3.org/1999/xlink" x="0px" y="0px"
	 viewBox="0 188.7 960 183" enable-background="new 0 188.7 960 183" xml:space="preserve">
<path fill="#546E7A" d="M763.4,258.6l-62.3-9.5l-27.5-59.2l-27.5,59.2l-62.3,9.5l45.4,46.5l-10.6,65.5l56-30.6l56,30.6l-10.6-65.5
	L763.4,258.6z M672.6,327.3v-112l21.1,43.3l47.5,7.4l-33.8,34.9l7.4,49.6L672.6,327.3z"/>
<polygon fill="#546E7A" points="569.9,258.8 507.4,249.3 479.9,189.9 452.3,249.3 389.8,258.8 435.4,304.4 424.8,370.1 479.9,339.3 
	536,370.1 525.4,304.4 "/>
<path fill="#546E7A" d="M926.1,370.1l-56.2-30.7l-56.2,30.7l10.6-65.7l-45.6-46.6l62.5-9.5l28.6-58.3l27.5,59.3l62.5,9.5l-45.6,46.6
	L926.1,370.1z M869.9,327.7l42.4,23.3l-8.5-49.8l33.9-35l-47.7-7.4l-21.2-44.5l-21.2,44.5l-47.7,7.4l33.9,35l-8.5,49.8L869.9,327.7z
	"/>
<polygon fill="#546E7A" points="375.1,258.8 312.6,249.3 285,189.9 257.5,249.3 195,258.8 240.5,304.4 229.9,370.1 285,339.3 
	341.2,370.1 330.6,304.4 "/>
<polygon fill="#546E7A" points="180.1,258.8 117.6,249.3 90.1,189.9 62.5,249.3 0,258.8 45.6,304.4 33.9,370.1 90.1,339.3 
	146.2,370.1 134.6,304.4 "/>
</svg>
