<?xml version="1.0" encoding="utf-8"?>
<!-- Generator: Adobe Illustrator 18.1.1, SVG Export Plug-In . SVG Version: 6.00 Build 0)  -->
<svg version="1.1" id="Laag_1" xmlns="http://www.w3.org/2000/svg" xmlns:xlink="http://www.w3.org/1999/xlink" x="0px" y="0px"
	 viewBox="0 0 90.6 17" enable-background="new 0 0 90.6 17" xml:space="preserve">
<path fill="#546E7A" d="M13.8,17l-5.3-2.9L3.2,17l1-6.2L0,6.5l5.9-0.9L8.5,0l2.6,5.6L17,6.5l-4.3,4.4L13.8,17z M8.5,13l4,2.2
	l-0.8-4.7L15,7.2l-4.5-0.7l-2-4.2l-2,4.2L2,7.2l3.2,3.3l-0.8,4.7L8.5,13z"/>
<path fill="#546E7A" d="M32.1,17l-5.3-2.9L21.6,17l1-6.2l-4.3-4.4l5.9-0.9L26.9,0l2.6,5.6l5.9,0.9l-4.3,4.4L32.1,17z M26.9,13l4,2.2
	l-0.8-4.7l3.2-3.3l-4.5-0.7l-2-4.2l-2,4.2l-4.5,0.7l3.2,3.3l-0.8,4.7L26.9,13z"/>
<path fill="#546E7A" d="M50.5,17l-5.3-2.9L40,17l1-6.2l-4.3-4.4l5.9-0.9L45.3,0l2.6,5.6l5.9,0.9l-4.3,4.4L50.5,17z M38.8,7.2
	l3.2,3.3l-0.8,4.7l4-2.2l4,2.2l-0.8-4.7l3.2-3.3l-4.5-0.7l-2-4.2l-2,4.2L38.8,7.2z"/>
<path fill="#546E7A" d="M69,17l-5.3-2.9L58.4,17l1-6.2l-4.3-4.4l5.9-0.9L63.7,0l2.6,5.6l5.9,0.9l-4.3,4.4L69,17z M63.7,13l4,2.2
	l-0.8-4.7l3.2-3.3l-4.5-0.7l-2-4.2l-2,4.2l-4.5,0.7l3.2,3.3l-0.8,4.7L63.7,13z"/>
<path fill="#546E7A" d="M87.4,17l-5.3-2.9L76.8,17l1-6.2l-4.3-4.4l5.9-0.9L82.1,0l2.6,5.6l5.9,0.9l-4.3,4.4L87.4,17z M82.1,13l4,2.2
	l-0.8-4.7l3.2-3.3l-4.5-0.7l-2-4.2l-2,4.2l-4.5,0.7l3.2,3.3l-0.8,4.7L82.1,13z"/>
</svg>
