<?xml version="1.0" encoding="utf-8"?>
<!-- Generator: Adobe Illustrator 18.1.1, SVG Export Plug-In . SVG Version: 6.00 Build 0)  -->
<svg version="1.1" id="Laag_1" xmlns="http://www.w3.org/2000/svg" xmlns:xlink="http://www.w3.org/1999/xlink" x="0px" y="0px"
	 viewBox="0 0 846.9 131.7" enable-background="new 0 0 846.9 131.7" xml:space="preserve">
<path fill="#FDFDFD" d="M159.7,131.5C159.7,131.5,159.7,131.5,159.7,131.5c3.9,0,7.9,0.3,11.8-0.1c5.1-0.6,10.1-0.9,15.2-1.9
	c3.4-0.7,6.8-1.4,10.2-2.1c2.8-0.6,5.7-1.3,8.4-2.1c3.1-1,6.2-2.2,9.3-3.2c3.7-1.2,7.4-2.7,10.9-4.4c5.1-2.5,10.2-4.9,14.9-8.1
	c2.3-1.5,4.7-2.8,6.5-4.8c1.2-1.2,1.4-2.9,0.6-4.2c-0.8-1.2-2.9-2-4.3-1.5c-3.1,1.1-6.1,2.5-9.3,3.6c-2.9,0.9-5.6,2.2-8.5,3
	c-3.3,0.9-6.6,2-9.9,2.9c-4.3,1.1-8.7,2-13.1,3.1c-2.5,0.6-5.1,1.2-7.7,1.4c-4.4,0.4-8.6,1.4-13,1.6c-3.8,0.2-7.7,0.9-11.5,0.9
	c-8.7,0.1-17.4,0.2-26.1-0.9c-2.3-0.3-4.6,0.1-6.9-0.5c-4.1-1-8.4-1-12.4-2.2c-1-0.3-2.1,0-3.1-0.4c-2.6-1-5.4-1.2-8-1.9
	c-2.6-0.7-5.1-1.3-7.7-2.1c-3.1-1-6.3-1.6-9.4-2.9c-1.8-0.7-3.7-1.1-5.5-1.8c-3.6-1.4-7.2-2.9-10.8-4.4c-3.2-1.3-6.4-2.8-9.5-4.4
	c-4-2-8-4-11.8-6.3c-0.9-0.6-1.8-0.4-2.6,0.3c-0.9,0.8-1,1.6-0.6,2.7c0.4,1.4,1.7,1.9,2.6,2.7c3.5,3.2,7.1,6.1,10.9,8.8
	c4.5,3.3,9.3,6.4,14.2,9.1c3.3,1.8,6.7,3.7,10.1,5.3c2.7,1.3,5.5,2.5,8.2,3.6c2.2,0.9,4.3,1.8,6.5,2.4c2,0.6,4,1.2,6,1.9
	c3.7,1.4,7.6,2.2,11.4,3.1c2.9,0.7,5.8,1.1,8.7,1.7c4.6,0.9,9.3,1.1,13.9,1.8C152.1,131.9,155.9,131.5,159.7,131.5z"/>
<path fill="#FDFDFD" d="M362,24.1c-0.6-0.6-0.6-1.3-0.5-2c0.1-1.7,0.1-3.4,0.2-5.2c0-2.4-0.5-2.9-2.9-3c-3.2,0-6.5,0-9.7,0
	c-2.5,0-3.3,0.7-3.3,3.2c0,20.2,0,40.5,0,60.7c0,2.4,0.9,3.3,3.3,3.3c3.5,0,7,0,10.5,0c2.2,0,3.2-1,3.2-3.2c0-11.6,0-23.1,0-34.7
	c0-1,0-2,0.1-3c0.5-4,1.3-7.8,4.5-10.6c3.3-2.8,8.2-2,10.3,1.8c1.4,2.6,1.7,5.5,1.8,8.3c0.2,12.7,0.1,25.3,0.1,38
	c0,2.7,0.7,3.4,3.5,3.4c3.2,0,6.4,0,9.6,0c2.8,0,3.6-0.7,3.6-3.5c0-13.4,0-26.9,0-40.3c0-4.7,0-9.5-1.6-14.1c-1.4-4.1-3.8-7.1-7.7-9
	c-3.3-1.6-6.7-1.9-10.3-1.6c-4.7,0.3-8.3,2.5-11.2,6.1C363.9,20.4,363.4,22.5,362,24.1z"/>
<path fill="#FDFDFD" d="M251.5,13.4C251.5,13.4,251.5,13.5,251.5,13.4c-6.4,0-12.9,0-19.3,0c-2.3,0-3.2,1-3.2,3.2c0,2.5,0,5,0,7.5
	c0,2.4,1,3.4,3.4,3.4c5.8,0,11.5,0,17.3,0c0.6,0,1.2-0.2,1.5,0.5c0.3,0.6-0.2,1-0.5,1.4c-2.9,4.2-5.9,8.4-8.8,12.6
	c-3.5,5-6.8,10-10.4,14.9c-3.2,4.3-5.6,8.6-4.8,14.2c0.3,1.9,0,4,0.1,6c0.1,2.1,1.3,2.9,3.3,2.3c0.4-0.1,0.9-0.3,1.3-0.5
	c4.3-2.4,9-3.5,13.8-4.2c4.8-0.7,9.6-0.5,14.5,0.5c4,0.8,7.8,2,11.5,3.8c2.5,1.2,4.2,0.3,4.3-2.5c0.1-2.7,0.1-5.4,0-8.2
	c-0.1-2.1-1-3.7-3-4.8c-5.8-3-12-4.1-18.4-4.6c-0.9-0.1-2.1,0.5-2.6-0.4c-0.6-1,0.6-1.7,1.1-2.5c6.1-8.7,12.2-17.3,18.2-26
	c1.1-1.6,2.4-3,3-4.9c0.9-3,0.4-6,0.4-9c0-1.7-1.4-2.7-3.3-2.7C264.4,13.4,258,13.4,251.5,13.4z"/>
<path fill="#FDFDFD" d="M656.9,47.1C656.9,47.1,656.9,47.1,656.9,47.1c0,5.3,0,10.7,0,16c0,3.3,0.4,6.5,1.5,9.5
	c2,5.4,6.3,8.4,11.8,8.8c4.4,0.3,8.9,0.8,13.1-1.1c0.9-0.4,1.4-0.8,1.4-1.8c0-2.5,0.1-5,0-7.5c0-1.5-0.7-1.9-2-1.2
	c-1.8,0.9-3.6,0.7-5.4,0.5c-1.9-0.3-3.4-1.2-4.3-3c-1-1.9-1-4-1-6c-0.1-10.2,0-20.5,0-30.7c0-1.3,0.7-2.1,2-2.1c3,0.1,6-0.2,8.9,0.2
	c1,0.1,1.7-0.4,1.8-1.3c0.1-2.9,0.2-5.7-0.1-8.6c-0.1-0.8-0.5-1.3-1.4-1.3c-2.8,0-5.7-0.1-8.5,0.1c-2.2,0.1-2.8-0.3-2.7-2.6
	c0.1-4.3-0.2-8.6,0.2-12.8c0.1-1.7-0.6-2.3-1.9-1.8c-3.9,1.3-7.8,2.6-11.8,3.6c-1,0.3-1.7,0.9-1.7,2c0,3.2,0,6.4,0.1,9.6
	c0,1.4-0.7,2.4-2.1,2.2c-1.7-0.3-3.4-0.1-5.2-0.2c-2.5,0-2.8,0.3-3,2.9c-0.1,2,0.3,3.9,0.1,5.9c-0.2,2.1,0.8,2.8,2.9,2.4
	c1.7-0.3,3.4-0.1,5.2-0.1c1.3,0,1.9,0.7,1.9,2.1C656.8,36.1,656.9,41.6,656.9,47.1z"/>
<path fill="#FDFDFD" d="M617.5,81.7c6.6,0.1,12.1-0.9,16.9-4c2.1-1.4,4-3.1,5.3-5.2c2.1-3.5,2.8-7.3,2.4-11.4
	c-0.3-2.9-1.5-5.4-3.4-7.5c-2.7-3-6.1-5-9.4-7.2c-3.8-2.5-7.9-4.7-11.4-7.7c-1.5-1.3-2.5-3-2.3-4.7c0.2-2.2,1.3-4.2,3.7-5.1
	c3.3-1.2,6.7-1.1,10-0.4c2.1,0.4,4.3,0.5,6.3,1.7c1.4,0.9,2.3,0.2,2.4-1.5c0-0.4,0.2-0.7,0.2-1.1c0-2.5,0.6-5,0.2-7.5
	c-0.1-0.9-0.5-1.5-1.4-1.6c-2.6-0.4-5-1.4-7.7-1.5c-5.2-0.2-10.5-0.9-15.6,1.2c-6.4,2.6-11,6.7-12.4,13.7c-1.2,6,0.8,11.2,5.3,15.2
	c3.6,3.2,7.9,5.4,12,7.8c2.6,1.5,5.1,3,7.2,5.2c3.5,3.7,1.2,8-1.8,9.4c-3,1.3-6.2,1.5-9.4,0.9c-3.4-0.6-6.8-1.4-10-3
	c-2.3-1.2-3-0.6-3.1,2c-0.1,2.6-0.2,5.2-0.5,7.8c-0.1,1.3,0.2,1.8,1.4,2.2C607.7,81,613,81.8,617.5,81.7z"/>
<path fill="#FDFDFD" d="M756.7,54.4C756.7,54.4,756.7,54.4,756.7,54.4c0,7.9,0,15.9,0,23.8c0,2.2,0.3,2.5,2.6,2.5c3.2,0,6.4,0,9.6,0
	c2.8,0,2.9-0.1,2.9-2.9c0-11.5-0.1-22.9,0.1-34.4c0.1-4.3,1.7-8.2,5.5-10.7c2.9-1.9,6-2.9,9.5-2.3c2,0.4,2.3-0.1,2.3-2
	c0-3.2-0.1-6.5,0-9.7c0-1.5-0.7-2.2-2-2.2c-3.3-0.1-6.4,0.6-9.2,2.5c-2.8,2-5,4.4-6.3,7.6c-0.1,0.3-0.2,0.6-0.6,0.6
	c-0.4,0-0.5-0.4-0.6-0.6c-0.3-0.8-0.5-1.7-0.5-2.6c0-1.7,0.1-3.3-0.3-5c-0.3-1.2-0.9-1.7-2.2-1.7c-3.3,0.1-6.6,0.1-9.9,0
	c-1.2,0-1.7,0.5-1.5,1.6c0.4,1.7,0.1,3.3,0,5c0,3,0.7,6,0.6,9.1C756.6,40.1,756.7,47.2,756.7,54.4z"/>
<path fill="#FDFDFD" d="M244.8,92.5c1,0,2,0,3,0c1,0,2.1,0.1,3.1,0.2c3.4,0.3,4.8,1.8,4.7,5.2c0,4.9-1.9,9.5-3.4,14
	c-0.9,2.8-2.1,5.4-3.1,8.1c-0.3,0.9-0.7,1.8,0.3,2.6c1,0.7,1.9,0.3,2.7-0.3c4.1-3.1,6.8-7.2,9-11.7c2-4,3.3-8.1,4.3-12.5
	c0.7-3.1,1.1-6.2,0.7-9.4c-0.2-1.7-1.5-3.1-3-3.6c-3.7-1.2-7.5-1.5-11.3-1.6c-6-0.1-11.9,0.8-17.5,2.8c-2.5,0.9-4.8,2.2-6.9,3.9
	c-0.7,0.5-1.4,1.3-1.2,2.2c0.3,1.1,1.3,1.2,2.3,1.2c0.6,0,1.3,0,1.9-0.1C235.3,92.9,240,92.6,244.8,92.5z"/>
<path fill="#F79924" d="M593.3,37.8c-0.8-4.6-2.5-9-5-13c-1.8-2.9-4.3-4.9-7.2-6.6c-2.4-1.4-5.1-2-7.8-2.2
	c-5.6-0.4-10.7,0.8-14.9,4.7c-1,0.9-1.9,1.9-2.5,3.2c-0.2,0.4-0.5,1-1.1,0.9c-0.6-0.2-0.4-0.8-0.4-1.2c0-1.4,0-2.8,0-4.2
	c-0.1-2-0.4-2.4-2.4-2.5c-3.8-0.1-7.5,0-11.3,0c-1.1,0-1.7,0.6-1.5,1.7c0.3,1.5,0.2,3.1,0.2,4.6c0,13.3,0,26.2,0,40.2c0,0,0,0,0,0
	c0,14,0,28.4,0,42.7c0,1.5,0.5,2,2,1.9c4.1-0.1,8.3-0.1,12.4-0.1c1.5,0,1.9-0.6,1.9-2c-0.1-3.7,0-7.3,0-11c0-6.3,0-12.7,0-19
	c0-0.5-0.3-1.2,0.3-1.4c0.6-0.2,0.7,0.5,0.9,0.9c3,3.6,6.6,6.2,11.4,6.6c3.8,0.3,7.7,0.5,11.4-1.2c4.3-2,7.5-5,9.7-9.2
	c2.3-4.4,3.5-9,4.2-13.9C594.7,50.9,594.4,44.4,593.3,37.8z M578.2,50.4c-0.3,4.1-0.4,8.2-1.7,12.2c-1.2,3.6-3.2,6.4-7.1,7.3
	c-4,0.9-7.9-0.8-10.1-4.2c-2.4-3.9-3-8.3-3.5-12.7c-0.1-1.3,0-2.6,0-4.5c-0.5-3.2,0.5-7,1.3-10.7c0.7-3.2,2.2-6.1,4.9-8.1
	c3.6-2.6,9.5-2.3,12.5,1.6c1.9,2.5,2.7,5.4,3,8.5C577.9,43.3,578.4,46.8,578.2,50.4z"/>
<path fill="#232021" d="M53.9,45.9c0,4.6,0,9.2,0,13.8c0,2.8,1.3,5.2,2.9,7.4c0.6,0.8,1.1,1.7,1.7,2.6c0.9,1.1,0.6,2.8-0.6,3.8
	c-3,2.6-6,5.2-9,7.7c-1.1,0.9-2.4,0.9-3.6,0.1c-2.1-1.4-3.8-3.3-5.2-5.5c-1.3-2.1-1.5-2.1-3.3-0.3c-3.8,3.7-8.3,5.9-13.6,6.6
	c-4,0.5-7.9,0.3-11.6-0.8c-3.8-1.1-6.8-3.6-9-7.1c-2.9-4.7-2.9-9.8-2.4-15c0.6-6.2,3.6-11,8.8-14.5c4.7-3.2,10.1-4.2,15.5-5.3
	c3.1-0.6,6.2-0.5,9.3-0.9c1.5-0.2,2.3-1.1,2-2.6c-0.2-1-0.1-2-0.1-3c0.3-5.1-4-8.1-8.5-7.8c-4.1,0.3-8.1,2.9-8.9,7.3
	c-0.3,1.9-1.6,2.7-4.3,2.2c-3.2-0.6-6.4-0.7-9.6-1.1c-2.3-0.3-3.1-1.8-2.4-4c0.7-2.5,1.4-4.9,2.9-7c2.1-3,4.6-5.4,7.8-7.2
	c2.6-1.4,5.4-2.2,8.1-3c1.6-0.5,3.2-0.5,4.8-0.5c1.2,0,2.3,0,3.4-0.5c1-0.4,1.7,0.5,2.7,0.5c5.1-0.3,9.7,1.2,13.9,3.8
	c2.5,1.5,4.5,3.6,5.9,6.3c2.2,4.3,2.4,9,2.3,13.7C53.9,39.1,53.9,42.5,53.9,45.9C53.9,45.9,53.9,45.9,53.9,45.9z M36.4,53.6
	c0-1.3-0.1-2.2,0-3.1c0.2-1.5-0.5-1.9-1.9-1.9c-2.8,0-5.6,0.3-8.3,1.2c-2.9,1-5.3,2.7-6.8,5.3c-1.6,2.9-1.8,6.2-0.8,9.3
	c0.7,2.5,2.5,4.5,5.1,5c4.1,0.9,8.8-1.8,10.5-5.7C35.8,60.4,36.6,56.9,36.4,53.6z"/>
<path fill="#232021" d="M214.4,45.7c0,4.6,0.1,8.6,0,12.6c-0.1,3.7,1.2,6.9,3.5,9.8c0.3,0.4,0.7,0.8,0.9,1.3
	c1.2,2.1,1.1,2.8-0.7,4.4c-2.7,2.3-5.5,4.7-8.2,7c-1.6,1.3-3.1,1.2-4.6-0.2c-1.7-1.6-3.4-3.3-4.7-5.3c-1-1.6-1.5-1.6-2.9-0.3
	c-1.9,1.9-4,3.5-6.4,4.7c-1.8,0.9-3.7,1.7-5.7,2c-3.7,0.5-7.5,0.8-11.2,0c-3.9-0.8-7-2.9-9.5-5.8c-4.9-5.9-4.9-12.7-3.3-19.5
	c1.4-5.7,5.2-10,10.6-12.7c4.2-2.1,8.7-3.1,13.3-3.7c3.2-0.4,6.4-1,9.6-1c0.7,0,1.5-0.2,1.5-1.1c0-2.6,0.5-5.3-0.6-7.9
	c-1.5-3.7-5.2-5-8.7-4.5c-4,0.5-6.9,2.4-8.2,6.4c-0.4,1.2-0.7,2.8-2.4,3c-0.9,0.1-1.8,0-2.6-0.2c-2.6-0.5-5.2-0.6-7.8-0.7
	c-3.1-0.2-4.1-1.8-3.2-4.7c1.3-4.2,3.2-8,6.7-10.9c4.8-4,10.5-5.7,16.6-6.2c4.6-0.3,9.2-0.2,13.7,1.1c5.2,1.5,9.6,4.1,12.2,9.1
	c0.8,1.6,1.4,3.4,1.7,5.3C214.7,33.8,214.3,40.1,214.4,45.7z M196.7,54.6c0-1.8-0.1-3.1,0-4.3c0.1-1.3-0.4-1.8-1.7-1.8
	c-2.5,0.1-4.9,0.5-7.2,1.1c-6.3,1.7-9.7,6.5-8.8,12.9c0.3,2.1,1,4,2.8,5.4c3.3,2.8,8.9,1.3,11.4-2C195.8,62.5,197.1,58.5,196.7,54.6
	z"/>
<path fill="#F79924" d="M159.7,131.5c-3.8,0-7.6,0.4-11.3-0.1c-4.6-0.7-9.3-0.8-13.9-1.8c-2.9-0.6-5.9-1-8.7-1.7
	c-3.8-0.9-7.7-1.8-11.4-3.1c-1.9-0.7-4-1.3-6-1.9c-2.2-0.7-4.4-1.6-6.5-2.4c-2.8-1.1-5.6-2.3-8.2-3.6c-3.4-1.7-6.7-3.5-10.1-5.3
	c-4.9-2.7-9.6-5.8-14.2-9.1c-3.8-2.8-7.5-5.7-10.9-8.8c-0.9-0.9-2.2-1.4-2.6-2.7c-0.3-1.1-0.3-1.9,0.6-2.7c0.8-0.7,1.6-0.9,2.6-0.3
	c3.8,2.3,7.8,4.4,11.8,6.3c3.1,1.5,6.3,3,9.5,4.4c3.6,1.5,7.2,3,10.8,4.4c1.8,0.7,3.7,1.1,5.5,1.8c3,1.2,6.2,1.9,9.4,2.9
	c2.5,0.8,5.1,1.4,7.7,2.1c2.7,0.7,5.4,0.9,8,1.9c1,0.4,2.1,0.1,3.1,0.4c4.1,1.2,8.3,1.1,12.4,2.2c2.2,0.6,4.6,0.2,6.9,0.5
	c8.7,1.2,17.4,1.1,26.1,0.9c3.9-0.1,7.7-0.8,11.5-0.9c4.4-0.2,8.7-1.2,13-1.6c2.6-0.2,5.2-0.8,7.7-1.4c4.3-1.1,8.7-2,13.1-3.1
	c3.3-0.9,6.6-2,9.9-2.9c2.9-0.8,5.7-2.1,8.5-3c3.2-1,6.2-2.5,9.3-3.6c1.4-0.5,3.5,0.2,4.3,1.5c0.8,1.2,0.6,2.9-0.6,4.2
	c-1.9,2-4.3,3.3-6.5,4.8c-4.7,3.1-9.9,5.6-14.9,8.1c-3.5,1.7-7.1,3.2-10.9,4.4c-3.1,1-6.2,2.2-9.3,3.2c-2.8,0.8-5.6,1.5-8.4,2.1
	c-3.4,0.7-6.8,1.4-10.2,2.1c-5,1-10.1,1.3-15.2,1.9C167.5,131.8,163.6,131.5,159.7,131.5C159.7,131.5,159.7,131.5,159.7,131.5z"/>
<g>
	<path fill="#F79924" d="M528.5,35.2c-1.4-5-3.3-9.6-7-13.4c-1.4-1.4-2.9-2.6-4.6-3.4c-3.5-1.6-7.2-1.9-11-1.7
		c-4.4,0.2-8.2,1.7-11.2,5c-1,1.1-2,2.2-2.4,3.6c-0.2,0.7-0.7,1.2-1.4,1c-0.8-0.1-0.5-0.9-0.5-1.4c0-1.6,0-3.1,0-4.7
		c-0.1-2.2-0.7-2.8-2.9-2.8c-3.2,0-6.5,0.4-9.7,0c-1.4-0.2-1.4,0.9-1.4,2c0,14.3,0,28.9,0,42.9c0,0,0.1,0,0.1,0c0,14,0,28.6,0,42.9
		c0,1.9,0.2,2,2,2c3.5,0,7,0,10.5,0c2.5,0,2.7-0.2,2.7-2.7c0-9.9,0-19.8,0-29.7c0-0.5-0.4-1.3,0.4-1.4c0.6-0.1,1.1,0.3,1.4,0.8
		c2.3,3.9,6,6.2,10.1,7c4.5,0.9,9.2,0.7,13.5-1.4c3.2-1.6,5.9-4.2,7.7-7.4c3.4-5.9,4.9-12.3,5.1-19.1
		C529.9,47.3,530.2,41.1,528.5,35.2z M512.9,63c-1.1,4-5.4,7.5-9.5,7.6c-3.7,0.1-7.2-2.4-8.9-6.1c-2.3-5-2.7-8.4-2.6-15.6
		c-0.2-3.7,0.2-8.1,1.5-12.3c1.2-3.9,3.3-7.1,7.4-8.3c3.9-1.1,8.6-0.3,10.9,3.9c1.7,3.1,2.3,6.3,2.6,9.7c0.2,2.4,0.3,4.9,0.3,7.3
		C514.6,53.9,514.2,58.4,512.9,63z"/>
</g>
<path fill="#232021" d="M362,24.1c1.4-1.6,1.9-3.7,3.2-5.3c2.9-3.6,6.5-5.7,11.2-6.1c3.6-0.2,7.1,0.1,10.3,1.6
	c3.9,1.9,6.3,4.9,7.7,9c1.5,4.6,1.6,9.3,1.6,14.1c0,13.4,0,26.9,0,40.3c0,2.8-0.8,3.5-3.6,3.5c-3.2,0-6.4,0-9.6,0
	c-2.7,0-3.5-0.7-3.5-3.4c0-12.7,0.1-25.3-0.1-38c0-2.8-0.3-5.7-1.8-8.3c-2.1-3.8-7-4.6-10.3-1.8c-3.3,2.8-4,6.7-4.5,10.6
	c-0.1,1-0.1,2-0.1,3c0,11.6,0,23.1,0,34.7c0,2.1-1,3.1-3.2,3.2c-3.5,0-7,0-10.5,0c-2.4,0-3.3-1-3.3-3.3c0-20.2,0-40.5,0-60.7
	c0-2.5,0.8-3.2,3.3-3.2c3.2,0,6.5,0,9.7,0c2.4,0,2.9,0.5,2.9,3c0,1.7-0.1,3.4-0.2,5.2C361.4,22.8,361.4,23.5,362,24.1z"/>
<path fill="#232021" d="M336.7,47.1c-0.2,7.8-1.3,14.6-4.6,20.7c-3.1,5.7-7.4,10.2-13.6,12.7c-5.9,2.4-11.9,2.5-17.8,0.8
	c-5.9-1.7-10.5-5.5-13.8-10.8c-5.1-8.4-6.3-17.7-5.8-27.2c0.3-5.4,1.4-10.7,3.8-15.5c3.3-6.8,8.3-12.2,15.9-14.2
	c10.4-2.7,21.4-0.7,28.6,9c4.3,5.8,6.3,12.5,7,19.6C336.4,44.1,336.9,46,336.7,47.1z M299.3,46.7c0,2.7-0.2,5.5,0.1,8.1
	c0.4,3.9,1.2,7.6,3.2,11.1c2.7,4.7,9.8,4.5,12.7-0.1c2.1-3.3,2.7-6.9,3.1-10.5c0.5-4.5,0.5-8.9,0.1-13.4c-0.4-3.9-0.8-7.8-2.1-11.5
	c-1.6-4.2-6.7-6.3-10.7-4.2c-2.8,1.4-4.1,3.9-5,6.7C299,37.4,299.2,42.1,299.3,46.7z"/>
<path fill="#F79924" d="M743.5,32.6c-1.3-3.4-3.1-6.6-5.7-9c-4.1-3.8-8.9-6.3-14.6-6.6c-4.9-0.3-9.6-0.5-14.4,1
	c-5.5,1.7-9.9,4.8-13,9.6c-1.8,2.8-3,5.9-3.8,9.2c-1.1,4.4-1.6,9-1.4,13.5c0.2,4.1,0.3,8.2,1.6,12.2c1,3.3,2.3,6.3,4.1,9.2
	c2.7,4.1,6.5,6.8,11,8.4c3.5,1.3,7.2,2.1,10.7,1.5c6,0.5,11.2-0.8,16-3.7c3.6-2.2,6.4-5.3,8.2-9c2.7-5.5,3.8-11.4,3.9-17.5
	C746.1,44.9,745.8,38.6,743.5,32.6z M728.4,62.2c-1,3.7-3.2,7-7.1,8c-5,1.3-9.1-0.1-11.7-5.3c-2-4-2.7-8.2-2.8-12.6
	c-0.1-3.7-0.3-7.4,0.4-11.1c0.8-4.5,1.8-9.1,6-12c3.7-2.5,10.3-1.9,13.2,2.6c2.5,3.8,3,8.1,3.6,12.3c0.2,1.6,0,3.3,0,5.2
	C730.6,53.6,729.5,58,728.4,62.2z"/>
<path fill="#232021" d="M251.5,13.4c6.4,0,12.9,0,19.3,0c1.9,0,3.2,0.9,3.3,2.7c0.1,3,0.5,6-0.4,9c-0.6,1.9-1.9,3.3-3,4.9
	c-6,8.7-12.1,17.4-18.2,26c-0.6,0.8-1.7,1.5-1.1,2.5c0.5,0.9,1.7,0.3,2.6,0.4c6.4,0.5,12.6,1.5,18.4,4.6c2,1.1,2.9,2.6,3,4.8
	c0.1,2.7,0.1,5.4,0,8.2c-0.1,2.8-1.8,3.8-4.3,2.5c-3.7-1.8-7.5-3-11.5-3.8c-4.8-1-9.7-1.2-14.5-0.5c-4.8,0.7-9.5,1.8-13.8,4.2
	c-0.4,0.2-0.9,0.4-1.3,0.5c-1.9,0.6-3.2-0.2-3.3-2.3c-0.1-2,0.2-4-0.1-6c-0.8-5.6,1.7-9.9,4.8-14.2c3.6-4.8,7-9.9,10.4-14.9
	c2.9-4.2,5.9-8.4,8.8-12.6c0.3-0.4,0.8-0.8,0.5-1.4c-0.3-0.7-0.9-0.5-1.5-0.5c-5.8,0-11.5,0-17.3,0c-2.4,0-3.4-1-3.4-3.4
	c0-2.5,0-5,0-7.5c0-2.3,1-3.2,3.2-3.2C238.7,13.5,245.1,13.5,251.5,13.4C251.5,13.5,251.5,13.4,251.5,13.4z"/>
<path fill="#F79924" d="M843.9,31.4c-1.8-4.7-4.3-8.6-8.5-11.4c-2.9-2-6.1-3-9.6-3.6c-5.2-0.9-10.3-0.3-15,1.9
	c-5.8,2.7-9.8,7.5-12.4,13.3c-2.2,4.9-3.4,10.1-3.6,15.6c-0.4,7.9,0.7,15.3,4.8,22.2c4,6.8,10.1,10.5,17.6,12
	c4.2,0.8,8.4,0.7,12.6,0.3c4.3-0.4,8.4-1.7,12.4-3.2c1.1-0.4,1.5-1.2,1.4-2.3c-0.2-2.9-0.4-5.7-0.6-8.6c0-0.6,0.1-1.3-0.6-1.6
	c-0.7-0.3-1.2,0.1-1.7,0.5c-1.7,1.3-3.8,2.1-5.8,2.6c-3.5,1-7,1.5-10.7,1.2c-5.8-0.6-10.7-2.5-12.8-8.7c-0.7-1.9-0.9-3.8-1.1-5.8
	c-0.2-2,0.1-2.3,2.1-2.3c5.3,0,10.1,0,16.1,0c0,0,0,0,0,0c5,0,10.9,0,16.4,0c1.4,0,2-0.5,2-2C846.9,44.7,846.4,38,843.9,31.4z
	 M829.7,43.6c-3,0-6.2,0-9.2,0c0,0,0,0,0,0c-3,0-5.8,0-8.9,0c-1.4,0-2-0.6-1.8-2c0.5-4.2,1.3-8.4,4.4-11.7c4-4.2,11.1-4.2,14.4,0.8
	c2.3,3.5,2.8,7.4,2.8,11.5C831.4,43.4,830.7,43.6,829.7,43.6z"/>
<path fill="none" d="M448,50c-4.5,0.4-9.2,0.3-13.5,2.2c-3.2,1.4-5.7,3.5-6.1,7.3c-0.2,2.3-0.4,4.6,0.8,6.7c1.8,3.2,4.5,5,8.1,4.5
	c6.5,0.3,9-2.6,10.7-6.5c1.7-4,1.5-8.4,1.8-12.6C449.8,50.4,449.1,49.9,448,50z"/>
<path fill="#F79924" d="M465,79c-0.2-1.1-0.7-2.2-0.7-3.3c-0.2-3.2-0.3-6.4-0.3-9.5c0-4.7,0-9.3,0-14c0-2.5,0.1-5,0-7.5
	c-0.1-4.8,0.3-9.7-1-14.5c-1.7-6.3-5.5-10.3-11.7-12.3c-1.8-0.6-3.6-0.8-5.5-1c-3.5-0.4-7-0.3-10.5-0.1c-1.7,0.1-3.5,0-5.1,0.5
	c-2.9,1-5.8,1.7-8.5,3c-1.1,0.5-1.4,1.1-1.4,2.2c-0.1,2.7,0.6,5.3,0.4,7.9c0,0.7-0.2,1.4,0.5,1.9c0.8,0.5,1.4-0.1,2-0.5
	c0.5-0.3,0.9-0.5,1.4-0.7c5.5-3,11.2-4.8,17.6-3.4c2.8,0.6,4.7,2.3,6.3,4.5c1.5,2,1.4,4.4,2,6.7c0.6,2.2-0.2,3-2.4,3
	c-7.7,0-15.4,0.2-22.7,3.2c-2.9,1.2-5.5,2.9-7.5,5.4c-2.3,3-3.5,6.4-3.7,10.2c-0.5,6.4,0.7,12,5.7,16.4c2.6,2.3,5.6,3.8,9,4.3
	c2.3,0.3,4.6,0.3,6.9,0.1c3.3-0.2,6.2-1.3,8.8-3.2c1.9-1.3,3.3-3.2,5.1-4.6c0.3-0.2,0.5-0.5,1-0.3c0.4,0.2,0.4,0.6,0.4,1
	c0,1.1,0,2.2,0.1,3.3c0.1,2.4,0.6,2.9,3,2.9c3.3,0,6.6-0.2,9.9,0.1C464.8,80.8,465.2,80.1,465,79z M447.9,64.3
	c-1.7,3.9-4.2,6.8-10.7,6.5c-3.6,0.5-6.2-1.3-8.1-4.5c-1.2-2.1-1-4.5-0.8-6.7c0.4-3.7,2.8-5.9,6.1-7.3c4.3-1.9,8.9-1.8,13.5-2.2
	c1.1-0.1,1.8,0.4,1.7,1.6C449.4,55.9,449.6,60.3,447.9,64.3z"/>
<path fill="#F79924" d="M656.9,47.1c0-5.5,0-11,0-16.5c0-1.4-0.7-2.1-1.9-2.1c-1.7-0.1-3.4-0.2-5.2,0.1c-2.2,0.3-3.1-0.3-2.9-2.4
	c0.2-2-0.2-3.9-0.1-5.9c0.1-2.5,0.4-2.9,3-2.9c1.7,0,3.4-0.1,5.2,0.2c1.4,0.2,2.1-0.8,2.1-2.2c-0.1-3.2-0.1-6.4-0.1-9.6
	c0-1.1,0.7-1.7,1.7-2c4-1.1,7.9-2.3,11.8-3.6c1.4-0.5,2.1,0.1,1.9,1.8c-0.4,4.3-0.1,8.6-0.2,12.8c-0.1,2.3,0.5,2.7,2.7,2.6
	c2.8-0.1,5.6,0,8.5-0.1c0.9,0,1.3,0.5,1.4,1.3c0.3,2.9,0.2,5.7,0.1,8.6c0,1-0.8,1.4-1.8,1.3c-3-0.3-6-0.1-8.9-0.2
	c-1.3,0-2,0.7-2,2.1c0,10.2,0,20.5,0,30.7c0,2,0.1,4,1,6c0.9,1.8,2.4,2.8,4.3,3c1.8,0.2,3.6,0.4,5.4-0.5c1.4-0.7,2-0.3,2,1.2
	c0.1,2.5,0,5,0,7.5c0,0.9-0.5,1.4-1.4,1.8c-4.3,1.9-8.8,1.4-13.1,1.1c-5.6-0.4-9.8-3.4-11.8-8.8c-1.1-3-1.5-6.3-1.5-9.5
	C656.9,57.8,656.9,52.4,656.9,47.1C656.9,47.1,656.9,47.1,656.9,47.1z"/>
<path fill="#F79924" d="M617.5,81.7c-4.5,0.1-9.8-0.7-15-2.5c-1.1-0.4-1.5-0.9-1.4-2.2c0.3-2.6,0.4-5.2,0.5-7.8
	c0.1-2.7,0.8-3.2,3.1-2c3.2,1.6,6.6,2.4,10,3c3.2,0.5,6.4,0.4,9.4-0.9c3-1.3,5.3-5.7,1.8-9.4c-2.1-2.2-4.7-3.7-7.2-5.2
	c-4.1-2.4-8.4-4.6-12-7.8c-4.5-4-6.5-9.2-5.3-15.2c1.4-7,6.1-11.1,12.4-13.7c5.1-2,10.3-1.3,15.6-1.2c2.6,0.1,5.1,1.1,7.7,1.5
	c0.9,0.1,1.3,0.7,1.4,1.6c0.4,2.5-0.2,5-0.2,7.5c0,0.4-0.1,0.7-0.2,1.1c-0.1,1.7-1,2.4-2.4,1.5c-2-1.2-4.2-1.3-6.3-1.7
	c-3.3-0.6-6.7-0.8-10,0.4c-2.5,0.9-3.5,3-3.7,5.1c-0.2,1.7,0.9,3.5,2.3,4.7c3.5,3,7.6,5.2,11.4,7.7c3.3,2.2,6.7,4.2,9.4,7.2
	c1.9,2.1,3.1,4.6,3.4,7.5c0.4,4.1-0.3,7.9-2.4,11.4c-1.3,2.2-3.2,3.9-5.3,5.2C629.5,80.8,624.1,81.7,617.5,81.7z"/>
<path fill="#F79924" d="M756.7,54.4c0-7.2-0.1-14.3,0-21.5c0-3-0.6-6-0.6-9.1c0-1.7,0.3-3.3,0-5c-0.3-1.1,0.3-1.6,1.5-1.6
	c3.3,0.1,6.6,0.1,9.9,0c1.3,0,1.9,0.5,2.2,1.7c0.4,1.7,0.3,3.3,0.3,5c0,0.9,0.2,1.8,0.5,2.6c0.1,0.3,0.2,0.6,0.6,0.6
	c0.4,0,0.5-0.4,0.6-0.6c1.3-3.2,3.5-5.7,6.3-7.6c2.8-1.9,5.9-2.7,9.2-2.5c1.3,0.1,2,0.8,2,2.2c-0.1,3.2,0,6.5,0,9.7
	c0,2-0.3,2.4-2.3,2c-3.5-0.6-6.6,0.4-9.5,2.3c-3.8,2.5-5.4,6.5-5.5,10.7c-0.2,11.5-0.1,22.9-0.1,34.4c0,2.8-0.1,2.9-2.9,2.9
	c-3.2,0-6.4,0-9.6,0c-2.3,0-2.6-0.3-2.6-2.5C756.7,70.3,756.7,62.4,756.7,54.4C756.7,54.4,756.7,54.4,756.7,54.4z"/>
<path fill="#F79924" d="M244.8,92.5c-4.8,0.1-9.6,0.4-14.3,1.1c-0.6,0.1-1.3,0.1-1.9,0.1c-1,0.1-2-0.1-2.3-1.2
	c-0.3-1,0.5-1.7,1.2-2.2c2.1-1.6,4.4-2.9,6.9-3.9c5.6-2.1,11.5-3,17.5-2.8c3.8,0.1,7.6,0.4,11.3,1.6c1.6,0.5,2.8,1.9,3,3.6
	c0.4,3.2,0,6.3-0.7,9.4c-1,4.3-2.3,8.5-4.3,12.5c-2.2,4.5-5,8.6-9,11.7c-0.9,0.6-1.7,1.1-2.7,0.3c-1-0.7-0.7-1.7-0.3-2.6
	c1-2.7,2.2-5.4,3.1-8.1c1.5-4.6,3.4-9.1,3.4-14c0-3.4-1.4-4.9-4.7-5.2c-1-0.1-2.1-0.2-3.1-0.2C246.8,92.5,245.8,92.5,244.8,92.5z"/>
<path fill="#232021" d="M150,53.7c0,8.1,0,16.1,0,24.2c0,2.2-0.9,3.1-3.1,3.1c-3.5,0-6.9,0-10.4,0c-2.4,0-3.2-0.9-3.2-3.2
	c0-13.7,0-27.4,0-41.1c0-2.5-0.4-4.8-2.3-6.6c-2.5-2.4-7-2.5-9.7-0.4c-2.8,2.2-4.1,5.2-4.2,8.7c-0.5,13.3-0.1,26.6-0.2,39.8
	c0,2-0.8,2.8-2.8,2.8c-3.6,0-7.2,0-10.8,0c-2,0-3.1-1.2-3.1-3.3c0-10.6,0-21.2,0-31.9c0-3.2,0.2-6.4,0-9.6c-0.2-2.4-0.9-4.6-2.6-6.3
	c-3.1-3.1-9.1-2.3-11.3,1.6c-1.6,2.8-2.2,5.8-2.2,9c0,12.2,0,24.5,0,36.7c0,3.4-0.5,3.9-3.9,3.8c-3.4-0.1-6.9,0.2-10.3-0.2
	c-1.6-0.2-2.3-1.1-2.2-2.7C68,73.8,68,69.4,68,65c0-15.9,0-31.7,0-47.6c0-2.8,0.4-3.2,3.2-3.2c3.3,0,6.6,0,9.9,0
	c1.8,0,2.4,0.6,2.4,2.5c0,1.7,0,3.3-0.2,5c-0.1,0.4-0.1,1,0.4,1.2c0.6,0.2,0.8-0.2,1.1-0.6c0.9-0.9,1.2-2.2,2-3.2
	c2.8-3.8,6.5-5.8,11.2-6.2c2-0.2,3.9,0,5.9,0.3c5.3,0.8,8.4,4.2,10.8,8.6c0.3,0.5,0.2,1.2,1,1.2c0.8,0,1.3-0.4,1.6-1.1
	c2.6-5.4,7.1-8.1,12.9-8.9c6.9-0.9,12.7,0.9,17,6.6c2.2,2.9,2.9,6.4,2.9,9.9C150.2,37.6,150,45.7,150,53.7
	C150,53.7,150,53.7,150,53.7z"/>
</svg>
