<?xml version="1.0" encoding="utf-8"?>
<!-- Generator: Adobe Illustrator 18.1.1, SVG Export Plug-In . SVG Version: 6.00 Build 0)  -->
<svg version="1.1" id="Laag_1" xmlns="http://www.w3.org/2000/svg" xmlns:xlink="http://www.w3.org/1999/xlink" x="0px" y="0px"
	 viewBox="0 0 2756 556.6" enable-background="new 0 0 2756 556.6" xml:space="preserve">
<g>
	<path fill="#D0E0FF" d="M311.5,356.2H202.2l-19.1,61.8H97.8L219.3,87h75l122.4,331h-85.7L311.5,356.2z M221.1,294.6h71.1
		l-35.6-114.8L221.1,294.6z"/>
	<path fill="#D0E0FF" d="M654.5,297c0,38.2-8.6,68.7-25.9,91.5c-17.2,22.8-40.4,34.2-69.6,34.2c-22.6,0-41.1-8.3-55.7-24.8v114.8
		h-76.6V172.1h71.6l2.3,22.7c14.7-18.2,34-27.2,58-27.2c30.3,0,53.9,11.2,70.7,33.5c16.8,22.4,25.3,53.1,25.3,92.2v3.6H654.5z
		 M577.9,292.2c0-43.7-12.7-65.4-38.2-65.4c-18.2,0-30.3,6.5-36.3,19.6v96.9c6.6,13.6,19,20.5,36.8,20.5c24.5,0,37-21.1,37.7-63.2
		V292.2z"/>
	<path fill="#D0E0FF" d="M916.6,297c0,38.2-8.6,68.7-25.9,91.5c-17.2,22.8-40.4,34.2-69.6,34.2c-22.6,0-41.1-8.3-55.7-24.8v114.8
		h-76.6V172.1h71.6l2.3,22.7c14.7-18.2,34-27.2,58-27.2c30.3,0,53.9,11.2,70.7,33.5c16.8,22.4,25.3,53.1,25.3,92.2v3.6H916.6z
		 M840,292.2c0-43.7-12.7-65.4-38.2-65.4c-18.2,0-30.3,6.5-36.3,19.6v96.9c6.6,13.6,19,20.5,36.8,20.5c24.5,0,37-21.1,37.7-63.2
		V292.2z"/>
	<path fill="#0C3888" d="M1124.7,330.1c0-11.6-4.1-20.7-12.3-27.2c-8.3-6.5-22.8-13.3-43.5-20.3c-20.7-7-37.7-13.7-50.9-20.3
		c-42.9-21.1-64.4-50.1-64.4-86.9c0-18.4,5.4-34.5,16.1-48.6c10.7-14,25.9-24.9,45.4-32.7c19.6-7.8,41.6-11.8,65.9-11.8
		c23.8,0,45.2,4.2,64,12.7c18.9,8.5,33.5,20.6,44,36.2c10.5,15.7,15.7,33.7,15.7,53.8h-79.5c0-13.5-4.1-24-12.3-31.3
		c-8.3-7.5-19.4-11.2-33.5-11.2c-14.2,0-25.5,3.1-33.8,9.4c-8.3,6.3-12.3,14.3-12.3,24c0,8.5,4.5,16.2,13.6,23.1s25,14,48,21.4
		c22.9,7.3,41.7,15.3,56.4,23.8c35.7,20.6,53.7,49,53.7,85.2c0,29-10.9,51.7-32.7,68.2c-21.8,16.5-51.8,24.8-89.8,24.8
		c-26.8,0-51.1-4.8-72.9-14.4c-21.8-9.7-38.1-22.8-49.1-39.6s-16.5-36-16.5-57.9h80c0,17.7,4.5,30.9,13.7,39.2
		c9.2,8.4,24.1,12.6,44.7,12.6c13.2,0,23.6-2.8,31.2-8.5C1120.9,348.4,1124.7,340.4,1124.7,330.1z"/>
	<path fill="#0C3888" d="M1316.8,198.4c16.4-20.6,37.3-31,62.8-31c27.1,0,47.6,8,61.4,24.1c13.7,16.1,20.8,39.8,21.2,71.1v155.3
		h-76.9V264.7c0-13-2.7-22.6-7.9-28.8c-5.4-6.2-14.3-9.2-27-9.2c-15.7,0-26.9,5-33.4,15v176.4h-76.6V68.8h76.6v129.6H1316.8z"/>
	<path fill="#0C3888" d="M1495.1,292.9c0-24.6,4.8-46.5,14.3-65.6c9.5-19.1,23.3-33.9,41.1-44.2c17.8-10.4,38.9-15.5,63-15.5
		c36.8,0,65.9,11.4,87.1,34.2c21.2,22.8,31.8,53.8,31.8,93.2v2.7c0,38.3-10.6,68.8-31.9,91.3c-21.3,22.5-50.2,33.8-86.5,33.8
		c-35,0-63.1-10.5-84.3-31.4c-21.2-21-32.7-49.5-34.4-85.4L1495.1,292.9z M1571.7,297.7c0,22.7,3.6,39.4,10.7,50.1
		c7.1,10.6,17.7,16,31.6,16c27.2,0,41.2-21,41.8-63V293c0-44.1-14.1-66.1-42.3-66.1c-25.6,0-39.5,19-41.6,57.1L1571.7,297.7z"/>
	<path fill="#0C3888" d="M1994.7,297c0,38.2-8.6,68.7-25.8,91.5c-17.2,22.8-40.4,34.2-69.6,34.2c-22.6,0-41.1-8.3-55.7-24.8v114.8
		h-76.6V172.1h71.6l2.3,22.7c14.7-18.2,34-27.2,58-27.2c30.3,0,53.9,11.2,70.7,33.5s25.3,53.1,25.3,92.2v3.6H1994.7z M1918,292.2
		c0-43.7-12.7-65.4-38.2-65.4c-18.2,0-30.3,6.5-36.3,19.6v96.9c6.6,13.6,19,20.5,36.8,20.5c24.5,0,37-21.1,37.7-63.2V292.2z"/>
	<path fill="#0C3888" d="M2256.8,297c0,38.2-8.6,68.7-25.9,91.5c-17.2,22.8-40.4,34.2-69.6,34.2c-22.6,0-41.1-8.3-55.7-24.8v114.8
		H2029V172.1h71.6l2.3,22.7c14.7-18.2,34-27.2,58-27.2c30.3,0,53.9,11.2,70.7,33.5c16.8,22.4,25.3,53.1,25.3,92.2v3.6H2256.8z
		 M2180.1,292.2c0-43.7-12.7-65.4-38.2-65.4c-18.2,0-30.3,6.5-36.3,19.6v96.9c6.6,13.6,19,20.5,36.8,20.5c24.5,0,37-21.1,37.7-63.2
		V292.2z"/>
	<path fill="#0C3888" d="M2409.5,422.7c-37.7,0-68.2-11.3-91.6-33.8c-23.3-22.5-35-51.8-35-87.9v-6.4c0-25.2,4.7-47.4,14-66.6
		c9.3-19.2,22.9-34.1,40.8-44.7c17.8-10.6,39.1-15.8,63.7-15.8c34.6,0,61.8,10.7,81.9,32.1s30,51.4,30,89.7v29.8h-152.3
		c2.7,13.7,8.7,24.7,17.9,32.5s21.2,11.9,36,11.9c24.2,0,43.2-8.5,56.8-25.5l35,41.3c-9.5,13.2-23.1,23.6-40.6,31.4
		C2448.5,418.8,2429.7,422.7,2409.5,422.7z M2400.9,226.6c-22.5,0-35.7,14.9-40.1,44.6h77.3v-5.9c0.3-12.2-2.8-21.8-9.3-28.5
		C2422.3,230,2413,226.6,2400.9,226.6z"/>
	<path fill="#0C3888" d="M2692.8,241.4l-25.3-1.9c-24.1,0-39.6,7.6-46.3,22.7v155.8h-76.6V172.1h71.8l2.4,31.6
		c12.9-24.1,30.9-36.1,53.9-36.1c8.2,0,15.3,0.9,21.4,2.7L2692.8,241.4z"/>
</g>
</svg>
