<?xml version="1.0" encoding="utf-8"?>
<!-- Generator: Adobe Illustrator 18.1.1, SVG Export Plug-In . SVG Version: 6.00 Build 0)  -->
<svg version="1.1" id="Laag_1" xmlns="http://www.w3.org/2000/svg" xmlns:xlink="http://www.w3.org/1999/xlink" x="0px" y="0px"
	 viewBox="0 0 3951 556.6" enable-background="new 0 0 3951 556.6" xml:space="preserve">
<g>
	<g>
		<path fill="#EC333C" d="M345.2,256.5c-2.7,2.5-0.6,6-2.1,10c1.3-4.8-0.5-8.8,1.8-12.2c-3.1-10.8-10.1-17.6-20.8-20.7
			c-6,1.9-12,1.2-18.1,0.3c-9.7,3.6-16.6,9.7-18.5,20.4c2.4,3.4,0.7,7.4,1.7,12.3c-1.3-4.1,0.9-7.6-2-10.2c-3.9,16-3.8,16.1,12,16.1
			c11.7,0,23.4,0,35.1,0C348.8,272.4,349,272,345.2,256.5z"/>
		<path fill="#EC333C" d="M389.3,256.6c13.9-4.6,28.3-7.3,41.4-14.7c7-3.9,11.9-9.6,18-14.2c9.8-3.2,14.7,0,13.9,10.7
			c-10,16.9-26.4,24.3-44.2,29c-15.6,4.2-31.6,5.5-47.7,4.7c-5.7-0.3-12.5,1.4-12.3-8.6c0.2-10.2,7.1-6.1,11.9-6.6
			c3-0.3,6,0.2,9.1,0.4C382.7,258.1,386.1,259.6,389.3,256.6z"/>
		<path fill="#EC333C" d="M170.2,228.2c3.4-5.5,8.9-5,12.1-1.5c22.6,24.4,51.7,30.8,83.2,30.9c4.5,0,8,0.3,7.7,5.9
			c-0.2,4.5,1.5,10.6-6.9,8.8c-7.8-1.9-15.6-1.6-23.4-0.1c-28.9-1.5-55.8-7.4-73.2-33.8C170.6,235,170,231.6,170.2,228.2z"/>
		<path fill="#EC2E37" d="M289.9,293.3c0.2-6.8-2.9-7.8-8.7-7.8c-34.9,0.2-69.8,0.1-104.7,0.1c-2.6,0-5.3-0.3-7.1,2.3
			c-5.7,2.4-5.3,7.6-4.9,12.2c1.4,16.8-3.5,34,2.5,50.6c40,0,80.1,0,120.1,0c2.2-0.4,2.5-1.9,2.5-3.7
			C289.7,329,289.5,311.1,289.9,293.3z"/>
		<path fill="#EC2833" d="M287.4,362c-35.8-1.4-71.6-1-107.4-0.2c-4.5,1.2-2.6,5-2.6,7.6c-0.1,58.3,0,116.7,0,175
			c0,3.3-0.4,7.1,2.6,9.6v0c1,2.5,2.7,3.9,5.5,3.6c30.8,0.2,61.7,0,92.5,0.9c10.2,0.3,12.1-3.1,12-12.5
			c-0.4-57.8-0.2-115.6-0.3-173.4C289.6,369,291.9,364.7,287.4,362z"/>
		<path fill="#EC2D38" d="M463.3,290.5c-0.1-0.9-1.8,2.9-2.8,2.1c-1.4-2-3.3,2.4-5.6,2.4c-34.9,0-69.8,0-104.7,0
			c-1.8,0-3.8-4.2-3.8-2c0.4,20.6-2.2,39.1,1.4,59.6c38.3,1.6,76.6-0.2,114.9-0.8C467.3,331.8,466.1,310.6,463.3,290.5z
			 M459.9,348.3c0.1-0.4,0.3-0.9,0.4-1.3c0,0.4,0,0.9,0,1.3C460.2,348.3,460,348.3,459.9,348.3z"/>
		<path fill="#EC2A35" d="M449.4,369.9c0-2.7,1.7-6.2-2.2-7.9c-32.3-1.4-64.6-0.9-96.9-0.3c-6.8,0.5-3.9,5.9-3.9,9
			c-0.2,59.3-0.2,118.7,0,178c0,3.1-2.9,8.4,3.9,9c29.7,0,59.3,0,89,0c4,0.6,6.9-0.8,8.1-4.8c3-2.8,2.1-6.4,2.1-9.8
			C449.5,485.3,449.5,427.6,449.4,369.9z"/>
		<path fill="#EC2731" d="M294.8,182.5c-7.5-11.3-16.4-22.8-29.4-27.6c-24.4-9.1-43.6-1-58.4,26.1c-3.1,7.7-3.6,15.5-0.4,23.3
			c8.5,27,33.3,33.4,55,43.8c8,3.8,13.5,3,15.9-7.3c1-4.5,1.8-6.7-2.8-9.1c-10.4-5.5-20.5-11.3-30.5-17.4
			c-9.4-5.8-19-12.3-16.9-25.3c1.6-9.9,10-13.8,18.7-15.9c9.7-2.3,16.8,3.4,23,9.7c9.3,9.4,16,20.7,20.1,33.2
			c2.1,6.4,4.4,8.8,11,5.3c2.9-1.5,6.5-1.7,10.1-2.5C307,205.5,302,193.3,294.8,182.5z"/>
		<path fill="#EC2933" d="M462.5,238.4c-2.2-6.7-5.3-12.3-13.9-10.7c4.4-4,9.8-3.6,13.8-0.7C466,229.7,465.9,234.5,462.5,238.4z"/>
		<path fill="#EB1321" d="M243,272.2c7.8-3.5,15.6-3.7,23.4,0.1C258.6,272.2,250.8,272.2,243,272.2z"/>
		<path fill="#EB222D" d="M324,233.5c-6,3.6-12,3.3-18.1,0.3C312,232,318,231.4,324,233.5z"/>
		<path fill="#EB232E" d="M170.2,228.2c2.8,3.5,3,6.9-0.4,10.2C167.2,234.9,167.5,231.5,170.2,228.2z"/>
		<path fill="#EB202C" d="M345.2,256.5c-0.3,3.6-0.6,7.2-1.2,14.1c-1.8-7.9-3-12.3,0.8-16.3C345.4,254.9,345.6,255.7,345.2,256.5z"
			/>
		<path fill="#EB232E" d="M287.5,254.2c4.4,3.9,1.8,8.5,0.6,13c-0.3-3.7-0.6-7.3-1-11C286.8,255.5,286.9,254.8,287.5,254.2z"/>
		<path fill="#EB1B28" d="M425.9,187.6c-3.4-18-16.7-29.1-33.8-35.2c-4.3-1.2-8.6-1.1-12.9-0.1c-15.1,2-28.3,7.2-36.7,21
			c-7.1,11.4-13.9,23-17.8,35.9c-0.9,3-8,9.2,1.7,10.7c5.6,0.9,13.1,8.3,16.4-4.1c3.1-11.9,9.7-22.5,17.9-31.6
			c6.9-7.6,15-14.8,26.9-11.2c8.3,2.5,16.2,6.9,16.9,16.2c0.8,11.2-7.4,17.7-16.4,22.9c-9.8,5.7-19.2,12.1-29.2,17.3
			c-6.9,3.7-6.3,7.5-3.6,13.7c2.9,6.7,6.3,7,12.2,4.5c13.1-5.7,26.2-11,38-19.4C419.8,218,429.2,205.1,425.9,187.6z"/>
		<path fill="#EB1A27" d="M389.3,256.6c-3.1,4.7-6.5,3.4-10,0.6C382.6,257,385.9,256.8,389.3,256.6z"/>
		<path fill="#9EBC28" d="M326.5,141.6c0-7.6,3.1-15.3,3.1-22.9c0.2-0.1,4.4-0.4,4.4-0.7c0-17.4,0-34.9,0-52.3
			c0,1.3-4.5,2.6-4.8,3.8c0.1-1.3-1.6-2.6-1.4-3.8c-0.9-13.2-8.1-21.4-21.5-23.3c-12.2-0.2-24.6-0.3-36.8-0.5
			c3.9-10.8,12-18.8,18.4-27.9c4-5.8,0.2-8.9-3-12c-4.3-4.2-8.1-4.6-10.8-0.8C265.3,13.4,256.7,35,248.1,35H241v3.5
			c-37,0-102.9,1.9-156.1,2.1c-8.5-11.3-15-22.3-24-33.2c-3.3-3.9-8.1-8.9-13.2-5c-6.2,4.7-0.9,10.7,2.3,16
			c4.7,7.9,13.2,13.7,14.7,23.5c-11.3,0.1-22.5,0.2-33.8,0.2c-11-0.2-19.2,8.3-24.6,15.6C3.4,63.5,0,69.7,0,75.8
			c0,149.5,0,299,0,448.4c0,6.1,3.5,10.9,6.3,16.6c5.4,8.7,14.1,14.1,26.1,14.1h0.6c42.7,0,85.8,1.4,128.5,1.4
			c3.7-0.3,3.8-1.6,3.8-4.2c-0.2-24.2-0.5-53.2-0.5-71.2h0c-2.6,0-8.1-3.2-12.1-3.2c-33.5-0.2-67.1-0.9-100.6-0.4
			c-12.9,0.2-21.9-4.1-26.3-16.6c0.1-64.9,0.2-130.1,0.4-195.1c0.1-51,0.3-100.8,0.5-153.2l0,0c4.5-5.2,4.4-10.8,12-12.7
			c81.7,0,165.3,0.2,239.3,0.2v0c19,4.5,22.8,13.1,22,26c-0.7,12,2.8,24.1,2.7,36.2c-0.1,6.9,3.7,12.3,10.9,13.1
			c6.8,0.7,12.3-2.6,12.2-10.4C325.8,157.2,326.5,149.4,326.5,141.6z M25.2,113.8c0.3-0.3,0.8-0.6,1.3-0.8
			C26,113.3,25.6,113.5,25.2,113.8z M205.3,78.9C180,79.1,154.7,79,129.4,79c-4.4,0-8.9,0.1-11.2-4.7c-2.5-5.2,1.6-8,4.3-11.2
			c30.5-1.7,61.1-3,91.6,0.6C219.2,75.5,217.5,78.8,205.3,78.9z M324.1,118H324c0,0,0-0.4,0-0.6c0-0.4,0.1-0.7,0.2-1.1
			C324.1,116.9,324.1,117.4,324.1,118L324.1,118z"/>
	</g>
	<g>
		<path fill="#37474F" d="M873.2,402.2c-9.1,13-21.8,22.8-38,29.2c-16.3,6.4-35.2,9.7-56.8,9.7c-21.9,0-41.3-5.1-58.2-15.4
			c-17-10.3-30.1-24.8-39.3-43.8c-9.3-18.9-14-40.8-14.3-65.8v-23.4c0-40.4,9.4-71.7,28.3-94c18.9-22.2,45.4-33.4,79.5-33.4
			c28,0,50.5,7.2,67.6,21.5c17.1,14.3,27.5,34.6,31.3,60.9h-35.4c-6.6-35.5-27.8-53.3-63.4-53.3c-23.7,0-41.7,8.3-53.9,25
			c-12.2,16.6-18.4,40.8-18.5,72.3v21.9c0,30.1,6.9,54,20.6,71.8c13.8,17.8,32.4,26.6,55.8,26.6c13.3,0,24.9-1.5,34.8-4.4
			c10-2.9,18.2-7.9,24.7-14.9v-60.3h-62.1v-28.7h97.3V402.2z"/>
		<path fill="#37474F" d="M927,185.1c0-5.5,1.7-10.2,5.1-14c3.4-3.8,8.4-5.7,15-5.7c6.6,0,11.7,1.9,15.1,5.7c3.4,3.8,5.2,8.5,5.2,14
			c0,5.5-1.7,10.1-5.2,13.8c-3.4,3.7-8.5,5.5-15.1,5.5c-6.6,0-11.6-1.8-15-5.5C928.7,195.2,927,190.6,927,185.1z M963.9,437.3h-34.1
			V238h34.1V437.3z"/>
		<path fill="#37474F" d="M1084.2,391.1l49.4-153.1h34.8l-71.5,199.4h-26L998.7,238h34.8L1084.2,391.1z"/>
		<path fill="#37474F" d="M1281.5,441c-27,0-49-8.9-66-26.6c-17-17.8-25.4-41.5-25.4-71.2v-6.3c0-19.8,3.8-37.4,11.3-53
			c7.6-15.5,18.1-27.7,31.7-36.5c13.6-8.8,28.3-13.2,44.1-13.2c25.9,0,46.1,8.5,60.4,25.6c14.4,17.1,21.6,41.5,21.6,73.3v14.2
			h-135.1c0.5,19.7,6.2,35.5,17.2,47.6c11,12.1,25,18.1,41.9,18.1c12,0,22.2-2.5,30.6-7.4c8.4-4.9,15.7-11.4,21.9-19.5l20.8,16.2
			C1340,428.2,1314.9,441,1281.5,441z M1277.3,262.3c-13.8,0-25.3,5-34.6,15c-9.3,10-15.1,24-17.3,42.1h99.9v-2.6
			c-1-17.3-5.7-30.7-14-40.3C1302.8,267.1,1291.5,262.3,1277.3,262.3z"/>
		<path fill="#37474F" d="M1521.8,437.3c-2-3.9-3.6-10.9-4.8-21c-15.8,16.5-34.8,24.7-56.8,24.7c-19.7,0-35.8-5.6-48.4-16.7
			c-12.6-11.1-18.9-25.2-18.9-42.3c0-20.8,7.9-36.9,23.7-48.4c15.8-11.5,38-17.2,66.6-17.2h33.2v-15.7c0-11.9-3.6-21.4-10.7-28.5
			c-7.1-7.1-17.6-10.6-31.5-10.6c-12.2,0-22.4,3.1-30.6,9.2c-8.2,6.1-12.3,13.6-12.3,22.3h-34.3c0-10,3.5-19.6,10.6-28.8
			c7.1-9.3,16.6-16.6,28.7-22c12.1-5.4,25.4-8.1,39.9-8.1c23,0,41,5.7,54,17.2c13,11.5,19.8,27.3,20.3,47.4v91.8
			c0,18.3,2.3,32.9,7,43.7v2.9H1521.8z M1465.2,411.4c10.7,0,20.8-2.8,30.4-8.3c9.6-5.5,16.5-12.7,20.8-21.6v-40.9h-26.7
			c-41.8,0-62.6,12.2-62.6,36.7c0,10.7,3.6,19,10.7,25.1C1444.9,408.4,1454.1,411.4,1465.2,411.4z"/>
		<path fill="#37474F" d="M1780.5,390.4l38.3-152.4h34.1l-58,199.4h-27.6l-48.5-151.1l-47.2,151.1H1644L1586.1,238h33.9l39.2,149.3
			l46.4-149.3h27.5L1780.5,390.4z"/>
		<path fill="#37474F" d="M2010.7,437.3c-2-3.9-3.6-10.9-4.8-21c-15.8,16.5-34.8,24.7-56.8,24.7c-19.7,0-35.8-5.6-48.4-16.7
			c-12.6-11.1-18.9-25.2-18.9-42.3c0-20.8,7.9-36.9,23.7-48.4c15.8-11.5,38-17.2,66.6-17.2h33.2v-15.7c0-11.9-3.6-21.4-10.7-28.5
			c-7.1-7.1-17.6-10.6-31.5-10.6c-12.2,0-22.4,3.1-30.6,9.2c-8.2,6.1-12.3,13.6-12.3,22.3h-34.3c0-10,3.5-19.6,10.6-28.8
			c7.1-9.3,16.6-16.6,28.7-22c12.1-5.4,25.4-8.1,39.9-8.1c23,0,41,5.7,54,17.2c13,11.5,19.8,27.3,20.3,47.4v91.8
			c0,18.3,2.3,32.9,7,43.7v2.9H2010.7z M1954.1,411.4c10.7,0,20.8-2.8,30.4-8.3c9.6-5.5,16.5-12.7,20.8-21.6v-40.9h-26.7
			c-41.8,0-62.6,12.2-62.6,36.7c0,10.7,3.6,19,10.7,25.1C1933.8,408.4,1942.9,411.4,1954.1,411.4z"/>
		<path fill="#37474F" d="M2155.3,387.4l46.4-149.4h36.5l-80.2,230.1c-12.4,33.2-32.1,49.8-59.1,49.8l-6.4-0.6l-12.7-2.4v-27.6
			l9.2,0.7c11.5,0,20.5-2.3,27-7c6.4-4.7,11.8-13.2,15.9-25.6l7.6-20.3L2068.3,238h37.2L2155.3,387.4z"/>
	</g>
	<g>
		<path fill="#37474F" d="M2326.6,333.8c0-19,3.7-36.1,11-51.3c7.3-15.2,17.6-27,31-35.5c13.3-8.5,28.4-12.7,45.2-12.7
			c16.7,0,31.7,4.1,45,12.3c13.3,8.2,23.6,19.9,31,35c7.4,15.1,11.2,32.1,11.3,51v8.8c0,19.2-3.6,36.3-10.9,51.4
			c-7.3,15.1-17.5,26.9-30.9,35.4c-13.3,8.5-28.4,12.7-45.2,12.7c-16.8,0-31.9-4.2-45.2-12.5c-13.3-8.4-23.7-20.1-31-35.1
			c-7.4-15-11.1-32-11.2-50.8V333.8z M2336.6,341.5c0,16.6,3.3,31.8,9.9,45.6c6.6,13.8,15.7,24.6,27.5,32.3
			c11.7,7.7,25.2,11.6,40.3,11.6c22.7,0,41.2-8.5,55.6-25.6c14.3-17.1,21.5-39.1,21.5-66v-5.7c0-16.3-3.3-31.4-10-45.3
			c-6.6-13.9-15.8-24.7-27.5-32.5c-11.7-7.8-25-11.7-39.9-11.7c-22.7,0-41.3,8.7-55.6,26c-14.4,17.3-21.6,39.1-21.6,65.4V341.5z"/>
		<path fill="#37474F" d="M2564.5,437.3V247.9h-34.6v-10h34.6v-29.1c0.1-18.4,4.8-32.8,13.9-43c9.1-10.3,21.9-15.4,38.2-15.4
			c9.1,0,17,1,23.6,3.1l-1.5,9.6c-6.4-1.8-13.7-2.8-21.9-2.8c-13.1,0-23.5,4.3-31,12.8c-7.6,8.5-11.3,20.7-11.3,36.4V238h52.7v10
			h-52.7v189.4H2564.5z"/>
		<path fill="#37474F" d="M2780.9,184.2V238h45.3v10h-45.3v141.7c0,14.1,2.3,24.6,6.9,31.4s12.3,10.1,23.1,10.1
			c5.4,0,12-0.6,19.7-1.7l1.7,9.4c-4.1,1.5-11,2.2-20.8,2.2c-14.5,0-24.9-4-31.1-12.1c-6.3-8.1-9.5-20.8-9.6-38.1V247.9h-36.9v-10
			h36.9v-53.8H2780.9z"/>
		<path fill="#37474F" d="M2887.9,284.4c6.5-15.5,16.1-27.7,28.7-36.7c12.7-9,26.7-13.5,42-13.5c21.4,0,37.3,6.1,47.6,18.1
			c10.4,12.1,15.6,30.4,15.8,54.8v130.1h-10V307c-0.1-21.4-4.5-37.2-13.1-47.4c-8.6-10.2-22.2-15.4-40.9-15.4
			c-17.2,0-32.1,6.1-44.7,18.3c-12.6,12.2-21.1,28-25.5,47.2v127.6h-10v-283h10V284.4z"/>
		<path fill="#37474F" d="M3156.2,441c-16.1,0-30.9-4.3-44.3-13c-13.5-8.7-24-20.5-31.6-35.7c-7.6-15.1-11.4-31.9-11.4-50.3v-8.3
			c0-18.4,3.7-35.3,11.1-50.7c7.4-15.4,17.5-27.3,30.4-35.9c12.9-8.6,27-12.9,42.2-12.9c22.2,0,40.4,7.9,54.5,23.8
			c14.1,15.8,21.2,36.7,21.2,62.5V331h-149.4v10.9c0,16.2,3.4,31.2,10.2,45c6.8,13.8,16.2,24.6,28.2,32.5c12,7.8,25,11.8,39,11.8
			c13.4,0,24.8-2.2,34.2-6.7s17.7-11.3,25-20.6l7,5C3207.5,430.3,3185.4,441,3156.2,441z M3152.5,244.2c-19.4,0-35.9,7.2-49.4,21.7
			c-13.5,14.4-21.4,32.8-23.8,55.2h138.9v-2.4c0-13.5-2.9-26.1-8.6-37.7c-5.7-11.6-13.6-20.6-23.6-27.1
			C3176.1,247.5,3164.9,244.2,3152.5,244.2z"/>
		<path fill="#37474F" d="M3370.1,437.3V169.1h74.3c20.8,0,39.6,4.9,56.4,14.7c16.8,9.8,30,23.6,39.6,41.4
			c9.6,17.8,14.5,37.6,14.7,59.6v34.8c0,22.4-4.7,42.5-14.1,60.4c-9.4,17.9-22.5,31.9-39.3,42c-16.8,10.1-35.6,15.2-56.4,15.3
			H3370.1z M3380.1,179v248.4h64.3c18.8,0,35.9-4.6,51.3-13.7c15.4-9.2,27.5-21.9,36.2-38.3c8.7-16.4,13.1-34.6,13.3-54.6v-34.5
			c0-20-4.3-38.2-12.8-54.5c-8.5-16.3-20.5-29.1-35.7-38.4c-15.3-9.3-32.2-14-50.8-14.3H3380.1z"/>
		<path fill="#37474F" d="M3740.7,437.3c-2.5-8.5-3.7-20.6-3.7-36.5c-7.9,12.8-18.6,22.7-32.2,29.7s-29.1,10.5-46.3,10.5
			c-18.4,0-33.3-5-44.5-15c-11.2-10-16.9-23.1-16.9-39.2c0-18.3,8.3-33,24.8-43.9c16.5-11,38.5-16.6,65.9-16.9h49.2v-29.1
			c0-16.7-5.3-29.7-15.8-38.9s-25.5-13.8-45.1-13.8c-18.2,0-33.4,4.7-45.5,14c-12.2,9.3-18.2,20.9-18.2,34.6l-10-0.4
			c0-16.2,7.1-30,21.4-41.3c14.2-11.3,31.7-17,52.3-17c21.5,0,38.6,5.4,51.2,16.1c12.7,10.8,19.2,25.9,19.5,45.4v95.3
			c0,21.9,1.7,36.7,5.2,44.6v1.7H3740.7z M3658.5,431.1c18.7,0,34.7-4.2,48.2-12.5c13.5-8.4,23.6-20.1,30.3-35.2V336h-46.1
			c-28.5,0-50.3,5.7-65.4,17c-12.3,9.2-18.4,20.7-18.4,34.5c0,12.2,4.9,22.5,14.6,31C3631.4,426.8,3643.6,431.1,3658.5,431.1z"/>
		<path fill="#37474F" d="M3869.3,421.9l1.3-3.7l68.9-180.2h11.1l-89.2,234L3857,483c-9.6,23.2-25.4,34.8-47.5,34.8
			c-7.1,0-12-0.7-14.7-2.1l-0.2-9.5c3.9,1.1,8.4,1.7,13.5,1.7c10.4,0,19.1-3,26-9.1c6.9-6.1,12.8-16,17.9-29.7l12.2-32.9L3784.5,238
			h10.9L3869.3,421.9z"/>
	</g>
</g>
</svg>
