<?xml version="1.0" encoding="utf-8"?>
<!-- Generator: Adobe Illustrator 20.1.0, SVG Export Plug-In . SVG Version: 6.00 Build 0)  -->
<svg version="1.1" id="Laag_1" xmlns="http://www.w3.org/2000/svg" xmlns:xlink="http://www.w3.org/1999/xlink" x="0px" y="0px"
	 viewBox="0 0 923.1 191" style="enable-background:new 0 0 923.1 191;" xml:space="preserve">
<style type="text/css">
	.st0{fill:#008AD3;}
	.st1{fill:#FCFDFE;}
	.st2{fill:#068CD4;}
	.st3{fill:#333333;}
</style>
<g>
	<path class="st0" d="M95.5,191c-31.1,0-62.2,0-93.2,0.1c-1.9,0-2.3-0.4-2.3-2.3C0.1,126.6,0.1,64.4,0,2.3C0,0.4,0.4,0,2.3,0
		c62.2,0.1,124.3,0.1,186.5,0c1.9,0,2.3,0.4,2.3,2.3c-0.1,62.2-0.1,124.3,0,186.5c0,1.9-0.4,2.3-2.3,2.3
		C157.7,191,126.6,191,95.5,191z M84.2,130c12,0,24,0,36,0c3.4,0,6.1-1.1,8.5-3.6c7.2-7.6,14.6-15.1,21.8-22.7
		c5-5.3,5.1-10.8,0.1-16c-7.3-7.6-14.6-15.1-21.8-22.7c-2.4-2.5-5.2-3.7-8.8-3.7c-23.8,0-47.5,0-71.3,0c-7.4,0-11.4,4-11.4,11.4
		c0,15.4,0,30.8,0,46.1c0,7.3,4,11.2,11.2,11.2C60.5,130,72.4,130,84.2,130z"/>
	<path class="st1" d="M84.2,130c-11.9,0-23.8,0-35.6,0c-7.3,0-11.2-3.9-11.2-11.2c0-15.4,0-30.8,0-46.1c0-7.5,4-11.4,11.4-11.4
		c23.8,0,47.5,0,71.3,0c3.5,0,6.3,1.2,8.8,3.7c7.2,7.6,14.6,15.1,21.8,22.7c5,5.2,4.9,10.7-0.1,16c-7.2,7.6-14.6,15.1-21.8,22.7
		c-2.3,2.5-5.1,3.6-8.5,3.6C108.2,129.9,96.2,130,84.2,130z M68.1,76.2c-5.8-0.1-10.5,4.6-10.5,10.5c0,5.7,4.6,10.4,10.2,10.5
		c5.6,0.1,10.3-4.5,10.5-10.2C78.5,81.1,73.9,76.3,68.1,76.2z M103.3,104.7c0.1-5.8-4.3-10.5-10-10.6c-5.9-0.1-10.6,4.4-10.6,10.3
		c-0.1,5.9,4.6,10.7,10.3,10.7C98.6,115.1,103.3,110.4,103.3,104.7z M70.5,116c1.5,0.5,2.5-0.6,3.3-2.2c6.3-11.7,12.6-23.3,18.9-35
		c0.5-0.9,1.4-1.8,0.6-2.9c-0.7-1-1.9-0.6-2.9-0.8c-1.7-0.2-2.4,1-3.1,2.2c-6.3,11.8-12.7,23.5-19,35.2
		C66.9,115.2,67.3,115.9,70.5,116z M137.6,95.7c0-3.9-3.1-7.1-7-7.1c-3.8,0-7,3.3-7,7.1c0.1,3.8,3.1,6.8,6.9,6.9
		C134.5,102.7,137.6,99.6,137.6,95.7z"/>
	<path class="st2" d="M68.1,76.2c5.8,0.1,10.3,4.8,10.2,10.7c-0.1,5.7-4.8,10.3-10.5,10.2c-5.7-0.1-10.2-4.7-10.2-10.5
		C57.7,80.8,62.3,76.2,68.1,76.2z M68.1,90.5c2.3-0.3,3.7-1.6,3.7-3.9c-0.1-2.3-1.5-3.8-3.8-3.7c-2.3,0.1-3.7,1.5-3.7,3.9
		C64.3,89.1,65.7,90.3,68.1,90.5z"/>
	<path class="st2" d="M103.3,104.7c-0.1,5.7-4.7,10.4-10.3,10.4c-5.7,0-10.4-4.8-10.3-10.7c0.1-5.9,4.8-10.4,10.6-10.3
		C99,94.2,103.4,98.9,103.3,104.7z M96.9,104.3c-0.4-2.1-1.6-3.6-3.9-3.6c-2.3,0.1-3.7,1.5-3.7,3.9c0,2.3,1.5,3.7,3.8,3.7
		C95.5,108.3,96.6,106.8,96.9,104.3z"/>
	<path class="st2" d="M70.5,116c-3.2-0.1-3.6-0.8-2.3-3.3c6.3-11.8,12.7-23.5,19-35.2c0.7-1.3,1.4-2.4,3.1-2.2
		c1,0.1,2.2-0.3,2.9,0.8c0.8,1.1-0.1,2-0.6,2.9c-6.3,11.7-12.6,23.3-18.9,35C73,115.4,72,116.5,70.5,116z"/>
	<path class="st2" d="M137.6,95.7c0,3.9-3.2,7-7.1,6.9c-3.7-0.1-6.8-3.1-6.9-6.9c-0.1-3.8,3.1-7.1,7-7.1
		C134.5,88.6,137.7,91.8,137.6,95.7z"/>
	<path class="st1" d="M68.1,90.5c-2.3-0.2-3.8-1.4-3.8-3.8c0-2.4,1.3-3.8,3.7-3.9c2.4-0.1,3.8,1.5,3.8,3.7
		C71.8,88.9,70.4,90.2,68.1,90.5z"/>
	<path class="st1" d="M96.9,104.3c-0.2,2.5-1.4,4-3.8,4c-2.4,0-3.8-1.4-3.8-3.7c0-2.3,1.4-3.8,3.7-3.9
		C95.3,100.7,96.5,102.2,96.9,104.3z"/>
</g>
<g>
	<path class="st3" d="M298,121.4h-2.8l-10.9-37c-0.5-1.9-0.9-3.4-0.9-4.6h-0.1c-0.1,1-0.4,2.5-1.1,4.6l-11.7,37.1h-2.8L253,72.2h3.8
		l11.2,39.4c0.5,1.8,0.9,3.2,1.1,4.4h0.1c0.1-0.8,0.5-2.3,1.2-4.4l12.1-39.4h1.7l11.1,39.4c0.5,1.8,0.9,3.3,1.1,4.4h0.1
		c0.1-0.6,0.3-1.4,0.5-2.2l11.5-41.6h3.7L298,121.4z"/>
	<path class="st3" d="M321.3,77.4c-0.7,0-1.3-0.3-1.8-0.8c-0.5-0.5-0.8-1.1-0.8-1.9c0-0.8,0.3-1.4,0.8-1.8c0.5-0.5,1.1-0.7,1.8-0.7
		c0.7,0,1.3,0.2,1.9,0.7c0.5,0.5,0.8,1.1,0.8,1.9c0,0.7-0.3,1.4-0.8,1.9C322.6,77.1,322,77.4,321.3,77.4z M319.7,121.4V86.2h3.2
		v35.1H319.7z"/>
	<path class="st3" d="M358,121.4v-20.4c0-8.4-3-12.7-9.1-12.7c-3.4,0-6.2,1.2-8.3,3.7c-2.2,2.5-3.3,5.6-3.3,9.2v20.2h-3.2V86.2h3.2
		v6.4h0.1c2.6-4.8,6.6-7.2,12-7.2c3.8,0,6.7,1.3,8.7,3.8c2,2.5,3,6.1,3,10.8v21.4H358z"/>
	<path class="st3" d="M396.7,121.4V115h-0.1c-1.1,2.2-2.8,4-5.1,5.3c-2.2,1.3-4.8,2-7.6,2c-4.3,0-7.8-1.6-10.6-4.7
		c-2.7-3.2-4.1-7.5-4.1-13.1c0-5.7,1.5-10.3,4.5-13.8c3-3.5,6.9-5.3,11.6-5.3c5.3,0,9,2.2,11.2,6.5h0.1V69.4h3.2v52H396.7z
		 M396.7,100c0-3.3-1-6-3.1-8.3c-2.1-2.3-4.9-3.4-8.4-3.4c-3.7,0-6.7,1.4-9.1,4.2c-2.4,2.8-3.6,6.7-3.6,11.6c0,4.8,1.1,8.6,3.2,11.2
		c2.2,2.6,4.9,4,8.4,4c4,0,7.1-1.2,9.3-3.7c2.2-2.5,3.3-5.5,3.3-9.1V100z"/>
	<path class="st3" d="M425.2,122.2c-5.1,0-9.2-1.7-12.2-5.1c-3-3.4-4.5-7.8-4.5-13.2c0-5.8,1.6-10.4,4.7-13.7
		c3.1-3.3,7.2-4.9,12.3-4.9c5,0,9,1.6,11.9,4.9c2.9,3.3,4.4,7.8,4.4,13.6c0,5.5-1.5,9.9-4.4,13.3
		C434.4,120.5,430.3,122.2,425.2,122.2z M425.4,88.3c-4.1,0-7.4,1.4-9.9,4.2c-2.5,2.8-3.7,6.7-3.7,11.6c0,4.6,1.2,8.3,3.6,11.1
		c2.4,2.8,5.7,4.2,9.8,4.2c4.2,0,7.5-1.4,9.8-4.1c2.3-2.7,3.4-6.5,3.4-11.4c0-5-1.1-8.8-3.4-11.5C432.8,89.6,429.6,88.3,425.4,88.3z
		"/>
	<path class="st3" d="M480.2,121.4h-2.9l-7.6-26.5c-0.2-0.7-0.4-1.7-0.5-2.9h-0.2c0,0.5-0.3,1.5-0.7,2.9l-8.6,26.5h-2.9l-10.6-35.1
		h3.5l8.2,28c0.2,0.7,0.4,1.7,0.5,2.9h0.3c0-0.7,0.3-1.6,0.7-2.9l8.9-28h2.2l8,28c0.2,0.7,0.3,1.6,0.5,2.9h0.3
		c0-0.7,0.2-1.6,0.6-2.9l8.3-28h3.3L480.2,121.4z"/>
	<path class="st3" d="M496.2,119.8V116c1.2,1,2.6,1.8,4.3,2.4c1.7,0.6,3.2,0.9,4.4,0.9c5.5,0,8.3-2.3,8.3-6.8c0-1.6-0.6-2.9-1.8-4
		c-1.2-1.1-3.2-2.2-5.9-3.4c-3.4-1.5-5.7-3-7.1-4.5c-1.4-1.6-2-3.5-2-5.7c0-2.9,1.1-5.2,3.3-6.9c2.2-1.8,4.9-2.6,8.1-2.6
		c3,0,5.6,0.6,7.8,1.9v3.6c-2.6-1.7-5.3-2.5-8.1-2.5c-2.3,0-4.2,0.6-5.6,1.8c-1.4,1.2-2.1,2.8-2.1,4.7c0,1.7,0.4,3,1.3,4.1
		c0.9,1,2.9,2.2,5.9,3.6c3.7,1.6,6.2,3.2,7.5,4.6c1.4,1.4,2.1,3.3,2.1,5.6c0,2.8-1,5.1-3.1,6.9c-2.1,1.8-5,2.7-8.7,2.7
		C501.3,122.2,498.4,121.4,496.2,119.8z"/>
	<path class="st3" d="M543.6,119.6v-3.9c3.5,2.2,7.1,3.4,10.7,3.4c3.8,0,6.8-0.8,8.7-2.4c2-1.6,3-3.8,3-6.7c0-2.5-0.7-4.5-2-6
		c-1.3-1.5-4.2-3.5-8.7-6.1c-5-2.9-8.1-5.3-9.5-7.3c-1.3-2-2-4.2-2-6.8c0-3.5,1.3-6.4,4-8.8c2.7-2.4,6.3-3.6,10.8-3.6
		c2.9,0,5.9,0.5,8.8,1.5v3.6c-2.9-1.3-6-2-9.2-2c-3.3,0-6,0.8-7.9,2.5c-2,1.7-2.9,3.8-2.9,6.4c0,2.5,0.7,4.5,2,6
		c1.3,1.5,4.2,3.5,8.7,6.1c4.6,2.6,7.7,4.9,9.2,6.9c1.5,2,2.3,4.3,2.3,7c0,3.8-1.3,6.8-3.9,9.2c-2.6,2.4-6.3,3.6-11.1,3.6
		c-1.7,0-3.6-0.3-5.8-0.8C546.5,120.9,544.8,120.3,543.6,119.6z"/>
	<path class="st3" d="M593.3,120.9c-1.6,0.8-3.2,1.2-4.6,1.2c-5.2,0-7.8-3.1-7.8-9.3V89.1h-6.3v-2.9h6.3v-9.1c0.5-0.2,1-0.4,1.6-0.5
		c0.5-0.2,1.1-0.3,1.6-0.5v10.2h9.3v2.9H584v23.2c0,2.4,0.4,4.2,1.1,5.3c0.8,1.1,2.1,1.6,3.9,1.6c1.3,0,2.7-0.4,4.2-1.3V120.9z"/>
	<path class="st3" d="M614.4,122.2c-5.1,0-9.2-1.7-12.2-5.1c-3-3.4-4.5-7.8-4.5-13.2c0-5.8,1.6-10.4,4.7-13.7
		c3.1-3.3,7.2-4.9,12.3-4.9c5,0,9,1.6,11.9,4.9c2.9,3.3,4.4,7.8,4.4,13.6c0,5.5-1.5,9.9-4.4,13.3
		C623.6,120.5,619.5,122.2,614.4,122.2z M614.6,88.3c-4.1,0-7.4,1.4-9.9,4.2c-2.5,2.8-3.7,6.7-3.7,11.6c0,4.6,1.2,8.3,3.6,11.1
		c2.4,2.8,5.7,4.2,9.8,4.2c4.2,0,7.5-1.4,9.8-4.1c2.3-2.7,3.4-6.5,3.4-11.4c0-5-1.1-8.8-3.4-11.5S618.8,88.3,614.6,88.3z"/>
	<path class="st3" d="M656.2,89.5c-1.1-0.8-2.3-1.1-3.7-1.1c-2.8,0-5.1,1.4-7,4.3c-1.9,2.9-2.8,6.9-2.8,12.2v16.5h-3.1V86.2h3.1V94
		h0.1c0.8-2.7,2.1-4.8,3.8-6.2c1.7-1.5,3.7-2.2,6-2.2c1.3,0,2.5,0.2,3.5,0.6V89.5z"/>
	<path class="st3" d="M662.2,103.9c0,4.8,1.1,8.6,3.3,11.3c2.2,2.7,5.3,4.1,9.2,4.1c3.9,0,7.8-1.5,11.5-4.4v3.4
		c-3.6,2.6-7.7,3.9-12.2,3.9c-4.5,0-8.2-1.6-11-4.9c-2.8-3.2-4.2-7.8-4.2-13.8c0-5.1,1.5-9.4,4.4-12.9c2.9-3.5,6.7-5.3,11.4-5.3
		c4.4,0,7.7,1.5,10,4.6c2.3,3.1,3.5,7.2,3.5,12.6v1.4H662.2z M684.9,101.1c-0.1-4-1.1-7.2-2.9-9.4c-1.8-2.2-4.3-3.4-7.5-3.4
		c-3.3,0-6,1.1-8.2,3.3c-2.2,2.2-3.5,5.4-4,9.5H684.9z"/>
	<path class="st3" d="M716.8,121.4V72.2h12.3c8.2,0,14.4,2,18.6,6.1c4.3,4.1,6.4,10,6.4,17.8c0,7.5-2.3,13.6-6.8,18.3
		c-4.6,4.7-10.9,7-18.9,7H716.8z M720.2,75.3v43h7.7c7.3,0,12.9-1.9,16.8-5.7c3.9-3.8,5.9-9.2,5.9-16.4c0-13.9-7.3-20.9-22-20.9
		H720.2z"/>
	<path class="st3" d="M764.2,103.9c0,4.8,1.1,8.6,3.3,11.3c2.2,2.7,5.3,4.1,9.2,4.1c3.9,0,7.8-1.5,11.5-4.4v3.4
		c-3.6,2.6-7.7,3.9-12.2,3.9c-4.5,0-8.2-1.6-11-4.9c-2.8-3.2-4.2-7.8-4.2-13.8c0-5.1,1.5-9.4,4.4-12.9c2.9-3.5,6.7-5.3,11.4-5.3
		c4.4,0,7.7,1.5,10,4.6c2.3,3.1,3.5,7.2,3.5,12.6v1.4H764.2z M786.9,101.1c-0.1-4-1.1-7.2-2.9-9.4c-1.8-2.2-4.3-3.4-7.5-3.4
		c-3.3,0-6,1.1-8.2,3.3c-2.2,2.2-3.5,5.4-4,9.5H786.9z"/>
	<path class="st3" d="M819.9,121.4v-7h-0.1c-1.1,2.4-2.7,4.3-4.9,5.7c-2.1,1.4-4.5,2.1-7.1,2.1c-3.3,0-6-0.9-7.9-2.8
		c-1.9-1.9-2.9-4.2-2.9-7.1c0-6.1,4.1-9.8,12.2-11.1l10.8-1.6c0-7.5-2.8-11.3-8.5-11.3c-3.9,0-7.6,1.6-11.3,4.7v-3.8
		c1.3-1,3.1-1.9,5.3-2.6c2.2-0.7,4.3-1.1,6.3-1.1c3.6,0,6.4,1.1,8.4,3.4c2,2.2,3,5.5,3,9.8v22.8H819.9z M810.3,103.9
		c-3.7,0.5-6.3,1.4-7.8,2.6c-1.5,1.2-2.2,3.1-2.2,5.7c0,2.1,0.7,3.8,2.1,5.1c1.4,1.3,3.3,2,5.8,2c3.4,0,6.2-1.3,8.4-3.8
		c2.2-2.5,3.4-5.7,3.4-9.7v-3.4L810.3,103.9z"/>
	<path class="st3" d="M833.6,121.4v-52h3.2v52H833.6z"/>
	<path class="st3" d="M846.2,119.8V116c1.2,1,2.6,1.8,4.3,2.4c1.7,0.6,3.2,0.9,4.4,0.9c5.5,0,8.3-2.3,8.3-6.8c0-1.6-0.6-2.9-1.8-4
		c-1.2-1.1-3.2-2.2-5.9-3.4c-3.4-1.5-5.7-3-7.1-4.5c-1.4-1.6-2-3.5-2-5.7c0-2.9,1.1-5.2,3.3-6.9c2.2-1.8,4.9-2.6,8.1-2.6
		c3,0,5.6,0.6,7.8,1.9v3.6c-2.6-1.7-5.3-2.5-8.1-2.5c-2.3,0-4.2,0.6-5.6,1.8c-1.4,1.2-2.1,2.8-2.1,4.7c0,1.7,0.4,3,1.3,4.1
		c0.9,1,2.9,2.2,5.9,3.6c3.7,1.6,6.2,3.2,7.5,4.6c1.4,1.4,2.1,3.3,2.1,5.6c0,2.8-1,5.1-3.1,6.9c-2.1,1.8-5,2.7-8.7,2.7
		C851.3,122.2,848.5,121.4,846.2,119.8z"/>
</g>
</svg>
