<?xml version="1.0" encoding="utf-8"?>
<!-- Generator: Adobe Illustrator 18.1.1, SVG Export Plug-In . SVG Version: 6.00 Build 0)  -->
<svg version="1.1" id="Capa_1" xmlns="http://www.w3.org/2000/svg" xmlns:xlink="http://www.w3.org/1999/xlink" x="0px" y="0px"
	 viewBox="-31 -168 896 896" enable-background="new -31 -168 896 896" xml:space="preserve">
<g>
	<path id="settings_1_" fill="#FFFFFF" d="M832.2,214.7l-88.8-14.8c-6.5-26.4-15.9-51.6-28.1-75.1l56.8-70.5
		c12.1-14.9,11.5-36.3-1.2-50.7L735.7-36c-12.8-14.4-34-17.4-50.2-7.2L609.6,4.5C576.2-18.8,538.4-36,497.6-46l-14.8-89.2
		c-3.1-18.9-19.5-32.8-38.7-32.8h-53.2c-19.2,0-35.6,13.9-38.6,32.8L337.3-46c-33.7,8.3-65.4,21.6-94.2,39.1l-72.2-51.5
		c-15.6-11.1-36.9-9.4-50.5,4.2L82.8-16.6C69.3-3,67.6,18.4,78.7,33.9l51.6,72.3c-17.4,28.6-30.6,60.1-38.8,93.5l-89.7,15
		c-18.9,3.1-32.8,19.5-32.8,38.7v53.2c0,19.2,13.9,35.5,32.8,38.7l89.7,15c6.8,27.5,16.6,53.8,29.7,78.1l-56.6,70.1
		c-12,14.9-11.5,36.3,1.2,50.7l35.3,39.7c12.8,14.4,34,17.4,50.2,7.2l77-48.4c32.6,22.3,69.4,38.7,109,48.4l14.9,89.3
		c3,18.9,19.5,32.8,38.6,32.8h53.2c19.2,0,35.5-13.9,38.7-32.8l14.9-89.3c33.3-8.1,64.5-21.2,93.1-38.5l75.2,53.7
		c15.5,11.2,36.9,9.4,50.5-4.2l37.6-37.6c13.5-13.5,15.4-34.9,4.1-50.5l-53.5-75.1c17.4-28.7,30.7-60.2,38.9-93.8l88.8-14.8
		c18.9-3.1,32.8-19.5,32.8-38.7v-53.2C865,234.2,851.2,217.9,832.2,214.7z M418.4,448c-92.8,0-168-75.3-168-168
		c0-92.8,75.2-168,168-168c92.7,0,168,75.2,168,168C586.4,372.7,511.2,448,418.4,448z"/>
</g>
</svg>
