<?xml version="1.0" encoding="utf-8"?>
<!-- Generator: Adobe Illustrator 18.1.1, SVG Export Plug-In . SVG Version: 6.00 Build 0)  -->
<svg version="1.1" id="Laag_1" xmlns="http://www.w3.org/2000/svg" xmlns:xlink="http://www.w3.org/1999/xlink" x="0px" y="0px"
	 viewBox="252.7 0 561 560" enable-background="new 252.7 0 561 560" xml:space="preserve">
<circle fill="#FFFFFF" cx="533.1" cy="280.5" r="280.6"/>
<g>
	<path fill="#455A64" d="M646.1,224c-10.4,0-18.8,8.5-18.8,18.8v75.3c0,10.4,8.5,18.8,18.8,18.8s18.8-8.5,18.8-18.8v-75.3
		C664.9,232.5,656.4,224,646.1,224z M420.2,224c-10.4,0-18.8,8.5-18.8,18.8v75.3c0,10.4,8.5,18.8,18.8,18.8
		c10.4,0,18.8-8.5,18.8-18.8v-75.3C439,232.5,430.5,224,420.2,224z M448.4,346.4c0,15.6,12.6,28.2,28.2,28.2h9.4v37.6
		c0,10.4,8.5,18.8,18.8,18.8s18.8-8.5,18.8-18.8v-37.6h18.8v37.6c0,10.4,8.5,18.8,18.8,18.8c10.4,0,18.8-8.5,18.8-18.8v-37.6h9.4
		c15.6,0,28.2-12.6,28.2-28.2V242.8H448.4V346.4z M568,156.2l11.9-22.9c0.6-1.1,0.1-2.6-1-3.2c-1.1-0.6-2.6-0.1-3.2,1l-12.1,23.2
		c-9.5-3.7-19.8-5.7-30.5-5.7c-10.8,0-21.1,2-30.5,5.7l-12.1-23.2c-0.6-1.1-2-1.6-3.2-1c-1.1,0.6-1.6,2-1,3.2l11.9,22.9
		c-26.7,12.1-46,37.5-49.3,67.8h168.4C613.9,193.7,594.6,168.3,568,156.2z M495.5,209.4c-7.5,0-13.6-6.1-13.6-13.6
		s6.1-13.6,13.6-13.6s13.6,6.1,13.6,13.6C509.1,203.3,503,209.4,495.5,209.4z M570.8,209.4c-7.5,0-13.6-6.1-13.6-13.6
		s6.1-13.6,13.6-13.6s13.6,6.1,13.6,13.6S578.3,209.4,570.8,209.4z"/>
</g>
</svg>
