<?xml version="1.0" encoding="utf-8"?>
<!-- Generator: Adobe Illustrator 18.1.1, SVG Export Plug-In . SVG Version: 6.00 Build 0)  -->
<svg version="1.1" id="Laag_1" xmlns="http://www.w3.org/2000/svg" xmlns:xlink="http://www.w3.org/1999/xlink" x="0px" y="0px"
	 viewBox="452 0 561.2 560" enable-background="new 452 0 561.2 560" xml:space="preserve">
<circle fill="#455A64" cx="732.6" cy="280.5" r="280.6"/>
<g>
	<path fill="#FFFFFF" d="M845.6,224c-10.4,0-18.8,8.5-18.8,18.8v75.3c0,10.4,8.5,18.8,18.8,18.8s18.8-8.5,18.8-18.8v-75.3
		C864.4,232.5,855.9,224,845.6,224z M619.7,224c-10.4,0-18.8,8.5-18.8,18.8v75.3c0,10.4,8.5,18.8,18.8,18.8
		c10.4,0,18.8-8.5,18.8-18.8v-75.3C638.5,232.5,630,224,619.7,224z M647.9,346.4c0,15.6,12.6,28.2,28.2,28.2h9.4v37.6
		c0,10.4,8.5,18.8,18.8,18.8s18.8-8.5,18.8-18.8v-37.6h18.8v37.6c0,10.4,8.5,18.8,18.8,18.8c10.4,0,18.8-8.5,18.8-18.8v-37.6h9.4
		c15.6,0,28.2-12.6,28.2-28.2V242.8H647.9V346.4z M767.5,156.2l11.9-22.9c0.6-1.1,0.1-2.6-1-3.2c-1.1-0.6-2.6-0.1-3.2,1l-12.1,23.2
		c-9.5-3.7-19.8-5.7-30.5-5.7c-10.8,0-21.1,2-30.5,5.7L690,131.1c-0.6-1.1-2-1.6-3.2-1c-1.1,0.6-1.6,2-1,3.2l11.9,22.9
		c-26.7,12.1-46,37.5-49.3,67.8h168.4C813.4,193.7,794.1,168.3,767.5,156.2z M695,209.4c-7.5,0-13.6-6.1-13.6-13.6
		s6.1-13.6,13.6-13.6s13.6,6.1,13.6,13.6C708.6,203.3,702.5,209.4,695,209.4z M770.3,209.4c-7.5,0-13.6-6.1-13.6-13.6
		s6.1-13.6,13.6-13.6s13.6,6.1,13.6,13.6S777.8,209.4,770.3,209.4z"/>
</g>
</svg>
