<?xml version="1.0" encoding="utf-8"?>
<!-- Generator: Adobe Illustrator 18.1.1, SVG Export Plug-In . SVG Version: 6.00 Build 0)  -->
<svg version="1.1" id="Laag_1" xmlns="http://www.w3.org/2000/svg" xmlns:xlink="http://www.w3.org/1999/xlink" x="0px" y="0px"
	 viewBox="452 0 561.1 560" enable-background="new 452 0 561.1 560" xml:space="preserve">
<circle fill="#455A64" cx="732.6" cy="280.5" r="280.6"/>
<g>
	<path fill="#FFFFFF" d="M816.9,139.1H648.3c-10.6,0-19.2,8.6-19.2,19.2v244.4c0,10.6,8.6,19.2,19.2,19.2h168.6
		c10.6,0,19.2-8.6,19.2-19.2V158.3C836.1,147.7,827.5,139.1,816.9,139.1z M732.6,414.7c-6.3,0-11.4-5.1-11.4-11.4
		s5.1-11.4,11.4-11.4c6.3,0,11.4,5.1,11.4,11.4S738.9,414.7,732.6,414.7z M816.7,381.9H648.6V162.1h168.1V381.9z"/>
</g>
</svg>
