<?xml version="1.0" encoding="utf-8"?>
<!-- Generator: Adobe Illustrator 18.1.1, SVG Export Plug-In . SVG Version: 6.00 Build 0)  -->
<svg version="1.1" id="Laag_1" xmlns="http://www.w3.org/2000/svg" xmlns:xlink="http://www.w3.org/1999/xlink" x="0px" y="0px"
	 viewBox="452 0 561.2 560" enable-background="new 452 0 561.2 560" xml:space="preserve">
<circle fill="#455A64" cx="732.6" cy="280.5" r="280.6"/>
<g>
	<path fill="#FFFFFF" d="M796.5,129.7H668.8c-12.2,0-22.1,9.9-22.1,22.1v259.3c0,12.2,9.9,22.1,22.1,22.1h127.7
		c12.2,0,22.1-9.9,22.1-22.1V151.8C818.6,139.6,808.7,129.7,796.5,129.7z M701.2,143.1h63c1.6,0,2.9,2.4,2.9,5.3s-1.3,5.3-2.9,5.3
		h-63c-1.6,0-2.9-2.4-2.9-5.3S699.6,143.1,701.2,143.1z M732.7,411.3c-7.8,0-14.1-6.3-14.1-14.1s6.3-14.1,14.1-14.1
		s14.1,6.3,14.1,14.1S740.4,411.3,732.7,411.3z M802.1,363H663.3V167H802L802.1,363L802.1,363z"/>
</g>
</svg>
