<?xml version="1.0" encoding="utf-8"?>
<!-- Generator: Adobe Illustrator 18.1.1, SVG Export Plug-In . SVG Version: 6.00 Build 0)  -->
<svg version="1.1" id="Laag_1" xmlns="http://www.w3.org/2000/svg" xmlns:xlink="http://www.w3.org/1999/xlink" x="0px" y="0px"
	 viewBox="0 0 2569.9 556.6" enable-background="new 0 0 2569.9 556.6" xml:space="preserve">
<g>
	<path fill="#A0C31F" d="M319.9,348.6H206.3l-19.8,64.3H97.8L224,68.8h78l127.1,344H340L319.9,348.6z M226.1,284.6h73.9L263,165.2
		L226.1,284.6z"/>
	<path fill="#A0C31F" d="M676.5,286.9c0,39.7-9,71.4-26.8,95.1c-17.9,23.7-42,35.6-72.4,35.6c-23.5,0-42.8-8.6-57.9-25.8v119.3
		h-79.6V157.2h74.4l2.4,23.6c15.3-18.9,35.4-28.4,60.2-28.4c31.5,0,56,11.6,73.5,34.9c17.5,23.2,26.2,55.2,26.2,95.8V286.9z
		 M596.9,282c0-45.4-13.2-68-39.7-68c-18.9,0-31.5,6.8-37.8,20.3v100.7c6.9,14.2,19.7,21.3,38.3,21.3c25.4,0,38.4-21.9,39.2-65.7
		V282z"/>
	<path fill="#A0C31F" d="M948.9,286.9c0,39.7-9,71.4-26.8,95.1c-17.9,23.7-42,35.6-72.4,35.6c-23.5,0-42.8-8.6-57.9-25.8v119.3
		h-79.6V157.2h74.4l2.4,23.6c15.3-18.9,35.4-28.4,60.2-28.4c31.5,0,56,11.6,73.5,34.9c17.5,23.2,26.2,55.2,26.2,95.8V286.9z
		 M869.3,282c0-45.4-13.2-68-39.7-68c-18.9,0-31.5,6.8-37.8,20.3v100.7c6.9,14.2,19.7,21.3,38.3,21.3c25.4,0,38.4-21.9,39.2-65.7
		V282z"/>
	<path fill="#F0A400" d="M987.6,412.9v-344h110.8c30.4,0,57.7,6.9,82,20.7c24.3,13.8,43.2,33.2,56.8,58.4
		c13.6,25.1,20.5,53.3,20.7,84.5v15.8c0,31.5-6.7,59.7-20,84.7c-13.3,25-32.1,44.5-56.2,58.6c-24.2,14.1-51.1,21.2-80.9,21.4H987.6z
		 M1070.6,132.9v216.2h28.8c23.8,0,42-8.5,54.8-25.4c12.7-16.9,19.1-42.1,19.1-75.5v-14.9c0-33.2-6.4-58.3-19.1-75.1
		c-12.8-16.9-31.4-25.3-55.8-25.3H1070.6z"/>
	<path fill="#F0A400" d="M1420.5,417.6c-39.2,0-71-11.7-95.2-35.1c-24.3-23.4-36.4-53.8-36.4-91.3v-6.6c0-26.1,4.9-49.2,14.5-69.2
		c9.7-20,23.8-35.5,42.4-46.4c18.6-11,40.6-16.4,66.2-16.4c35.9,0,64.3,11.1,85.1,33.4c20.8,22.3,31.2,53.4,31.2,93.2v31h-158.3
		c2.8,14.3,9.1,25.6,18.7,33.8c9.6,8.2,22,12.3,37.3,12.3c25.2,0,44.9-8.8,59.1-26.5l36.4,43c-9.9,13.7-24,24.6-42.2,32.7
		C1461,413.5,1441.5,417.6,1420.5,417.6z M1411.5,213.9c-23.3,0-37.2,15.4-41.6,46.3h80.3v-6.1c0.3-12.8-2.9-22.6-9.7-29.7
		C1433.8,217.4,1424.1,213.9,1411.5,213.9z"/>
	<path fill="#F0A400" d="M1704.3,412.9c-2.8-5.2-5.3-12.8-7.6-22.9c-14.6,18.4-35.1,27.6-61.4,27.6c-24.1,0-44.6-7.3-61.4-21.9
		c-16.9-14.6-25.3-32.9-25.3-54.9c0-27.7,10.2-48.7,30.7-62.9c20.5-14.2,50.2-21.3,89.3-21.3h24.6v-13.5c0-23.6-10.2-35.4-30.5-35.4
		c-18.9,0-28.4,9.3-28.4,28h-79.6c0-24.7,10.5-44.8,31.5-60.2c21-15.4,47.9-23.1,80.4-23.1c32.6,0,58.4,8,77.3,23.9
		c18.9,15.9,28.6,37.7,29.1,65.4V355c0.3,23.5,3.9,41.4,10.8,53.9v4H1704.3z M1654.4,360.9c9.9,0,18.2-2.1,24.7-6.4
		c6.5-4.3,11.2-9.1,14-14.4v-40.9H1670c-27.7,0-41.6,12.4-41.6,37.3c0,7.2,2.4,13.1,7.3,17.6
		C1640.6,358.6,1646.9,360.9,1654.4,360.9z"/>
	<path fill="#F0A400" d="M1901.1,412.9h-79.9V49.9h79.9V412.9z"/>
	<path fill="#F0A400" d="M2084,341c0-6.8-3.5-12.2-10.6-16.3c-7.1-4.1-20.6-8.3-40.4-12.8c-19.8-4.4-36.2-10.2-49.1-17.4
		c-12.9-7.2-22.8-15.9-29.5-26.1c-6.8-10.2-10.2-22-10.2-35.2c0-23.5,9.7-42.8,29.1-58c19.4-15.2,44.7-22.8,76.1-22.8
		c33.7,0,60.8,7.6,81.3,22.9c20.5,15.3,30.7,35.4,30.7,60.3h-79.9c0-20.5-10.8-30.7-32.4-30.7c-8.3,0-15.3,2.3-21,7
		c-5.7,4.6-8.5,10.4-8.5,17.4c0,7.1,3.5,12.8,10.4,17.2c6.9,4.4,18,8,33.2,10.9c15.2,2.8,28.6,6.2,40.1,10.2
		c38.4,13.2,57.7,36.9,57.7,71.1c0,23.3-10.4,42.3-31.1,56.9c-20.7,14.6-47.5,22-80.4,22c-21.9,0-41.4-3.9-58.6-11.8
		c-17.2-7.9-30.6-18.6-40.2-32.1c-9.6-13.5-14.4-27.8-14.4-42.8h74.4c0.3,11.8,4.3,20.4,11.8,25.9c7.6,5.4,17.2,8.2,29.1,8.2
		c10.8,0,19-2.2,24.4-6.6C2081.3,353.9,2084,348.1,2084,341z"/>
</g>
</svg>
