<?xml version="1.0" encoding="utf-8"?>
<!-- Generator: Adobe Illustrator 18.1.1, SVG Export Plug-In . SVG Version: 6.00 Build 0)  -->
<svg version="1.1" id="Laag_1" xmlns="http://www.w3.org/2000/svg" xmlns:xlink="http://www.w3.org/1999/xlink" x="0px" y="0px"
	 viewBox="0 0 511.4 120.8" enable-background="new 0 0 511.4 120.8" xml:space="preserve">
<path fill="#8C2E26" d="M0,53.4c0.4-1.6,0.7-3.2,1.1-4.8c3.1-12,9.9-20.5,22.4-23.2c7.7-1.7,14.9-0.2,21.2,4.8
	c1.2,0.9,2.3,1.9,3.8,3.1c0-2.4,0-4.4,0-6.6c4.8,0,9.4,0,14.1,0c0,20.2,0,40.6,0,61c-4.6,0-9.1,0-13.9,0c0-1.8,0-3.6,0-5.8
	c-0.8,0.4-1.2,0.5-1.5,0.8c-15.5,14-41,6.5-46.1-17.1C0.7,64,0.4,62.2,0,60.4C0,58.1,0,55.8,0,53.4z M50.1,57.7
	c-0.1-0.1-0.3-0.1-0.4-0.2c-0.2-1.9-0.3-3.8-0.7-5.7c-1.7-8.1-7.4-13.4-15.3-14.3c-7.2-0.8-14.1,3.2-17.2,10.3
	c-3,6.9-2.7,13.8,0.7,20.5c3,5.9,8,9,14.7,9c6.9-0.1,12.3-3,15.2-9.4C48.6,64.6,49.1,61.1,50.1,57.7z"/>
<path fill="#344758" d="M453.5,0c2.8,1.2,5.4,2.6,6.7,5.6c1.9,4.4-0.2,9.7-4.6,11.7c-4.5,2.1-10,0-12-4.5c-2.1-4.5-0.3-9.6,4.2-11.8
	c0.7-0.4,1.5-0.7,2.2-1.1C451.2,0,452.3,0,453.5,0z"/>
<path fill="#344758" d="M215.8,96.4c4.5,0,8.7-0.1,12.8,0.1c0.5,0,1.4,0.8,1.6,1.4c3.2,10,14.5,14.5,23.6,9.1c2-1.2,3.9-3.3,5-5.4
	c3.2-6.1,2.5-12.8,2.4-19.9c-0.8,0.6-1.3,0.8-1.7,1.2c-13.2,12.4-38,9-44.6-13.7c-3.3-11.3-2.1-22.4,4.9-32.4
	c9.4-13.4,29.7-14.3,39.8-4c0.4,0.4,0.9,0.7,1.7,1.3c0-2.4,0-4.3,0-6.4c4.8,0,9.2,0,13.9,0c0,1.6,0,3.1,0,4.5
	c0,19.3,0,38.6-0.1,57.9c0,3.4-0.4,6.8-1.1,10.2c-1.8,8.4-6.8,14.5-14.5,18.3c-11.2,5.4-26.7,3.3-35.4-4.7
	C219,109.3,216.7,103.4,215.8,96.4z M244.4,77.6c7.1,0,12.6-3.6,15.4-10.2c2-4.6,2.3-9.5,1.4-14.4c-1.3-7.8-7.4-13.9-14.9-14.6
	c-8.4-0.8-15,3.3-17.8,11.3c-2,5.8-1.9,11.8,0.4,17.5C231.7,74,237.1,77.6,244.4,77.6z"/>
<path fill="#8C2E26" d="M87.3,26.5c0,2.3,0,4.1,0,6.2c0.6-0.3,1.1-0.4,1.4-0.7c12.7-12.3,36.4-9.4,44.8,11.9
	c5.2,13.3,2.1,29.4-7.5,38.4c-10.1,9.6-25.4,10.1-36.1,1c-0.7-0.6-1.4-1.1-2.4-2c0,13.7,0,26.8,0,40.2c-4.8,0-9.3,0-14.1,0
	c0-0.9-0.1-1.9-0.1-2.9c0-29.8,0.1-59.6,0.1-89.3c0-2.2,0.6-2.9,2.8-2.8C79.7,26.7,83.3,26.5,87.3,26.5z M121.7,58.5
	c-0.3-2.8-0.5-4.7-0.8-6.6c-1.7-8.4-8.4-14.4-16.4-14.5c-8.5-0.1-15.4,5.1-17.2,13.7c-0.7,3.5-0.8,7.3-0.3,10.9
	c0.9,7.8,7,14.1,14,15c8.6,1.2,15.4-2.5,18.7-10.4C120.8,63.8,121.2,60.7,121.7,58.5z"/>
<path fill="#8C2E26" d="M143.5,26.7c4.6,0,9.1,0,13.8,0c0,2,0,3.9,0,6.1c0.8-0.4,1.2-0.6,1.6-0.9c13.2-12.6,37.5-9,44.9,12.7
	c4.5,13.2,3.1,26.1-6.9,36.8c-10,10.6-25.8,11.2-37,1.8c-0.6-0.5-1.3-1-2.3-1.9c0,13.6,0,26.7,0,40.1c-4.8,0-9.4,0-14,0
	C143.5,90,143.5,58.5,143.5,26.7z M192.2,57.2c-0.2-0.1-0.3-0.1-0.5-0.2c-0.3-1.9-0.4-3.8-0.9-5.7c-1.8-7.9-8.1-13.5-15.6-13.9
	c-7.9-0.5-14.7,4.1-17.3,11.6c-1.9,5.7-1.9,11.5,0.3,17.1c2.8,7,8,10.9,15.7,11.1c7.2,0.1,12.5-3.5,15.4-9.9
	C190.8,64.2,191.2,60.6,192.2,57.2z"/>
<path fill="#344758" d="M380.6,34.6c0-2.7,0-4.7,0-6.8c4.7,0,9.1,0,13.7,0c0,20.1,0,40.1,0,60.3c-4.5,0-9,0-13.8,0
	c0-1.9,0-3.6,0-5.8c-0.8,0.4-1.3,0.6-1.6,0.9c-14.8,13.4-40.2,7.1-45.4-16.3c-2.7-12.1-1-23.6,8.2-32.9
	c10.1-10.3,25.6-10.8,36.5-1.4C378.8,33.1,379.4,33.6,380.6,34.6z M381.7,57.5c-0.6-2.6-0.9-5.7-2-8.4c-2.6-6.6-7.5-10.4-14.8-10.8
	c-7.3-0.4-12.6,2.9-16,9.3c-3,5.8-3.1,11.8-1.1,17.9c2.5,7.6,8.4,12,15.9,12c7.9,0,14-4.4,16.4-12.1C380.9,63,381.1,60.4,381.7,57.5
	z"/>
<path fill="#344758" d="M467.7,75.2c4.1-1.9,7.9-3.7,12-5.5c0.9,1.3,1.7,2.5,2.5,3.7c2.3,3.3,5.4,4.5,9.3,4c2.3-0.3,4.2-1.2,5.1-3.5
	c1-2.4,0.9-4.9-1-6.7c-1.8-1.7-3.9-3.1-6-4.3c-3.2-1.8-6.5-3.3-9.8-4.9c-12.4-6.1-10.6-23.3,0-29.5c10.3-6,23.4-1.8,27.5,9.2
	c-3.3,1.8-6.7,3.6-10.1,5.3c-0.4,0.2-1.5-0.5-2.1-0.9c-1.5-1.1-2.7-2.7-4.3-3.5c-2.1-1.1-4.7,0-5.9,1.9c-1.2,2-1,4,1.3,5.7
	c2,1.5,4.2,2.6,6.4,3.8c3.4,1.8,7,3.2,10.2,5.2c9.8,6,11.8,17.7,4.5,26.8c-9.1,11.3-28,10.6-36.3-1.3
	C469.7,79,468.8,77.2,467.7,75.2z"/>
<path fill="#344758" d="M424.6,88.1c-4.9,0-9.3,0-14.1,0c0-1.1,0-2.1,0-3.1c0-13.6,0-27.3,0.1-40.9c0-4.4,0-3.8-3.7-3.8
	c-0.6,0-1.3-0.1-2.3-0.2c0-3.9,0-7.7,0.1-11.5c0-0.4,0.7-0.9,1.2-1.1c0.6-0.2,1.3-0.1,2,0c2.2,0.3,2.9-0.6,2.8-2.8
	c-0.1-6.4,0-12.8,0-19.4c4.6,0,9,0,13.8,0c0,7.3,0,14.5,0,22c3.7,0,7.2,0,10.9,0c0,4.4,0,8.5,0,12.9c-3.5,0-6.9,0-10.6,0
	C424.6,56.4,424.6,72.1,424.6,88.1z"/>
<path fill="#344758" d="M330.3,29.4c-2.2,4.3-4.2,8.3-6.2,12.3c-1.8-0.7-3.3-1.6-5-2c-5.6-1.6-10.9,0.7-12.8,6.1
	c-1.2,3.6-1.7,7.6-1.8,11.5c-0.2,9.3-0.1,18.6,0,28c0,0.9,0,1.8,0,2.9c-4.7,0-9.1,0-13.7,0c0-20.1,0-40.1,0-60.3c4.5,0,8.9,0,13.5,0
	c0.1,1.5,0.1,3,0.3,5.2C312.4,24.4,320.9,24.2,330.3,29.4z"/>
<path fill="#344758" d="M458.5,88.3c-4.2,0-8.2,0-12.3-0.1c-0.5,0-1.2-0.8-1.3-1.3c-0.2-0.8-0.1-1.6-0.1-2.5c0-18.2,0.1-36.4,0-54.6
	c0-1.7,0.4-2.4,2.2-2.3c3.7,0.1,7.5,0,11.5,0C458.5,47.8,458.5,67.9,458.5,88.3z"/>
</svg>
