<?xml version="1.0" encoding="utf-8"?>
<!-- Generator: Adobe Illustrator 18.1.1, SVG Export Plug-In . SVG Version: 6.00 Build 0)  -->
<svg version="1.1" id="Laag_1" xmlns="http://www.w3.org/2000/svg" xmlns:xlink="http://www.w3.org/1999/xlink" x="0px" y="0px"
	 viewBox="11 187 978 191" enable-background="new 11 187 978 191" xml:space="preserve">
<g>
	<g>
		<path fill="#37474F" d="M264.6,242.1l0.3,12.5c2.9-4.7,6.4-8.1,10.6-10.4c4.3-2.3,9-3.5,14.2-3.5c12.1,0,19.7,4.9,23,14.9
			c2.7-4.8,6.4-8.5,11-11c4.6-2.6,9.6-3.9,15.1-3.9c16.4,0,24.8,9,25.1,26.9v51.2h-8.5v-50.5c-0.1-6.8-1.5-11.9-4.4-15.3
			c-2.9-3.3-7.6-4.9-14.2-4.9c-6.1,0.1-11.2,2.1-15.4,5.9c-4.2,3.9-6.6,8.5-7,14.1v50.7h-8.5v-51.2c-0.1-6.6-1.6-11.4-4.7-14.7
			c-3-3.3-7.7-4.9-14.1-4.9c-5.3,0-9.9,1.5-13.7,4.5s-6.7,7.6-8.5,13.6v52.6h-8.5v-76.5H264.6z"/>
		<path fill="#37474F" d="M409.8,306.6l22.4-64.4h9.1l-32.7,89.6l-1.7,4c-4.2,9.3-10.7,14-19.5,14c-2,0-4.2-0.3-6.5-1l-0.1-7
			l4.4,0.4c4.2,0,7.5-1,10.1-3.1c2.6-2.1,4.8-5.6,6.6-10.6l3.8-10.3l-28.9-76h9.3L409.8,306.6z"/>
		<path fill="#37474F" d="M512.1,289.7h-46.8l-10.6,29h-9.1l39-103.1h8.3l39,103.1h-9.1L512.1,289.7z M467.9,282.4h41.4l-20.7-56.2
			L467.9,282.4z"/>
		<path fill="#37474F" d="M606.6,281.2c0,11.9-2.6,21.4-7.9,28.4c-5.3,7-12.4,10.5-21.3,10.5c-10.5,0-18.5-3.7-24.1-11v39.1H545
			V242.1h7.9l0.4,10.8c5.6-8.2,13.5-12.3,24-12.3c9.1,0,16.4,3.5,21.6,10.4s7.9,16.6,7.9,28.9v1.2H606.6z M598.2,279.7
			c0-9.8-2-17.5-6-23.2c-4-5.7-9.6-8.5-16.8-8.5c-5.2,0-9.6,1.2-13.4,3.8c-3.8,2.5-6.6,6.1-8.6,10.9v36.8c2,4.4,4.9,7.7,8.7,10
			c3.8,2.3,8.2,3.5,13.4,3.5c7.1,0,12.7-2.9,16.7-8.5C596.1,298.8,598.2,290.5,598.2,279.7z"/>
		<path fill="#37474F" d="M687.1,281.2c0,11.9-2.6,21.4-7.9,28.4c-5.3,7-12.4,10.5-21.3,10.5c-10.5,0-18.5-3.7-24.1-11v39.1h-8.4
			V242.1h7.9l0.4,10.8c5.6-8.2,13.5-12.3,24-12.3c9.1,0,16.4,3.5,21.6,10.4s7.9,16.6,7.9,28.9v1.2H687.1z M678.5,279.7
			c0-9.8-2-17.5-6-23.2c-4-5.7-9.6-8.5-16.8-8.5c-5.2,0-9.6,1.2-13.4,3.8c-3.8,2.5-6.6,6.1-8.6,10.9v36.8c2,4.4,4.9,7.7,8.7,10
			c3.8,2.3,8.2,3.5,13.4,3.5c7.1,0,12.7-2.9,16.7-8.5C676.6,298.8,678.5,290.5,678.5,279.7z"/>
		<path fill="#12AEE1" d="M763.6,273.2h-43.2v45.5h-13.6V215.6h63.9v11.2h-50.3v35.3h43.3L763.6,273.2L763.6,273.2z"/>
		<path fill="#12AEE1" d="M820.1,253.8c-2-0.3-4.2-0.5-6.4-0.5c-8.6,0-14.4,3.6-17.5,11v54.4H783v-76.7h12.7l0.2,8.9
			c4.3-6.8,10.4-10.3,18.3-10.3c2.5,0,4.5,0.3,5.8,1V253.8z"/>
		<path fill="#12AEE1" d="M862.6,320.1c-10.4,0-18.8-3.4-25.4-10.3c-6.5-6.8-9.8-15.9-9.8-27.4v-2.4c0-7.6,1.5-14.4,4.4-20.4
			c2.9-6,7-10.7,12.2-14c5.2-3.4,10.9-5,17-5c10,0,17.7,3.3,23.2,9.9c5.6,6.6,8.3,16,8.3,28.2v5.4h-51.9c0.2,7.6,2.4,13.7,6.6,18.3
			c4.2,4.7,9.6,7,16.1,7c4.7,0,8.5-1,11.8-2.9c3.2-1.9,6-4.4,8.4-7.5l8,6.2C885.1,315.2,875.5,320.1,862.6,320.1z M861,251.4
			c-5.3,0-9.7,1.9-13.3,5.8c-3.6,3.9-5.8,9.3-6.7,16.2h38.4v-1c-0.4-6.7-2.2-11.8-5.4-15.5C870.8,253.3,866.5,251.4,861,251.4z"/>
		<path fill="#12AEE1" d="M939.4,320.1c-10.4,0-18.8-3.4-25.4-10.3c-6.5-6.8-9.8-15.9-9.8-27.4v-2.4c0-7.6,1.5-14.4,4.4-20.4
			c2.9-6,7-10.7,12.2-14c5.2-3.4,10.9-5,17-5c10,0,17.7,3.3,23.2,9.9c5.6,6.6,8.3,16,8.3,28.2v5.4h-51.9c0.2,7.6,2.4,13.7,6.6,18.3
			c4.2,4.7,9.6,7,16.1,7c4.7,0,8.5-1,11.8-2.9c3.2-1.9,6-4.4,8.4-7.5l8,6.2C961.9,315.2,952.3,320.1,939.4,320.1z M937.8,251.4
			c-5.3,0-9.7,1.9-13.3,5.8c-3.6,3.9-5.8,9.3-6.7,16.2h38.4v-1c-0.4-6.7-2.2-11.8-5.4-15.5C947.6,253.3,943.3,251.4,937.8,251.4z"/>
	</g>
	<g>
		<path fill="#02AEDD" d="M11.1,377.1c0-62.2,0-124.4-0.1-186.7c0-2.6,0.5-3.1,3.1-3.1c62,0.1,123.9,0.1,185.9,0.1
			c0.2,1.6,0.3,3.2,0.5,4.8c0,1.1-0.1,2.3-0.1,3.4c0,55.6,0,111.3,0,166.9c0,3.8,0.1,7.5,0.1,11.3c-0.2,1-0.4,2.1-0.6,3.1
			c-12.3,0-24.7,0-37,0c-9.6,0-19.1-0.1-28.7,0.1c-2.7,0-3.6-0.8-3.1-3.4c0.5-2.8,0.7-5.7,1-8.6c0.9-8,0.8-16.5,9-21.5
			c0.1-0.1,0.1-0.2,0.2-0.3c7.2-7.9,6.4-17.9,6.7-27.5c0.1-1.9-1.4-2.1-2.9-2.1c-26.7,0-53.4,0-80.1,0c-2.5,0-3.4,1.1-3.2,3.4
			c0.4,4.8,0.4,9.6,1.1,14.3c0.9,5.3,3.5,9.8,7.5,13.6c2.1,2,5.2,3.4,5.7,6.7c1,6.7,2,13.4,2.8,20.2c0.6,5.2,0.4,5.2-4.7,5.2
			C53.2,377,32.1,377,11.1,377.1z M47.4,294.7c0.7,2.9,2,5.7,3.7,8.1c3,4.3,6,7.6,12.3,7.2c10.3-0.7,20.6-0.2,30.9-0.2
			c1.2,0,2.8,0.8,3.4-0.6c0.4-1-1-1.9-1.7-2.7c-10.3-12.8-10.6-35.5,4.5-47.8c2.3-1.9,1.5-2.9-0.4-4.2c-4-2.8-8.3-4.4-13.2-5.3
			c-8.3-1.5-16.2-0.6-23.5,3.6c-7.9,4.5-13.6,11-16.3,19.8C44.4,280,44.3,287.3,47.4,294.7z M127.4,309.9c6.8,0,13.6-0.3,20.4,0.1
			c4,0.2,6.3-1.7,8.4-4.6c13.9-20.2,5.1-46.6-18.2-54c-15.9-5.1-31.8,1.5-39.8,14.5c-8.6,14-7.6,27.9,2.2,41.1c1.6,2.2,3.4,3,6,3
			C113.3,309.8,120.3,309.9,127.4,309.9z M106,255.6c0.5-1.3,0.6-2.5,1.8-3.3c7.8-5.1,16.8-5.3,25.5-6.7c0.6-0.1,0.7,0.4,1,0.8
			c3,3.6,6.6,3.5,9.5,0c4.7-5.7,9.4-11.5,14.1-17.1c1.3-1.6,2.3-2.9,0.1-4.6c-2-1.6-3.2-2.1-5.2,0.3c-4.6,5.8-9.6,11.2-14.4,16.9
			c-0.9,1-1.8,2.3-3,1.4c-0.6-0.5,0.1-2,1-2.7c2-1.8,1.9-4,1.5-6.3c-3.5-21.2-24-34.6-44.7-28.9c-15.4,4.2-26.8,20-25.4,35.8
			c0.5,5.3,0.5,5.3,5.8,4.3c0.7-0.1,1.5-0.2,2.2-0.3C87.5,243.7,96.9,248.4,106,255.6z"/>
		<path fill="#F0F8FA" d="M11.1,377.1c21,0,42-0.1,63.1-0.1c5,0,5.2,0,4.7-5.2c-0.7-6.7-1.8-13.4-2.8-20.2c-0.5-3.3-3.6-4.8-5.7-6.7
			c-4-3.8-6.6-8.3-7.5-13.6c-0.8-4.7-0.7-9.5-1.1-14.3c-0.2-2.4,0.7-3.4,3.2-3.4c26.7,0,53.4,0,80.1,0c1.5,0,3,0.2,2.9,2.1
			c-0.3,9.6,0.5,19.6-6.7,27.5c-0.1,0.1-0.1,0.2-0.2,0.3c-8.2,5-8,13.4-9,21.5c-0.3,2.9-0.6,5.8-1,8.6c-0.4,2.6,0.4,3.5,3.1,3.4
			c9.6-0.2,19.1-0.1,28.7-0.1c12.3,0,24.7,0,37,0c1.2-0.8,1-2,0.6-3.1c-0.1-3.8-0.1-7.5-0.1-11.3c0-55.6,0-111.3,0-166.9
			c0-1.1,0.1-2.3,0.1-3.4c0.1-1.6,0.2-3.2,0.3-4.8c1.2-0.3,0.7,0.7,0.7,1.1c0,62.5,0,124.9,0.1,187.4c0,2.7-1.5,1.9-2.7,1.9
			c-49,0-98,0-147,0c-13.1,0-26.2,0-39.3,0C12.2,377.8,11,378.6,11.1,377.1z"/>
		<path fill="#ADDFF2" d="M200.8,187.4c-0.1,1.6-0.2,3.2-0.3,4.8c-0.2-1.6-0.3-3.2-0.5-4.8C200.3,187.4,200.6,187.4,200.8,187.4z"/>
		<path fill="#ADDFF2" d="M127.4,309.9c-7,0-14.1-0.1-21.1,0c-2.6,0-4.4-0.8-6-3c-9.8-13.3-10.8-27.2-2.2-41.1
			c8-12.9,23.9-19.5,39.8-14.5c23.4,7.4,32.1,33.8,18.2,54c-2,3-4.3,4.8-8.4,4.6C141,309.7,134.2,309.9,127.4,309.9z"/>
		<path fill="#F0F8FA" d="M106,255.6c-9-7.2-18.5-11.9-30.1-10.6c-0.8,0.1-1.5,0.2-2.2,0.3c-5.3,1-5.3,1-5.8-4.3
			c-1.4-15.8,10-31.6,25.4-35.8c20.7-5.7,41.2,7.7,44.7,28.9c0.4,2.3,0.5,4.5-1.5,6.3c-0.8,0.8-1.6,2.3-1,2.7c1.2,0.9,2.1-0.3,3-1.4
			c4.8-5.6,9.8-11.1,14.4-16.9c1.9-2.4,3.2-1.9,5.2-0.3c2.3,1.8,1.3,3-0.1,4.6c-4.7,5.7-9.4,11.4-14.1,17.1c-2.9,3.5-6.5,3.6-9.5,0
			c-0.3-0.4-0.4-0.9-1-0.8c-8.7,1.4-17.8,1.6-25.5,6.7C106.5,253.1,106.5,254.3,106,255.6z"/>
		<path fill="#F0F8FA" d="M47.2,272.5c2.7-8.8,8.3-15.3,16.3-19.8c7.3-4.2,15.1-5.1,23.5-3.6c4.9,0.9,9.2,2.5,13.2,5.3
			c1.9,1.3,2.7,2.3,0.4,4.2c-15.1,12.3-14.7,35-4.5,47.8c0.7,0.9,2.1,1.7,1.7,2.7c-0.6,1.4-2.2,0.6-3.4,0.6
			c-10.3,0.1-20.7-0.5-30.9,0.2c-6.3,0.4-9.4-2.9-12.3-7.2c-1.7-2.5-3-5.2-3.7-8.1c0.8-0.8,1.7-1.8,0.9-3c-1.7-2.5-1-5.3-1-8
			C47.2,280,47.8,276.3,47.2,272.5z"/>
		<path fill="#ADDFF2" d="M47.2,272.5c0.7,3.7,0,7.5,0.1,11.2c0,2.7-0.6,5.5,1,8c0.8,1.2-0.1,2.1-0.9,3
			C44.3,287.3,44.4,280,47.2,272.5z"/>
		<path fill="#ADDFF2" d="M200.6,373.8c0.3,1.1,0.6,2.3-0.6,3.1C200.1,375.9,200.3,374.8,200.6,373.8z"/>
	</g>
</g>
</svg>
