<?xml version="1.0" encoding="utf-8"?>
<!-- Generator: Adobe Illustrator 18.1.1, SVG Export Plug-In . SVG Version: 6.00 Build 0)  -->
<svg version="1.1" id="Laag_1" xmlns="http://www.w3.org/2000/svg" xmlns:xlink="http://www.w3.org/1999/xlink" x="0px" y="0px"
	 viewBox="252.7 0 561 560" enable-background="new 252.7 0 561 560" xml:space="preserve">
<circle fill="#FFFFFF" cx="533.1" cy="280.5" r="280.6"/>
<g>
	<path fill="#445963" d="M617.4,139.1H448.8c-10.6,0-19.2,8.6-19.2,19.2v244.4c0,10.6,8.6,19.2,19.2,19.2h168.6
		c10.6,0,19.2-8.6,19.2-19.2V158.3C636.6,147.7,628,139.1,617.4,139.1z M533.1,414.7c-6.3,0-11.4-5.1-11.4-11.4
		c0-6.3,5.1-11.4,11.4-11.4c6.3,0,11.4,5.1,11.4,11.4C544.5,409.6,539.4,414.7,533.1,414.7z M617.2,381.9H449.1V162.1h168.1V381.9z"
		/>
</g>
</svg>
