<?xml version="1.0" encoding="utf-8"?>
<!-- Generator: Adobe Illustrator 18.1.1, SVG Export Plug-In . SVG Version: 6.00 Build 0)  -->
<svg version="1.1" id="Laag_1" xmlns="http://www.w3.org/2000/svg" xmlns:xlink="http://www.w3.org/1999/xlink" x="0px" y="0px"
	 viewBox="252.7 0 561 560" enable-background="new 252.7 0 561 560" xml:space="preserve">
<circle fill="#FFFFFF" cx="533.1" cy="280.5" r="280.6"/>
<g>
	<path fill="#455A64" d="M597,129.7H469.3c-12.2,0-22.1,9.9-22.1,22.1v259.3c0,12.2,9.9,22.1,22.1,22.1H597
		c12.2,0,22.1-9.9,22.1-22.1V151.8C619.1,139.6,609.2,129.7,597,129.7z M501.7,143.1h63c1.6,0,2.9,2.4,2.9,5.3s-1.3,5.3-2.9,5.3h-63
		c-1.6,0-2.9-2.4-2.9-5.3S500.1,143.1,501.7,143.1z M533.2,411.3c-7.8,0-14.1-6.3-14.1-14.1s6.3-14.1,14.1-14.1
		c7.8,0,14.1,6.3,14.1,14.1C547.3,405,540.9,411.3,533.2,411.3z M602.6,363H463.8V167h138.7L602.6,363L602.6,363z"/>
</g>
</svg>
