<?xml version="1.0" standalone="no"?>
<!DOCTYPE svg PUBLIC "-//W3C//DTD SVG 1.1//EN" "http://www.w3.org/Graphics/SVG/1.1/DTD/svg11.dtd" >
<svg xmlns="http://www.w3.org/2000/svg">
<metadata></metadata>
<defs>
<font id="rookies_showtimesregular" horiz-adv-x="1146" >
<font-face units-per-em="2048" ascent="1638" descent="-410" />
<missing-glyph horiz-adv-x="378" />
<glyph horiz-adv-x="0" />
<glyph horiz-adv-x="682" />
<glyph unicode=" "  horiz-adv-x="378" />
<glyph unicode="&#x09;" horiz-adv-x="378" />
<glyph unicode="&#xa0;" horiz-adv-x="378" />
<glyph unicode="!" horiz-adv-x="696" d="M178 92q3 34 27.5 55.5t58.5 18.5q32 -5 53.5 -31.5t20.5 -60.5q-3 -34 -28.5 -55.5t-57.5 -18.5q-34 5 -55.5 31.5t-18.5 60.5zM201 929.5q0 339.5 8 436.5q4 57 59 74q60 17 122 -25q84 -56 91 -176q2 -29 -2 -61q-56 -451 -129 -848q-7 -40 -24.5 -65t-38 -29 t-39.5 4.5t-31.5 36.5t-11.5 67q-4 246 -4 585.5z" />
<glyph unicode="#" horiz-adv-x="819" d="M108 1023.5q-15 33.5 6.5 63.5t73.5 33h29q4 10 12.5 31t12.5 31q-47 5 -68 39t-1 68t75 38q33 0 53 2q3 8 8 21t6 16q16 39 43.5 55.5t50.5 9t36.5 -34.5t5.5 -65h69q10 30 12 35q13 32 34.5 50t41.5 17.5t37.5 -11.5t23.5 -36.5t-1 -58.5q46 -8 61.5 -40.5t-9.5 -63.5 t-79 -35h-23q-8 -20 -24 -66h2q35 0 59 -13.5t30 -33.5t0 -40t-30.5 -35t-60.5 -17q-8 -1 -27.5 -2t-29.5 -2q-6 -16 -15 -38t-10 -26q-13 -32 -35.5 -49.5t-44.5 -16.5t-40.5 13t-23 39.5t6.5 63.5q4 8 4 12h-62q-3 -7 -7 -18t-6.5 -17t-4.5 -10q-12 -30 -33.5 -46.5 t-43 -15.5t-40 12t-23.5 37t5 60q-41 11 -56 44.5zM375 1124h61q5 15 23 60h-62q-10 -32 -22 -60z" />
<glyph unicode="$" horiz-adv-x="1056" d="M105 601q0 40 12 69q19 57 36.5 73.5t28.5 5t23 -41.5q35 -94 111.5 -155.5t172.5 -90.5q9 55 31 178q-47 26 -51 29q-80 52 -116.5 116t-31.5 123.5t33 116.5t69 99t85 67q51 32 115 45q0 2 1 5.5t1 4.5q9 48 39.5 69t61.5 14.5t52.5 -37t14.5 -74.5q81 -35 127 -107 q49 -112 26 -192.5t-108 -135.5q-36 -15 -77 -4t-65 35q-10 -34 -20 -82q49 -27 82 -49t67 -54t46.5 -70t2.5 -81q-18 -78 -105 -127.5t-204 -52.5q-13 -36 -36 -48t-41.5 3.5t-20.5 50.5q-104 16 -195.5 72t-150.5 151q-16 35 -16 75zM507.5 903.5q-6.5 -45.5 24.5 -80.5 q9 -6 17 -14q3 17 41 240q-29 -22 -52.5 -61t-30 -84.5zM602 440q108 -3 143 35q20 24 -9.5 50.5t-96.5 58.5q-29 -111 -37 -144zM711 872q62 49 65 113q0 34 -22 62q-17 -63 -43 -175z" />
<glyph unicode="&#x26;" horiz-adv-x="1286" d="M183 304q-20 85 7 198q8 33 33 71.5t63 73.5t85 49t100 -2q-86 55 -116 154t-5 186q19 68 62.5 120t101 80.5t125.5 39t136 2t131.5 -37.5t113.5 -73t81 -110t34 -144q6 -122 -35 -163q30 -3 39 -3q28 0 35 -34t-7 -68t-37 -35q-44 0 -69 2q-45 -235 -62 -417 q-8 -82 31 -82q29 1 62.5 49t46.5 90q16 47 35 48q20 2 14 -54q-1 -12 -4 -27q-14 -74 -53.5 -142t-101.5 -109.5t-128 -28.5q-63 12 -78 100q-57 -25 -133 -31.5t-156 7.5t-153.5 50t-125.5 96t-72 145zM359 321.5q15 -56.5 63 -93t109 -53t128 -13.5t121 26l41 17 q37 195 58 393t16 274q-4 73 -54.5 122t-113 62.5t-122.5 -6t-83 -69.5q-13 -29 -15 -67t9 -78t46.5 -75t90.5 -52q59 -17 77.5 -63.5t-17 -76t-107.5 -4.5q-19 7 -48 8t-66.5 -6t-71.5 -35.5t-51 -76.5q-25 -77 -10 -133.5z" />
<glyph unicode="'" horiz-adv-x="595" d="M105.5 1064q6.5 13 22.5 23t37 30.5t40 43t32 59.5t13 80q-1 78 52 105q45 22 86 -6q52 -36 38 -116q-1 -5 -2 -9q-9 -41 -33.5 -79.5t-55.5 -65.5t-67 -49.5t-67.5 -31.5t-56.5 -12.5t-35 8.5q-10 7 -3.5 20z" />
<glyph unicode="(" horiz-adv-x="706" d="M104.5 236q-9.5 160 11 321.5t82 315t156.5 260.5t179 76q51 -18 72 -76q20 -57 -10 -93q-7 -7 -15 -12q-118 -74 -211 -254t-127 -400t10 -446q16 -68 -14 -78q-25 -10 -55 31q-18 25 -29 62q-40 133 -49.5 293z" />
<glyph unicode=")" horiz-adv-x="714" d="M110 26q-20 57 10 93q7 7 15 12q118 74 211 254t127 400t-10 446q-16 68 14 79q25 9 54 -31q19 -25 30 -62q40 -132 49.5 -292.5t-11.5 -322t-82.5 -315t-156.5 -260.5q-96 -107 -179 -76q-51 18 -71 75z" />
<glyph unicode="*" horiz-adv-x="647" d="M106.5 1127q14.5 27 55.5 30h20l-10 10q-18 18 -23 37.5t2.5 33t21 21.5t34.5 3.5t41 -21.5l10 -10v20q0 38 26 56t52.5 3t28.5 -57q0 -12 2 -18q8 8 10 12q20 20 44.5 22t38.5 -12t16.5 -35.5t-19.5 -47.5l-15 -15h17q25 0 42 -10.5t21 -25t0 -30t-21.5 -26.5t-43.5 -12 q-2 0 -7.5 -1t-7.5 -1l13 -13q20 -20 22 -44.5t-12 -38.5t-35.5 -16.5t-48.5 20.5q-8 8 -12 14v-17q0 -42 -25.5 -59t-52 1t-29.5 61v14l-12 -12q-13 -13 -27 -19.5t-26 -5.5t-22 6t-15.5 15t-6.5 22t4.5 27.5t18.5 29.5q1 1 4.5 5t5.5 6h-20q-38 0 -56 25.5t-3.5 52.5z" />
<glyph unicode="+" horiz-adv-x="679" d="M113 277.5q18 47.5 73 50.5q10 1 29.5 2t28.5 2v51q0 38 29 62t64 26.5t65 -18.5t32 -62q1 -10 2 -29.5t2 -29.5h49q55 0 78.5 -45.5t1 -92t-79.5 -49.5q-14 -2 -49 -2v-53q0 -56 -45 -79.5t-91.5 -0.5t-49.5 80q-2 12 -2 49q-25 -2 -55 -2q-50 0 -75 46.5t-7 94z" />
<glyph unicode="," horiz-adv-x="614" d="M203 78q-9 38 21 65.5t81 26.5q50 -3 84.5 -33.5t36.5 -70.5q0 -76 -68 -191q-57 -94 -100 -115q-25 -11 -35 11q-15 33 -10.5 128t-9.5 179z" />
<glyph unicode="-" horiz-adv-x="872" d="M201 467q3 28 24 48t54 22q46 4 93.5 5t121 0t86.5 -1q55 0 78.5 -45.5t1 -92t-79.5 -49.5q-156 -8 -293 -8q-30 0 -52.5 19t-29.5 46.5t-4 55.5z" />
<glyph unicode="." horiz-adv-x="634" d="M201 98q1 40 36 65.5t82 22.5q49 -3 83 -32.5t32 -67.5t-37 -63.5t-84 -22.5q-47 1 -80.5 30.5t-31.5 67.5z" />
<glyph unicode="/" horiz-adv-x="673" d="M102 -29q8 56 97.5 599.5t99.5 600.5q14 82 88 107q65 23 127 -10q66 -35 64 -106q0 -13 -3 -27q-19 -87 -149 -591.5t-158 -602.5q-13 -45 -43.5 -66t-59.5 -16.5t-49 35t-14 77.5z" />
<glyph unicode="0" horiz-adv-x="1011" d="M0.5 611.5q6.5 143.5 41 287t99.5 267t146 202.5q50 54 126 74.5t136.5 14.5t109.5 -25q131 -65 193 -226t59 -458q-1 -124 -26.5 -234.5t-70.5 -196.5t-102 -152t-126 -114q-64 -36 -140 -48.5t-160 13.5t-141 97q-78 89 -114.5 222t-30 276.5zM209 491q5 -80 22 -146.5 t54.5 -116.5t91.5 -70q86 -11 156 57t109.5 178t55.5 242.5t5 250t-52.5 201.5t-107.5 95q-46 8 -92 -18t-83 -77t-69.5 -120.5t-52 -150t-31 -163t-6.5 -162.5z" />
<glyph unicode="1" horiz-adv-x="724" d="M3.5 899q-21.5 40 66.5 164l51 66t61 76t76 87t73 72t75.5 59t60.5 21q80 12 137 -41t47 -162q-16 -166 -190 -1143q-8 -50 -31 -76t-46 -23t-40 32.5t-16 77.5q-1 88 45.5 520t54.5 557q-6 -7 -107 -129t-133 -152q-33 -31 -98 -38.5t-86.5 32.5z" />
<glyph unicode="2" horiz-adv-x="964" d="M2 150q10 81 42.5 160t77.5 143t109 129t125.5 115t137.5 104q99 70 144 167.5t-1 159.5q-26 32 -73.5 42.5t-100 -2t-102.5 -61t-76 -124.5q-18 -55 -82 -98q-71 -48 -119 -27q-45 19 -45 98q0 71 21.5 143t67 139t109.5 116.5t157.5 73.5t201.5 12q104 -12 176 -60.5 t103 -117.5t29 -153.5t-35 -166.5t-99.5 -158.5t-155.5 -128.5q-151 -87 -285.5 -224.5t-178.5 -280.5q2 -2 132 5t280.5 15t189.5 8q61 0 89 -54q25 -48 4 -89q-19 -36 -65 -35q-58 1 -382 0t-343 0q-35 1 -47.5 49t-5.5 101z" />
<glyph unicode="3" horiz-adv-x="1024" d="M0 260q-3 23 3.5 39t18 27.5t29 14.5t37 -0.5t41.5 -17.5t41 -36q48 -53 111.5 -87.5t128 -46t127.5 -1t112 41t79 86.5t30 130q0 46 -22.5 84t-55 60.5t-70.5 38.5t-66.5 22t-45.5 6q-93 0 -106 54q-10 44 33 88q40 40 93 42q65 1 112.5 23.5t71 57t33.5 70.5t8 72 q-5 50 -43 89.5t-93 55.5t-113.5 14t-111 -36.5t-77.5 -95.5q-19 -49 -107.5 -82.5t-137.5 5.5t8 208q43 108 129.5 174t185.5 82t203 -6.5t186 -77t131 -144t41 -194.5q-7 -101 -76 -194t-180 -119q58 0 105 -35t72.5 -85.5t37.5 -101.5t8 -88q-11 -104 -51 -182.5 t-98 -122.5t-130.5 -68t-148 -24t-150.5 15t-138 44.5t-110.5 68.5t-68.5 83q-13 26 -16 49z" />
<glyph unicode="4" horiz-adv-x="880" d="M8 479q-20 43 8 229.5t65 352t71 299.5q27 103 104 88q58 -10 109 -74q47 -58 36 -98q-18 -74 -82.5 -248.5t-114 -307t-42.5 -134.5q39 -15 272 -23q30 217 43 287q13 58 70 31q43 -21 72 -64q15 -24 12 -37q-2 -11 -17 -99.5t-26 -135.5q24 -2 98.5 -0.5t81.5 0.5 q59 -4 58 -51q0 -42 -39 -79q-23 -21 -46 -24q-18 -4 -46.5 -4t-68.5 2t-61 2q-10 -46 -24 -135t-23 -129q-24 -106 -72 -124q-36 -14 -59 32q-25 52 -12 143q6 32 14.5 112.5t11.5 102.5q-163 15 -274 37.5t-119 48.5z" />
<glyph unicode="5" horiz-adv-x="921" d="M0 279.5q1 28.5 16.5 42.5t35.5 16.5t46 -14t47 -48.5q21 -33 57.5 -59.5t81 -41t93 -18.5t94.5 11t84 45t64.5 86t33.5 131q14 158 -48.5 238t-213.5 84q-18 1 -51 2q-40 1 -58.5 2t-50 3t-45 4.5t-36.5 7.5t-32.5 11t-24 15.5t-20.5 21t-13 27t-9.5 35t-3.5 43.5 q-5 132 20.5 323t57.5 199q27 9 160.5 -4.5t255.5 -23.5t223 14q88 28 100 -43q10 -64 -40 -158q-49 -90 -108 -114q-13 -6 -26 -7q-85 -6 -205 36.5t-194 94.5q-6 -30 -14.5 -92t-17.5 -135t-11 -86q60 -4 123 -8q105 -7 184 -35t138.5 -83.5t85 -148.5t14.5 -221 q-10 -115 -46 -201.5t-87.5 -134t-115.5 -72.5t-130 -24t-131.5 17.5t-120 47t-94.5 70t-56 80.5q-13 36 -12 64.5z" />
<glyph unicode="6" horiz-adv-x="897" d="M-1.5 565q1.5 46 7.5 86q30 226 183 447.5t362 328.5q77 38 105 -27q24 -55 -0.5 -137t-75.5 -102q-107 -44 -190 -131t-116 -170q65 27 136.5 30.5t137.5 -14.5t123 -61t96.5 -103t55 -146t0.5 -185q-6 -38 -15 -73.5t-27 -77t-41.5 -76t-59.5 -66.5t-80.5 -52.5 t-106.5 -29.5t-135 -2q-76 10 -137 43t-99.5 77.5t-65 102.5t-38.5 114.5t-16.5 117t-3 106.5zM171 481.5q-10 -59.5 1 -122.5t41.5 -114t93 -82.5t148.5 -27.5q96 5 161.5 77t75.5 208q5 65 -13.5 119t-53 88t-80 55t-94 24.5t-96.5 -8.5t-85 -39q-37 -21 -63 -69.5 t-36 -108z" />
<glyph unicode="7" horiz-adv-x="778" d="M4 1195q-23 68 62 120l18 10q93 49 253.5 88.5t240.5 28.5q75 0 112 -64.5t12 -177.5q-26 -112 -149 -510q42 -1 37 -67q-5 -65 -42 -117q-25 -34 -50 -33q-35 -139 -117 -401q-20 -66 -52 -72q-26 -4 -36 36q-8 33 0 83q4 46 36.5 187.5t39.5 182.5q-70 4 -153 65 q-72 53 -74 93q-3 40 79 39q6 0 86.5 4t91.5 4q18 93 55 273t44 213q-105 -24 -232 -74q-86 -34 -175 6q-69 30 -87 83z" />
<glyph unicode="8" horiz-adv-x="962" d="M21 314.5q-1 63.5 14.5 128t45.5 120t76.5 98.5t102.5 62q-2 2 -4 2q-46 42 -68 105.5t-16 134t29.5 144t70 138.5t104.5 114t134.5 73.5t157.5 15.5q83 -16 137 -72.5t72 -130.5t11 -160.5t-37.5 -162.5t-82.5 -136.5t-115 -82.5q53 -38 84 -105.5t36 -144.5t-20.5 -157 t-76 -145.5t-140 -109t-204.5 -47.5q-77 -3 -137.5 22.5t-96.5 70t-56 103.5t-21 122.5zM162 307q8 -106 80 -157q40 -29 94 -31q146 -5 224 100q62 84 49 190q-12 105 -90 156q-34 22 -77 29q-145 12 -224 -94q-64 -84 -56 -193zM351.5 949.5q-4.5 -50.5 28.5 -90.5t99 -52 q136 -1 195 94q46 73 25 156q-20 78 -84 103q-27 11 -58 9q-56 -3 -104.5 -37t-72.5 -83t-28.5 -99.5z" />
<glyph unicode="9" horiz-adv-x="905" d="M6.5 893.5q-13.5 74.5 1.5 169.5q8 53 27 103.5t56.5 102.5t89 88.5t130.5 55.5t174 10q76 -13 136 -47.5t97 -81t61.5 -105.5t35 -116t12.5 -117.5t-1.5 -106t-10.5 -85.5q-36 -217 -175 -417.5t-312 -301.5q-104 -58 -165 -43q-38 10 -27 44q17 51 129 103q5 3 11 5 q77 43 145.5 125t107.5 159t65 154q-18 -17 -56 -26.5t-87.5 -9t-105.5 11.5t-110 36t-102 64t-80.5 95t-46 130.5zM162 901q7 -65 60.5 -113t124.5 -66.5t148.5 -11.5t131.5 42q12 37 18.5 76.5t7.5 86t-11 88t-34.5 76.5t-66 57.5t-103.5 26.5q-70 5 -123.5 -13.5 t-82.5 -49t-46.5 -69.5t-22 -71t-1.5 -59z" />
<glyph unicode=":" horiz-adv-x="641" d="M205 98q2 38 37 63.5t84 24.5q47 -3 80 -32.5t32 -67.5t-36.5 -64t-82.5 -24q-49 3 -82.5 32.5t-31.5 67.5zM205 381q2 40 37 65.5t84 22.5q47 -3 80 -32.5t32 -67.5t-36.5 -63.5t-82.5 -22.5q-49 1 -82.5 30t-31.5 68z" />
<glyph unicode=";" horiz-adv-x="636" d="M205 348q2 38 37 63.5t84 22.5q47 -1 80.5 -30.5t31.5 -67.5q-1 -40 -36.5 -65.5t-82.5 -22.5q-50 3 -82.5 31.5t-31.5 68.5zM211 66q-9 38 21 65.5t81 26.5q50 -3 84.5 -34t34.5 -71q1 -76 -67 -191q-56 -95 -99 -116q-25 -11 -35 12q-15 33 -10.5 128.5t-9.5 179.5z " />
<glyph unicode="=" horiz-adv-x="696" d="M101.5 93q-2.5 35 18.5 65t62 32q85 5 301 5q55 0 78.5 -45.5t1 -92t-79.5 -49.5q-101 -8 -293 -8q-38 0 -62 29t-26.5 64zM104 412q3 28 24 48.5t54 22.5q46 3 96 3.5t116 -0.5t89 -1q55 0 78.5 -45t1 -91t-79.5 -50q-152 -8 -293 -8q-30 0 -52.5 19t-29.5 46.5t-4 55.5 z" />
<glyph unicode="?" d="M207 991q-10 87 16.5 172.5t88.5 153.5t161 93t236 -9q88 -23 145.5 -78.5t79 -126.5t13.5 -153t-44.5 -157.5t-104 -142t-155.5 -104.5q-119 -52 -160.5 -119t-56.5 -231q-4 -40 -46 -49q-44 -10 -79 21q-29 26 -27 69q0 6 1 19q2 42 4 65t8.5 66t17 70.5t30.5 66.5 t47 67.5t69 58.5t94 54q102 46 153 111.5t48 130t-50 122.5q-29 36 -71 49t-82 1t-73 -40.5t-49 -79.5t-5 -112q9 -53 -43 -78q-51 -24 -103 -1q-56 25 -63 91zM266 100q6 34 33 52.5t59 11.5q32 -6 51 -35t13 -63q-4 -34 -32 -53t-60 -11t-51 36t-13 62z" />
<glyph unicode="@" horiz-adv-x="1710" d="M106 426q6 203 73.5 367.5t181.5 271t266 161t327 48.5q306 -10 474.5 -187.5t179.5 -492.5q12 -372 -135 -535q-89 -99 -207 -92q-94 5 -151 71q-30 35 -38 79q-49 -59 -117 -88t-139 -29q-175 1 -274 133q-84 113 -79 267q5 157 102 263q114 123 307 113q97 -6 167 -49 q8 65 100 48q74 -14 134 -59q32 -24 31 -40q-4 -35 -10.5 -90t-16.5 -129.5t-16 -122.5q-15 -142 18 -144q38 -2 71 80q49 119 41 280q-10 228 -137 356q-124 124 -341 122q-156 -2 -291.5 -80t-221 -217.5t-96.5 -310.5q-10 -151 27.5 -266.5t114 -186.5t181.5 -107 t236 -36q84 0 126 -44q34 -34 9 -63q-26 -32 -108 -32q-167 -1 -302.5 39.5t-226 110t-151.5 165t-86.5 202t-22.5 224.5zM680 291q12 -88 83 -119q23 -10 52 -12q60 -4 106 29t63 84t15.5 103.5t-36.5 92.5t-93 47q-97 12 -154 -70q-48 -70 -36 -155z" />
<glyph unicode="A" d="M-133 -171q12 12 33 24q78 55 164 174.5t155.5 255.5t139.5 296t115 280t82.5 224t41.5 113q52 126 179 174q61 23 118 23q45 0 89 -14q86 -28 106 -97q4 -15 4 -31v-6q-7 -171 -35.5 -639t-46.5 -538q-17 -81 -104 -110q-37 -13 -71 -13q-31 0 -59 11q-39 15 -39 41 q0 7 3 14q2 8 8 16q43 62 86 526q-12 12 -35 12q-27 0 -69 -17q-78 -32 -155 -94t-106 -114q-112 -233 -205 -358q-113 -142 -263 -191q-54 -17 -91 -17q-26 0 -44 8q-17 8 -17 20q0 11 16 27zM563 545q59 89 148 134.5t147 45.5q8 70 14 136q6 67 8 121q1 27 1 48 q1 22 -1 39q-2 33 -10 33h-3q-21 0 -49 -34q-30 -37 -63 -104.5t-64 -137t-67.5 -152.5t-60.5 -129z" />
<glyph unicode="B" horiz-adv-x="1165" d="M0 156q25 224 53 585t31 433q-13 7 -20 45q-5 25 -5 53q-1 14 1 28q4 43 28.5 78.5t65.5 36.5q44 3 92 3q24 0 49 -1q75 -2 152.5 -5t154 -16.5t146 -32t127.5 -51.5t99 -75q42 -42 62 -103q15 -45 15 -98q0 -18 -2 -37q-14 -174 -168 -258q29 -3 63.5 -25t67.5 -60 q32 -38 50 -102q13 -46 13 -97q0 -20 -2 -41q-25 -261 -253 -384q-157 -83 -363 -83q-26 0 -54 1q-194 10 -314 81q-89 53 -89 117v8zM190 229q37 -43 99.5 -70.5t132.5 -35.5q27 -3 54 -3q44 0 89 8q73 13 132 44t99 88t44 131v15q0 62 -30 109q-34 53 -94.5 82t-131.5 43 q-62 12 -130 11h-20q-4 0 -13.5 -2t-16.5 -3t-15.5 0.5t-14 9t-9 20.5t-3 38t6.5 60q7 46 38.5 76.5t69.5 40.5q10 2 49 1h22h11q52 0 84 5q129 25 129 107q0 50 -38 83t-98 45q-48 10 -105 10q-14 0 -29 -1q-74 -3 -150 -21q-1 -15 -78.5 -422t-83.5 -469z" />
<glyph unicode="C" horiz-adv-x="1110" d="M19 672q46 258 187 455q153 214 356 261q53 12 107 13q35 0 70 -6q72 -10 127 -38.5t87.5 -68.5t52.5 -88q19 -48 23 -100q2 -23 2 -45q0 -27 -3 -55q-5 -48 -18 -95q-49 -135 -160 -148q-13 -2 -26 -2q-64 0 -120 42q-47 35 -47 69v7q2 17 17 28q28 21 34 73q1 10 1 20 q0 41 -21 80q-26 48 -82 52q-6 1 -12 1q-64 1 -129 -59q-71 -64 -123 -168q-54 -103 -84 -227q-31 -126 -30 -237q0 -110 44 -193q46 -84 134 -104q52 -10 97 -10q2 1 4 1q46 0 83 16t66 38t51.5 55t38.5 66.5t26.5 73t16.5 74.5t8 71q4 53 58 79q26 13 52 13q29 0 55 -15 q52 -28 52 -107q-5 -69 -25.5 -139t-58 -139.5t-92 -124.5t-127.5 -94.5t-164 -48.5q-26 -3 -54 -3q-68 0 -147 16q-207 46 -293 252q-51 122 -51 273q0 88 17 186z" />
<glyph unicode="D" horiz-adv-x="1067" d="M0 74q18 120 76 884q-11 18 -11 32q0 21 25 31q19 8 41 8q32 0 70 -16q85 -34 112 -114q10 -30 10 -65q0 -22 -4 -46q-79 -464 -131 -677q51 -9 98 -10q60 -1 115 15q98 26 165.5 89.5t112 148.5t62.5 185q14 78 14 148q0 83 -20 159q-37 138 -137 210q-77 55 -180 55 q-30 0 -62 -5q-79 -20 -133 -20q-33 0 -57 8q-62 20 -88 114q-8 25 -8 47q0 40 25 73q39 52 81 58q66 10 134 10q17 0 34 -1q85 -3 172.5 -23t164 -60.5t142 -103t106.5 -150.5t57 -202q7 -49 7 -103q0 -73 -12 -155q-92 -651 -703 -651q-46 0 -96 4q-100 19 -144 49 q-39 27 -39 65q0 4 1 9z" />
<glyph unicode="E" horiz-adv-x="935" d="M0 160q2 46 51 264t113 491.5t86 389.5q5 20 16.5 36t31.5 26.5t41.5 18.5t55 12t62.5 6q14 1 33 0h42q46 -2 79.5 -4t88.5 -7.5t92.5 -9.5t98.5 -11q113 -16 113 -102q0 -15 -3 -32q-18 -86 -103 -181q-43 -48 -77 -66q5 20 -21 41t-71 36t-96 24q-40 7 -80 7 q-11 -1 -21 -1q-50 -2 -83 -17q-11 -41 -46 -171t-55 -205q86 -4 147 -4q106 0 138 12q18 7 18 18q34 -25 38 -85v-14q0 -53 -27 -103q-31 -56 -87 -68q-90 -12 -288 -12q-17 -60 -40.5 -140t-27.5 -94q17 -11 89.5 -23.5t170.5 -18.5q51 -3 102 -2q46 0 92 2 q96 5 169.5 33.5t87.5 78.5q3 9 11 -11q13 -32 13 -68q0 -25 -6 -52q-24 -104 -141 -148q-154 -59 -335 -59q-109 0 -228 22q-142 25 -194 71q-51 44 -50 115v5z" />
<glyph unicode="F" horiz-adv-x="976" d="M0 542q5 70 61 134q4 -25 21.5 -36.5t45.5 -10t50.5 6t53 13.5t36.5 10q8 32 22 90.5t22.5 91t22 79t27.5 88.5q-22 -6 -55 -12q-26 -4 -60 -5q-9 1 -19 1q-46 2 -74 16q-44 24 -63 74q-16 42 -16 83q0 9 1 17q4 50 19.5 93t35.5 54q21 -67 67 -89q28 -14 62 -14 q20 0 44 6q60 14 143.5 44t168.5 62q86 33 194 51q65 11 126 11q41 0 80 -5q60 -9 105.5 -42.5t65.5 -77.5q12 -27 12 -58q-1 -19 -5 -39q-12 -54 -61 -99q-2 22 -47 38.5t-111 20.5q-23 1 -46 1q-43 -1 -87 -5q-68 -6 -122.5 -31.5t-68.5 -64.5q-7 -23 -29.5 -89.5 t-41.5 -129t-31 -117.5q49 12 88 19t53 8.5t40.5 2.5t27.5 1h4q84 1 118 -45q21 -27 21 -62q-1 -25 -11 -53q-26 -68 -102 -127q-10 33 -49 43q-19 5 -40 5q-24 0 -52 -6q-53 -11 -93 -23t-77 -27q-61 -290 -63 -432q25 -16 -6 -37q-35 -22 -88 -22q-12 0 -25 1q-5 0 -10 1 q-34 3 -56 29t-29 70q-8 44 -10 90v22q0 38 4 82q6 58 12.5 95.5t14.5 78.5q-15 -4 -42 -8q-11 -2 -26 -2q-19 0 -45 4q-44 6 -69 28q-40 31 -40 90q0 7 1 14z" />
<glyph unicode="G" horiz-adv-x="1144" d="M14 640q45 259 185 463q149 218 348 274q60 17 123 17q34 0 69 -5q72 -10 127 -38.5t87.5 -68.5t52 -87.5t23.5 -100.5q2 -23 2 -45q0 -29 -3 -55q-5 -49 -18 -95q-36 -110 -145 -138q-33 -8 -64 -8q-49 0 -94 21q-59 27 -59 69q0 26 26 52q18 18 32.5 52.5t18.5 71.5 q1 6 1 13q0 29 -16 54q-19 29 -61 34q-8 1 -17 1q-76 0 -156 -81q-90 -91 -146.5 -230.5t-83.5 -283.5q-10 -57 -10 -110q0 -79 24 -147q40 -113 146 -136q48 -8 88 -8q15 0 29 1q52 4 94.5 29t73.5 55.5t55 73t39 82.5t24 83h-20q-103 0 -193 -37q-12 -7 -23 -7 q-21 0 -35 28q-12 24 -12 53q0 27 11 59q30 87 122 117q6 2 13 4q54 8 114 8t129.5 -24t116.5 -68q22 -21 30 -59q4 -15 4 -29q0 -21 -8 -40q-13 -30 -48 -26h-4q-13 -79 -44.5 -153t-87.5 -140.5t-129 -112.5t-177 -66q-53 -10 -111 -10q-54 0 -111 9q-209 31 -296 231 q-52 120 -52 273q0 86 16 181z" />
<glyph unicode="H" horiz-adv-x="974" d="M0 -4q-1 8 -2 17q0 30 12 73q30 113 50 378q16 213 16 417q0 51 -1 99q-5 250 -42 298q-25 31 -25 55q0 25 28 42q33 20 83 20q28 0 61 -6q108 -19 156 -87q16 -22 22 -47q8 -45 8 -105q0 -172 -67 -470q55 64 117 92q52 24 96 23q8 -1 16 -1q50 -6 88 -32.5t54 -69.5 q14 32 26 138q6 57 6 121q0 55 -5 115q-10 129 -54 183q-32 32 -32 58q0 23 24 42q42 33 120 33q11 0 22 -1q115 -6 175 -72q24 -25 35 -58q6 -34 6 -78q0 -160 -73 -464q-17 -70 -52 -209q-83 -328 -96 -440q-4 -33 -4 -60q0 -106 58 -106q24 0 59 18q2 -73 -66 -120 q-52 -37 -110 -37q-18 0 -37 4q-91 18 -126 117q-16 47 -16 110q0 52 36 217t38 178q6 30 6 55q0 75 -52 115q-38 29 -87 29q-25 0 -52 -7q-90 -25 -137 -114q-12 -23 -20 -49q-3 -15 -12.5 -67.5t-16.5 -85t-18 -80t-24 -85.5t-27 -67q-14 -28 -40 -48.5t-51.5 -26.5 t-47 3.5t-25.5 42.5z" />
<glyph unicode="I" horiz-adv-x="430" d="M0 119q144 357 144 1102q0 62 -1 127q0 38 73 43q11 1 21 1q63 0 123 -26q65 -27 64 -67v-7q-28 -378 -82 -701t-117 -521q-19 -58 -43 -89t-46 -33q-4 0 -7 -1q-19 0 -38 11q-23 13 -41 39.5t-31.5 58.5t-18.5 63z" />
<glyph unicode="J" horiz-adv-x="985" d="M4 286q-3 25 -3 50q0 61 15 120q20 85 70.5 164t124.5 132q49 36 86 36q36 0 61 -34q33 -43 33 -112q0 -13 -1 -26q-8 -81 -46 -102q-74 -42 -110 -104q-31 -56 -31 -107q0 -6 1 -13q4 -56 39 -102t91 -59q29 -6 56 -6q160 0 251 229q79 201 79 539q0 115 -9 246 q-29 18 -60 18q-7 0 -14 -1q-39 -5 -76 -28t-83.5 -51t-97 -51.5t-118.5 -27.5q-11 -1 -22 -1q-58 0 -123 19q-63 19 -95 106q-19 50 -19 93q0 28 8 53q15 52 56 52q10 0 22 -3q16 -5 34 -15q49 -29 96 -37q20 -3 39 -3q25 0 48 6q39 10 84 27.5t91 39.5t105 37t127 20 q17 1 35 1q55 0 122 -11q72 -13 122 -48t69 -76q18 -38 18 -76q0 -3 -1 -6q-1 -41 -25 -70q-24 -32 -67 -32h-4q-47 2 -67 36q4 -84 4 -161q0 -474 -131 -731q-137 -269 -401 -269q-30 0 -63 4q-97 10 -168.5 59t-107.5 119t-44 157z" />
<glyph unicode="K" horiz-adv-x="993" d="M18 78q82 165 116 387q23 153 23 305q0 68 -5 136q-15 219 -70 409q-4 13 -4 24q0 37 47 55q31 11 66 11q36 0 77 -12q86 -26 107 -88q20 -51 20 -167q0 -169 -43 -476q77 5 150.5 66t131.5 158.5t102.5 211t72.5 233.5q7 32 28 49t78 17q79 -11 123 -77q35 -54 35 -106 q0 -12 -2 -24q-10 -79 -50.5 -174t-104.5 -188t-140.5 -172t-169 -131t-180.5 -60q93 -285 290 -436.5t462 -151.5q6 -2 18 -1t15.5 0t6.5 -10q1 -2 1 -4q0 -9 -9 -26q-34 -84 -117 -124q-54 -26 -126 -26q-38 0 -82 7q-64 11 -120.5 31t-124 63t-126 105t-119.5 162.5 t-112 230.5q-20 -108 -36.5 -167.5t-51.5 -131.5q-31 -36 -85 -39h-8q-50 0 -82 37q-18 21 -18 45q0 23 16 49z" />
<glyph unicode="L" horiz-adv-x="1032" d="M1 34q-1 8 -1 14q0 33 16 50q93 69 154 205.5t82.5 285.5t25.5 293q1 29 0 55q0 107 -11 187q-14 100 -34 121q-7 9 -21.5 22.5t-19.5 20.5t-6.5 19t11 26.5t39.5 34.5t69 34q40 13 87 13l3 -1q48 0 90.5 -15.5t71 -58.5t29.5 -109v-27q0 -68 -4 -144q-5 -90 -22.5 -211 t-46 -229.5t-80.5 -216.5t-120 -182q47 27 110 44t138 17h4q73 0 142 -18q71 -19 136.5 -71.5t106.5 -133.5q26 -52 26 -106q0 -44 -17 -89q-25 -68 -69 -88q-13 -6 -24 -6q-29 0 -47 41q-2 4 -4 9q-65 182 -229 219q-40 9 -87 9q-146 0 -360 -85q-27 -17 -52 -17 q-22 0 -41 14q-41 30 -45 74z" />
<glyph unicode="M" horiz-adv-x="1011" d="M-23 45q50 137 79 266t52 370.5t33 606.5q-7 7 -7 15q0 20 46 44q75 39 168 43h14q89 0 103 -49q22 -99 22 -277v-44q-3 -210 -19 -421t-34 -300q29 10 82.5 157t99.5 312.5t92 337.5t52 190q14 44 114 56q29 3 56 4q69 0 132 -20q78 -25 78 -69q0 -6 -1 -12 q-78 -187 -136.5 -385t-94.5 -402q-30 -172 -30 -335q0 -30 1 -59q6 -191 61 -332q8 -13 8 -23q0 -23 -36 -36q-28 -10 -61 -10.5t-70 10.5q-82 23 -101 81q-26 105 -26 294q0 58 2 125q10 282 55 472q-50 -283 -201 -503q-42 -62 -88 -74q-12 -3 -23 -3q-31 0 -53 26 q-30 35 -31 102q0 2 -1 126t-3 207.5t-9.5 199.5t-18.5 182q3 -51 3 -108q0 -152 -22 -340q-30 -258 -84 -450q-27 -72 -92 -72h-10q-53 5 -88 44q-17 20 -17 37q0 8 4 16z" />
<glyph unicode="N" horiz-adv-x="1150" d="M8 33q94 178 173 536.5t85 720.5q0 5 -3 15.5t-3.5 18.5t3.5 18t22.5 20.5t50.5 19.5q34 10 111 12h17q66 0 126 -11q65 -12 65 -34l-33 -564q0 -217 23 -404q26 -205 61 -251q12 -15 21 -1q43 71 63 173.5t22 216.5q2 91 2 184v47q0 5 -1 10q-1 114 11 240 q12 132 42 239q43 171 232 207q52 11 93 11q10 0 19 -1q48 -3 76 -18q24 -13 24 -43v-9q-4 -38 -46 -94q-56 -77 -96 -192.5t-60 -233.5t-41 -253t-38 -251.5t-50.5 -228.5t-79.5 -184q-41 -65 -95 -89q-26 -12 -54 -11q-30 0 -64 13q-65 26 -127 109q-26 34 -45 87.5 t-29.5 129t-17 147t-8.5 176.5q-3 105 -3 179v85v107q0 118 1 181q-3 -283 -66 -609.5t-127 -465.5q-13 -32 -97 -40q-18 -1 -34 -1q-67 0 -107 23q-27 15 -27 36q0 12 9 27z" />
<glyph unicode="O" horiz-adv-x="1085" d="M5 582q16 142 64 283.5t126.5 260.5t171.5 193q59 51 143 67q51 10 95 11q28 -1 54 -5q66 -10 117 -32q143 -68 198 -232q39 -116 38 -300q0 -77 -6 -166q-19 -241 -129 -412.5t-273 -263.5q-52 -22 -114 -32q-39 -6 -80 -7q-23 1 -47 3q-65 6 -127 38t-105 88 q-79 94 -111 229q-21 90 -20 182q0 47 5 95zM244 472q-1 -17 -1 -34q1 -92 29 -176q34 -100 111 -158q86 7 158 60.5t116.5 134.5t74.5 179q28 97 32 195q1 23 1 45q-1 72 -9 136q-12 84 -47.5 141t-87.5 68q-13 3 -27 3q-50 0 -103 -38q-67 -48 -119.5 -134.5t-87 -199 t-40.5 -222.5z" />
<glyph unicode="P" horiz-adv-x="1026" d="M0 25q23 120 41 236.5t30 208.5t21.5 182t14 153t8 126.5t4.5 96.5t1.5 69.5t0.5 39.5q-12 7 -19 47q-6 33 -6 68v16q2 45 22 82.5t56 40.5q64 5 124 5q140 0 252 -28q162 -40 260 -128t140 -220q29 -92 29 -202q0 -48 -6 -99q-22 -192 -128 -332q-107 -140 -267 -195 q-87 -30 -177 -30q-78 0 -159 22q-9 -52 -49 -180q-15 -44 -67 -56q-18 -4 -35 -5q-31 0 -58 15q-35 19 -35 52q0 7 2 15zM274 317q48 -12 94 -13q113 0 205 77q130 107 156 319q5 39 5 75q0 139 -70 234q-84 113 -256 113h-17q-12 -304 -117 -805z" />
<glyph unicode="Q" horiz-adv-x="1079" d="M4 590q16 146 63 288.5t126.5 259.5t173.5 181q64 49 147 65q51 9 96 9q27 0 52 -3q64 -10 114 -32q141 -74 206 -254q39 -111 39 -253q0 -89 -15 -189q-62 -411 -291 -603q109 -83 235 -131q110 -42 209 -42q15 0 29 1q20 9 30 -6q5 -8 5 -18q0 -9 -4 -19 q-10 -39 -56 -67t-103 -39q-46 -9 -93 -9q-13 0 -26 1q-61 3 -101 22q-139 68 -279 217q-72 -23 -147 -24h-5q-73 0 -149 31q-79 31 -131 98q-79 94 -111 232q-20 91 -20 185q0 49 6 99zM242 481q-1 -17 -1 -34q0 -91 30 -177q35 -103 112 -166q33 0 59 13q-39 62 -59 116 q-6 21 -6 37q0 33 24 50q15 11 33 11q21 0 46 -16q29 -18 50 -53q15 -31 50 -74q52 41 92 120t61 171t26 191q1 27 1 53q0 68 -9 127q-13 81 -46.5 138.5t-83.5 68.5q-14 3 -28 3q-50 0 -102 -36q-67 -47 -120 -130.5t-87.5 -193.5t-41.5 -219z" />
<glyph unicode="R" horiz-adv-x="985" d="M-4 23q36 162 62 312.5t38.5 255.5t19.5 203q8 98 8 150v52v51q0 50 -1 55q-29 8 -43 78q-7 33 -6 65q0 37 8 73q16 68 65 71q54 4 104 4q311 -1 495 -155q196 -164 195 -462q0 -28 -1 -57q-14 -217 -161 -355q-137 -129 -334 -129q-14 0 -29 1q27 -43 105 -102 t176.5 -112.5t212.5 -88.5q98 -30 177 -30q14 0 27 1q20 9 30 -6q5 -8 5 -18q0 -9 -4 -19q-15 -55 -81 -104t-150 -67q-31 -6 -63 -6q-54 0 -108 19q-124 49 -284.5 202t-227.5 294q-1 0 -8.5 -40.5t-18.5 -92.5t-18 -74q-10 -30 -52 -40q-14 -3 -27 -3q-28 0 -57 13 q-43 19 -54 61zM274 381q54 -16 106 -16h6q55 1 105 27.5t89 67.5t63.5 105.5t28.5 141.5q1 25 1 48q0 160 -65 254q-73 105 -239 105h-9q0 -140 -24.5 -343t-61.5 -390z" />
<glyph unicode="S" horiz-adv-x="1306" d="M18 530q18 55 35.5 86.5t31 40t27 0.5t23.5 -25t21 -44q36 -98 108 -178t156.5 -127t177.5 -76q92 -29 174 -34q21 -1 42 -1q56 0 103 10q63 14 89 45q11 17 11 32t-16 32.5t-38 33t-55 33.5t-66 34t-72 34t-73 33.5t-68 33.5t-58 33q-105 69 -163 151.5t-66 162.5 q-2 22 -2 43q0 59 15 115q20 78 66 146t100 120.5t110 85.5q95 56 195 70q39 6 76 6q58 0 110 -14q85 -23 154.5 -72t113.5 -117q53 -110 53 -204q-1 -5 -1 -9q-2 -98 -48 -172t-133 -131q-30 -14 -65 -14q-43 0 -93 21q-67 28 -85 66q-12 25 10 41q67 53 100.5 97.5 t36.5 109.5q1 50 -37.5 95t-103.5 55q-9 1 -19 1q-58 0 -131 -51q-47 -34 -84.5 -95.5t-47.5 -132.5q-2 -12 -1 -23q0 -57 41 -103q33 -35 110.5 -80.5t153.5 -88.5t147.5 -96.5t107.5 -125.5q24 -47 24 -99q0 -27 -7 -55q-19 -84 -93 -149t-177.5 -99t-231 -34t-250 34.5 t-238 118.5t-191.5 207q-27 55 -27 114q0 62 18 109z" />
<glyph unicode="T" horiz-adv-x="1046" d="M-1 1191q0 59 29 113q30 56 85 89q24 -82 85 -114q48 -25 112 -25q18 0 36 2q86 8 189 34t223 54q122 27 238 40q39 4 79 5q79 1 161 -17q124 -26 226 -98q25 -17 25 -48.5t-19.5 -62t-46 -58t-54 -36.5t-44.5 2q-157 94 -305 94q-42 0 -84 -8q24 -112 28 -251 q1 -31 1 -63q1 -109 -11 -217q-16 -140 -46.5 -268.5t-80 -232t-110.5 -156.5q-26 -23 -80 -23q-18 0 -40 3q-81 9 -105 42q-6 9 -6 19q0 19 24 39q136 103 180 375q16 99 15 209q0 193 -48 420q-69 -34 -115 -52q-44 -19 -110 -35q-50 -13 -102 -12q-16 0 -32 1 q-68 5 -140 30q-76 29 -116 85q-42 58 -41 121z" />
<glyph unicode="U" horiz-adv-x="1036" d="M1 490v25q-1 120 17 235q20 127 47.5 246t53 199.5t43.5 121.5q33 69 157 85q33 4 62 4q59 0 103 -17q37 -14 37 -33q0 -8 -7 -17q-60 -92 -117 -210.5t-103 -248.5q-46 -128 -70 -256q-22 -118 -22 -218v-17q2 -107 46 -184.5t129 -102.5q21 -4 41 -4q62 0 114 40 q68 52 109 163.5t57 264.5q8 79 8 169q0 85 -7 179q-15 194 -60 403q-2 6 -2 12q0 31 50 45q28 8 58 8q44 0 94 -17q96 -33 114 -105q2 -9 3 -19q15 -168 14 -319v-10q0 -154 -17 -292.5t-52 -250t-89 -199.5t-128 -140q-76 -52 -172 -73q-46 -10 -97 -10q-56 0 -118 12 q-107 24 -175.5 103.5t-93.5 187.5t-27 240z" />
<glyph unicode="V" horiz-adv-x="997" d="M28 1344q52 49 155 53h16q91 0 137 -41q10 -9 16 -19q72 -132 106 -313q30 -158 29 -309v-44q-5 -172 -36.5 -325.5t-83.5 -247.5q88 11 154 75t102.5 160.5t51.5 220.5q9 77 9 156q0 48 -3 96q-9 128 -40 257t-82 235q-4 15 -4 28q-1 48 59 57q15 2 31 2q66 0 152 -39 q109 -50 142 -117q4 -9 7 -17q12 -81 12 -178q0 -4 -1 -8q0 -92 -11 -194q-12 -106 -34.5 -211t-60 -205.5t-85 -185.5t-112 -152t-138.5 -103q-59 -28 -155 -28q-23 0 -47 2q-118 8 -146 44q-13 16 2 36q66 99 94 227q21 99 21 197q1 30 -1 60q-8 128 -41 255t-84 233 t-112 181q-48 55 -48 99q0 35 29 63z" />
<glyph unicode="W" horiz-adv-x="1220" d="M-1 1322q4 6 9 21q34 33 128 43q25 3 50 3q68 -1 136 -19q93 -26 118 -82q16 -32 20 -149q1 -32 1 -68q1 -93 -7 -205q-10 -156 -48.5 -347t-98.5 -341q93 51 162.5 245.5t75.5 446.5q-21 21 -21 36q0 14 17 25q22 14 54 14q24 0 54 -8q87 -22 133 -93q48 -90 60 -274 q4 -56 3 -114q0 -133 -18 -278q52 54 81.5 193t31.5 301v20q0 152 -28 312q-30 170 -89 276q-18 26 -18 46q0 32 45 50q38 15 88 15q32 0 68 -6q82 -15 98 -52q46 -260 45 -487q-1 -162 -23 -307q-56 -349 -211 -510q-57 -57 -139 -77q-27 -7 -47 -7q-45 0 -62 32 q-12 23 -5 60q12 84 18 131t14 134.5t8 149t-7.5 136t-24.5 133.5q-26 -247 -98 -424t-197 -307q-28 -34 -88 -46q-22 -4 -42 -4q-35 0 -64 12q-39 17 -39 57q0 7 1 14q45 180 69 385q22 186 22 354v34q-2 184 -43 318.5t-117 163.5q-26 10 -37 14t-27 14q-12 8 -12 14 q0 1 1 2z" />
<glyph unicode="X" horiz-adv-x="866" d="M1 8q2 36 22 66q111 122 233 280q-122 257 -132 525q-1 21 0 41q0 241 103 405q43 41 87 59q36 15 64 16q6 0 12 -1q32 -4 53.5 -16.5t31.5 -30.5q-28 -10 -53.5 -124t-30.5 -282q-1 -20 0 -40q0 -151 33 -322q126 187 219 359t123 268q14 47 14 75q0 30 -16 39 q-22 16 -22 30q0 13 20 25q32 19 83 19q18 0 38 -2q99 -11 131 -75q12 -23 13 -53q0 -6 -1 -12q-7 -100 -157 -359.5t-380 -530.5q114 -279 342 -416q26 -15 40 -39t13 -45t-13.5 -38t-40.5 -19h-5q-26 0 -61 14q-255 117 -422 377q-141 -145 -254 -240q-22 -14 -40 -14 q-14 -1 -24 7q-24 17 -23 49v5z" />
<glyph unicode="Y" horiz-adv-x="1026" d="M1 874q7 94 22.5 183t33.5 152.5t35 101.5q43 86 132 86h4q70 -1 118 -47q30 -30 30 -59q0 -16 -9 -31q-14 -21 -34.5 -68t-43.5 -116.5t-40 -145.5q-18 -77 -18 -157q0 -76 17 -138q18 -64 70.5 -110t136.5 -58q35 -4 66 -4q29 0 53 3q52 8 84 36.5t53 58t26 90t6 107.5 v7q0 45 -11 125q-13 86 -23.5 144t-30.5 163q-7 34 -10 52q-4 12 -4 23q0 33 36 64q44 39 100 39q8 0 16 -1q87 -7 123 -104q8 -21 13 -47q28 -147 32 -282q1 -23 1 -45q0 -110 -18 -209q-22 -119 -69 -209.5t-127 -147t-187 -66.5q-29 -93 -95 -256q-9 -27 -32 -43.5 t-47 -16.5l-1 -1q-23 0 -43 21q-21 20 -26 59q-4 25 -8.5 65t-9.5 102t-7 85q-97 23 -164.5 84.5t-99 142t-44.5 177.5q-8 63 -8 125q0 33 2 66z" />
<glyph unicode="Z" horiz-adv-x="1290" d="M-1 91v14q0 89 72 135q3 2 7 4q109 64 212 158.5t179 190t141 199.5t105 186.5t65 151.5q-38 -36 -165.5 -64t-259.5 -29h-7q-127 0 -219 34q-57 16 -87 105q-17 50 -17 96q0 33 9 64q18 64 66 64q8 0 17 -2q11 -2 22 -7q88 -45 254 -67q108 -15 218 -14q59 0 119 4 q170 12 255 60q30 18 53 18q31 0 48 -34q14 -28 14 -71q0 -55 -24 -134q-7 -21 -15 -43q-68 -151 -182 -304.5t-238 -274.5t-237 -211.5t-207 -147.5q57 49 147 80q88 30 190 38q35 3 72 3q68 0 140 -10q110 -16 206 -52.5t176 -103.5t121 -154q9 -19 9 -38q0 -26 -16 -55 q-27 -49 -68 -61q-11 -3 -22 -3q-28 0 -50 22q-97 130 -224.5 202t-257.5 80q-23 1 -45 2q-107 0 -211 -33q-128 -40 -235 -126q-17 -14 -34 -14q-23 0 -47 24q-44 44 -49 118z" />
<glyph unicode="`" horiz-adv-x="718" d="M252 899q-13 23 2.5 50t39 33t42.5 -13q62 -84 129 -86q16 0 18 -24q4 -32 -22 -43q-7 -3 -15 -3q-55 -2 -113.5 21.5t-80.5 64.5z" />
<glyph unicode="a" horiz-adv-x="923" d="M-24 401q5 157 101 263q105 115 278 114h28q109 -6 174 -69q4 39 33 57q24 14 53 14q7 0 14 -1q38 -4 75.5 -18t62 -38t22.5 -47q-4 -36 -20 -153.5t-23 -186.5q-2 -18 -2 -33q0 -23 5 -41q8 -28 34 -20q30 8 60 53t44 78.5t19 50.5q22 59 47 66q15 4 20 -20q2 -9 2 -22 q0 -25 -8 -63q-17 -84 -47.5 -156t-73.5 -128q-42 -57 -102 -83q-41 -18 -86 -18q-20 0 -41 4q-59 11 -96 70q-91 -72 -221 -72q-175 1 -273 133q-79 106 -79 249v17zM166 298q19 -86 93 -121q29 -14 65 -17q9 -1 17 -1q55 1 99 29q50 32 70 83q16 44 15 89v15q-3 53 -42 94 t-104 49q-19 2 -36 2q-96 0 -147 -71q-35 -48 -35 -106q0 -22 5 -45z" />
<glyph unicode="b" horiz-adv-x="704" d="M-20 334q13 144 48 377t78 442q9 42 19.5 77t35 84.5t55.5 81.5q30 32 82 54q42 17 92 17q12 0 24 -1q129 -10 154 -160q6 -36 6 -73q0 -119 -60 -249q-80 -172 -215 -241q-50 -298 -63 -407q-4 -23 -4 -42q0 -18 4 -33q8 -30 36 -34q5 -1 9 -1q34 0 59 48q28 54 35 119 q0 27 -13 53q-14 34 -14 73q0 29 8 61q18 76 66 114q57 53 122 53q8 0 15 -1q56 -6 70 -47q4 -11 4 -22q0 -23 -15 -50t-22.5 -50.5t-4 -44.5t20.5 -30q20 -9 57.5 15t51.5 40q29 33 47 33q5 0 10 -3q9 -7 9 -21q0 -17 -12 -44q-11 -23 -30 -49q-34 -47 -89 -83 q-46 -30 -94 -29q-9 0 -19 1l-11 -30q-60 -180 -164 -260q-95 -73 -210 -73q-12 0 -23 1q-101 10 -135 86q-25 54 -24 157q0 41 4 91zM328 889q55 62 84.5 148t33.5 145q1 12 1 22q0 39 -16 45q-2 1 -5 1l-29 -35q-10 -23 -18 -58q-29 -141 -51 -268z" />
<glyph unicode="c" horiz-adv-x="710" d="M-25 369q1 118 60.5 215.5t157.5 149.5q85 45 179 45q14 0 29 -1q68 -4 116 -27.5t71 -58.5t29 -79q2 -15 2 -30q1 -29 -7 -59q-12 -46 -37 -90q-63 -107 -150 -111h-9q-47 0 -70 30q-21 26 0 48q26 32 34.5 58.5t1 42t-29.5 18.5q-10 1 -19 1q-77 -1 -119 -75 q-26 -47 -26 -96q0 -38 16 -80q36 -94 148 -108q28 -4 54 -4q90 0 164 48q94 62 149 208q21 68 51 76q23 6 30 -28q2 -11 2 -24q0 -24 -7 -55q-35 -149 -134.5 -256t-248.5 -123q-33 -4 -64 -4q-66 0 -124 18q-85 26 -138 78q-54 54 -83 124q-28 68 -28 144v5z" />
<glyph unicode="d" horiz-adv-x="933" d="M-18 306q-4 35 -4 69q0 81 22 159q32 112 140 182q92 60 215 60q22 0 46 -2q94 -9 162 -53q24 234 58 457q8 70 80 96q32 11 62 12q38 0 73 -18q53 -27 53 -80q0 -10 -2 -21q-13 -85 -56.5 -412t-52.5 -427q-3 -26 -3 -46q0 -17 2 -29q5 -28 30 -32q1 0 3 -1q20 0 48 39 q30 41 50.5 84.5t35.5 82.5q22 56 49 63q20 5 26 -25q1 -9 1 -19q0 -26 -8 -64q-19 -82 -55.5 -156t-83.5 -129.5t-107 -80.5q-35 -15 -70 -15q-25 0 -51 8q-63 15 -90 80q-33 -44 -97 -68q-50 -19 -112 -20q-18 0 -37 2q-136 12 -224.5 100t-102.5 204zM161 306 q12 -88 89 -127q31 -16 69 -21q13 -2 26 -2q49 0 89 25q50 31 70 81t20 103.5t-36.5 96t-100.5 52.5q-22 3 -42 3q-89 0 -143 -64q-43 -52 -44 -117q1 -15 3 -30z" />
<glyph unicode="e" horiz-adv-x="743" d="M-25 369q1 118 60.5 216.5t157.5 150.5q82 44 173 43q17 0 35 -1q123 -12 186 -113q40 -65 40 -140q0 -31 -7 -64q-25 -120 -132 -183q-83 -49 -198 -49q-31 0 -65 4q45 -62 127 -73q15 -2 31 -1q36 -1 75 7q56 12 112 40t105.5 81.5t78.5 124.5q20 71 48 80q17 5 23 -24 q3 -12 3 -27q0 -24 -7 -58q-69 -346 -409 -381q-30 -3 -59 -3q-69 1 -129 19q-85 26 -138 78q-54 54 -83 124q-28 68 -28 144v5zM193 362q27 -8 53 -8q24 0 50 8q50 16 85 52q17 29 17 52q0 10 -3 20q-11 30 -43 32q-11 1 -21 1q-53 0 -89 -40q-44 -48 -49 -117z" />
<glyph unicode="f" horiz-adv-x="409" d="M-420 -338q4 86 44.5 165t101.5 134q63 57 137 96.5t137 51.5q37 921 55 1038q4 33 10 63.5t18.5 72t34 74.5t50.5 63t73 46q41 15 91 15h6q79 -1 124.5 -61t49.5 -151v-24q0 -80 -20 -167q-23 -99 -81.5 -189.5t-136.5 -138.5q-1 -3 -55 -557q38 14 71 39.5t52 48.5 t37.5 58.5t24.5 50t16 42.5q19 55 46 62q20 6 26 -26q2 -11 2 -24q0 -25 -7 -59q-10 -50 -30.5 -102t-55.5 -108.5t-92.5 -101.5t-128.5 -65q-14 -108 -46 -198.5t-72.5 -150.5t-88.5 -104t-96.5 -64t-94.5 -25q-13 -1 -26 -1q-30 0 -56 8q-38 12 -62 38q-58 61 -58 141v10z M-286 -308q4 -36 23 -54q11 -10 28 -10q13 0 29 5q37 13 77 58q48 52 80 128.5t41 151.5q-82 -19 -154.5 -73t-103.5 -119q-21 -44 -21 -76q0 -6 1 -11zM293 897q51 66 74.5 154t23.5 147v5q0 54 -20 61q-2 1 -5 1q-13 0 -25 -30q-10 -25 -15 -66q-11 -74 -33 -272z" />
<glyph unicode="g" horiz-adv-x="923" d="M-24 401q6 158 102 263q105 115 277 115q14 0 28 -1q51 -3 98.5 -23.5t73.5 -49.5q3 36 33 55q28 18 64 18h4q38 -1 76 -12t63 -36t22 -54q-4 -36 -27 -214.5t-30 -246.5l4 -2q7 1 20 6q55 26 93 83.5t55 115.5q15 56 45 69q25 11 32 -25q2 -9 2 -21q0 -23 -7 -56 q-26 -137 -91 -223t-178 -131q-29 -126 -64.5 -222t-92.5 -186t-136 -137q-73 -45 -139 -45q-5 0 -10 1q-71 3 -117 50q-44 45 -44 129q0 19 2 40q12 114 81 200q72 89 160 143q-14 -2 -47 -2q-175 0 -273 132q-79 107 -79 250v17zM172 297q16 -86 91 -121q28 -13 61 -16 q12 -1 24 -1q93 0 146 71q40 53 40 116q0 17 -3 35q-14 86 -91 121q-28 12 -61 16q-15 2 -28 2q-94 0 -146 -72q-37 -51 -37 -111q0 -19 4 -40zM266 -330v-5q0 -29 15 -39q6 -4 16 -4q13 0 32 10q32 15 70 57q44 46 80 127.5t43 132.5q-152 -50 -231 -197q-23 -48 -25 -82z " />
<glyph unicode="h" horiz-adv-x="819" d="M-25 133q61 726 103 1008q5 42 13 78t29 86.5t50 86.5q28 36 78 60q49 24 109 23h5q78 -1 124 -61q44 -60 48 -152q0 -12 1 -24q0 -80 -20 -166q-23 -99 -81.5 -190t-136.5 -139q-1 -19 -15.5 -116.5t-15.5 -108.5q56 152 134 216q56 47 117 47q23 0 46 -7 q30 -8 51.5 -24.5t34.5 -35.5t19 -50q8 -32 10 -56q1 -14 1 -32q0 -15 -1 -32q-2 -40 -5 -64.5t-8.5 -68.5t-7.5 -65q-3 -27 -4 -47q1 -15 3 -27q4 -26 26 -30q24 -4 49.5 17t44.5 55.5t31.5 62t19.5 49.5q18 58 46 68q22 8 28 -27q1 -8 1 -18q0 -25 -7 -60 q-16 -84 -45 -156t-70 -128t-98 -83q-40 -19 -85 -19q-18 0 -36 3q-123 29 -123 209q0 39 6 84q12 94 12 145q0 27 -3 42q-10 40 -41 32q-56 -14 -97 -105t-82 -298q-11 -63 -55 -93q-35 -24 -72 -23q-10 0 -18 1q-46 7 -80 43q-33 34 -33 84v6zM315 891q51 66 75 153.5 t26 149.5q0 57 -21 65q-2 1 -4 1q-14 0 -27 -32q-9 -25 -14 -63q-22 -155 -35 -274z" />
<glyph unicode="i" horiz-adv-x="434" d="M0 188q-1 18 0 38q0 155 58 447q2 12 3 19q9 50 41 71q23 15 50 15q10 0 20 -2q38 -8 73.5 -26.5t58.5 -46t20 -48.5q-7 -62 -27 -184t-21 -127q-6 -33 -5 -55q0 -13 1 -21q5 -24 27 -30q4 -1 8 -1q29 0 61 50q38 57 68 143q17 47 45 58q26 11 31 -26q1 -8 1 -17 q0 -23 -7 -56q-20 -83 -54.5 -156.5t-81 -131t-108.5 -84.5q-40 -18 -82 -18q-22 0 -45 5q-127 29 -135 184zM84 791q3 14 12.5 65t14.5 80q11 50 41 71q22 15 48 15q8 0 18 -2q36 -8 71.5 -26t57.5 -45t20 -48q-3 -19 -15.5 -89t-15.5 -95q-4 27 -36 55t-72 44 q-31 12 -63 12h-19q-42 -4 -62 -37z" />
<glyph unicode="j" horiz-adv-x="413" d="M-430 -398q-4 21 -4 41q0 42 14 83q19 61 53 115.5t78 97.5q63 60 142.5 98.5t146.5 50.5q0 1 3.5 112t11.5 256.5t18 221.5q6 47 35 68q24 18 52 18q7 0 14 -2q37 -5 72 -22.5t57.5 -45.5t19.5 -53q-9 -88 -28 -210t-33 -201l-15 -78q126 19 211 265q2 4 2 5 q16 45 40.5 64t35.5 -3q6 -11 6 -33t-6 -57q-72 -337 -318 -411q-17 -108 -51 -197.5t-76 -149.5t-91.5 -103t-98.5 -62.5t-95 -23.5q-12 -2 -24 -2q-32 0 -60 10q-37 12 -61 38q-42 48 -51 110zM-284 -336v-5q0 -33 16 -47q9 -7 23 -7q12 0 29 6q35 13 77 57q87 93 116 264 q-73 -18 -142 -74.5t-93 -107.5q-24 -48 -26 -86zM47 782q6 35 23 142q10 50 40 72q23 15 49 15q9 0 19 -1q36 -8 71 -26.5t57 -45.5q20 -26 20 -45q0 -12 -16 -95q-14 -67 -17 -85q-4 27 -35 54t-70 43q-29 11 -58 11q-11 0 -22 -1q-40 -6 -61 -38z" />
<glyph unicode="k" horiz-adv-x="858" d="M-27 119q1 15 8.5 94.5t17 181t19.5 195.5q27 320 60 561q4 32 7.5 53t13 58.5t21 63t32 56.5t46 49.5t64 31t84.5 12.5q79 -1 124.5 -61t49.5 -152v-24q0 -80 -20 -166q-22 -99 -80.5 -190t-136.5 -139q0 -3 -1.5 -13.5t-3.5 -28.5t-4 -33q117 109 256 109q21 0 43 -3 q103 -12 155 -83q44 -60 43 -145q0 -15 -1 -30q-9 -93 -58 -152.5t-128 -76.5q17 -13 28 -34.5t15 -38.5t15 -30t30 -14h2q28 0 57 24q30 24 56 65.5t46 83t37 87.5q22 56 49 65q20 6 25 -25q2 -9 2 -20q0 -25 -8 -61q-31 -164 -142 -280q-103 -108 -215 -108q-9 0 -18 1 q-49 3 -85.5 34.5t-74.5 100.5q-45 83 -95 104q-12 5 -22 5q-33 0 -55 -49q-5 -14 -32 -107q-13 -41 -41 -64.5t-60 -24.5h-5q-29 0 -56 11q-29 12 -47 41q-17 26 -17 59v7zM301 891q51 66 74.5 154t23.5 147v5q0 54 -20 61q-2 1 -4 1q-14 0 -26 -30q-10 -26 -15 -66 q-11 -74 -33 -272zM326 442q66 -61 123 -69q19 -3 36 -3q53 0 87 28q42 34 43 80q-1 4 -1 8q-4 50 -55 73q-19 9 -49 9h-3q-28 0 -61 -9q-35 -9 -68 -39.5t-52 -77.5z" />
<glyph unicode="l" horiz-adv-x="387" d="M-32 226q0 104 26 294q33 349 78 631q6 42 14 77t29.5 84.5t50 83t78.5 56.5q46 21 104 21h10q79 -2 124 -63q46 -60 48 -151v-18q0 -83 -22 -171q-24 -98 -83.5 -188t-137.5 -137q0 -2 -29 -193.5t-31 -213.5q-3 -26 -3 -45q0 -58 28 -64q2 0 5 -1q37 0 81 75 q48 79 59 133q14 52 42 61q24 7 32 -28q2 -11 2 -25q0 -26 -8 -61q-41 -179 -153 -293q-89 -90 -185 -91q-26 0 -53 7q-56 18 -81 67t-25 153zM303 891q53 65 78 152t27 147v5q0 55 -20 62h-3q-14 0 -27 -30q-10 -25 -16 -64h-2q-30 -209 -37 -272z" />
<glyph unicode="m" horiz-adv-x="1128" d="M-25 123q2 31 9.5 123t20 233.5t20.5 237.5q3 34 30 51q24 15 56 15h7q36 -2 72.5 -13t63.5 -32t31 -42q1 -17 -14 -82.5t-17 -78.5q50 133 122 197q57 51 122 52q17 0 34 -4q92 -19 119 -121q43 67 96 99q40 24 81 24q13 0 26 -2q60 -13 94 -52q34 -40 42 -100 q5 -38 6 -76q0 -23 -2 -45q-4 -60 -21 -136q-18 -88 -19 -99q0 -28 21 -28h4q28 2 58.5 28.5t52 61t35.5 60.5t16 34q20 58 43 65q14 5 19 -19q1 -8 1 -19q0 -26 -8 -68q-32 -167 -146 -285q-95 -98 -194 -98q-20 0 -41 4q-70 24 -87 104q-6 29 -6 72q0 77 19 201 q6 34 6.5 61t-4 43t-12 24.5t-18 5.5t-22 -13.5t-23.5 -33t-23 -52.5q-6 -38 -12 -72q-29 -135 -70 -282q-14 -46 -72 -61q-21 -5 -40 -5q-35 0 -64 17q-35 20 -35 57q0 12 4 26q54 228 64 285q6 39 6 67q0 46 -17 64q-8 8 -17 8q-17 0 -36 -29q-17 -26 -32 -71 q-11 -30 -48.5 -144t-60.5 -174q-19 -49 -51.5 -76.5t-65.5 -29.5h-9q-28 0 -53 10q-28 12 -46 44q-15 26 -15 58v11z" />
<glyph unicode="n" horiz-adv-x="802" d="M-27 123q2 31 9.5 123t20 233.5t20.5 237.5q3 34 30 51q24 15 56 15h7q36 -2 72.5 -13t63.5 -32t31 -42q1 -17 -14 -82.5t-17 -78.5q50 133 122 197q57 51 122 52q17 0 34 -4q141 -29 141 -223q0 -80 -24 -188q-18 -88 -18 -101q1 -25 22 -24h2q38 3 78 48t60 83t24 53 q21 58 45 65q15 5 20 -19q1 -8 1 -18q0 -26 -9 -69q-39 -179 -151 -291q-92 -92 -192 -92q-22 0 -44 4q-69 24 -84 104q-5 25 -5 62q0 79 22 211q6 39 6 67q0 46 -17 64q-8 8 -17 8q-17 0 -36 -29q-17 -26 -32 -71q-11 -30 -48.5 -144t-60.5 -174q-19 -49 -51.5 -76.5 t-65.5 -29.5h-9q-28 0 -53 10q-28 12 -46 44q-15 26 -15 58v11z" />
<glyph unicode="o" horiz-adv-x="792" d="M-24 398q6 157 102 263q105 116 279 116q14 0 28 -1q152 -7 235 -95.5t89 -221.5q24 16 42 33t26.5 28.5t23.5 34.5q23 35 51 35h4q26 -3 26 -35q0 -33 -34 -84q-67 -100 -146 -158q-25 -128 -123.5 -220.5t-248.5 -92.5q-175 0 -274 132q-80 107 -80 252v14zM180 294 q8 -48 46 -86.5t98 -49.5q19 -3 36 -3q44 0 80 20q50 28 74 81q-77 0 -131 43q-45 41 -61 101q-7 28 -8 54q0 32 10 64q-53 -8 -91 -44q-37 -36 -49 -84q-7 -29 -7 -58q0 -19 3 -38zM479 479q-6 -18 -6 -33q0 -20 10 -34q19 -21 45 -21q-6 53 -49 88z" />
<glyph unicode="p" horiz-adv-x="808" d="M-45 -334q1 30 42 526.5t44 526.5q3 54 59 57q16 4 33 4q42 0 91 -21q69 -29 77 -67q1 -15 -14 -81t-17 -81q52 138 114 201q48 49 107 49q17 0 35 -4q41 -8 68.5 -31t40.5 -58t19 -73q3 -20 3 -45q0 -20 -3 -43q-4 -50 -10 -90t-17 -92q-10 -46 -10 -71q0 -7 1 -12 q3 -24 31 -21q29 3 59 29t53 62t34.5 58t17.5 35q21 61 44 66q18 3 19 -39q0 -27 -8 -68q-21 -108 -80 -201t-141 -144q-62 -38 -123 -38q-20 0 -39 4q-70 26 -87 105q-5 27 -5 67q0 78 21 205q6 35 6 60q0 49 -22 66q-8 6 -18 6q-23 0 -54 -38q-77 -98 -112 -336 q0 -4 -1 -8q-50 -395 -63 -467q-18 -80 -67 -112q-25 -17 -47 -17t-43 17q-38 30 -38 103v11z" />
<glyph unicode="q" horiz-adv-x="923" d="M-11 293q-8 48 -8 95q0 68 16 134q27 114 132 189q95 68 229 68q14 0 29 -1q110 -3 180 -67q6 55 67 65q16 3 30 3q46 0 90 -25q55 -30 55 -77q0 -19 -5 -72q-5 -51 -14.5 -142.5t-15.5 -157.5q-4 -35 2.5 -49t28.5 -14q33 0 72.5 64t54.5 118t43 67q25 11 33 -24 q3 -11 3 -26q0 -23 -7 -54q-16 -72 -38.5 -134.5t-54 -118t-74.5 -90t-92 -38.5q0 -3 -5.5 -53t-10.5 -101t-9 -106q-3 -44 -3 -68v-10v-8q0 -44 -20 -74q-22 -34 -55 -42q-16 -3 -33 -3t-35 3q-34 8 -60 41t-29 81q-1 8 -1 21q0 25 3 69q4 65 12.5 164.5t10.5 130.5 q-46 -28 -84 -39q-34 -10 -85 -10h-9q-137 6 -230.5 90.5t-112.5 200.5zM161 327q5 -39 22 -73t54.5 -59t88.5 -33q21 -3 40 -3q89 0 139 69q39 53 39 112q0 33 -13 68q-35 97 -150 110q-16 2 -32 2q-35 0 -67 -10q-45 -14 -70.5 -42.5t-40.5 -65.5q-11 -27 -11 -56 q0 -9 1 -19z" />
<glyph unicode="r" horiz-adv-x="776" d="M-57 287q1 9 6 16q37 47 59 145t26 170q3 58 3 104v26q1 40 31 54q21 10 44 11q12 0 26 -3q38 -8 71 -25.5t35 -32.5q1 -20 26 -34q26 -16 58 -20q10 -1 20 -1q22 0 46 7q34 10 52 35q21 31 64 39q14 3 27 2q27 0 49 -12q48 -24 58 -77q3 -18 3 -42q0 -45 -12 -108 q-6 -30 -19.5 -98t-19.5 -99t-8.5 -49.5t-0.5 -32t10.5 -18.5t23.5 -4q28 3 57.5 29t52.5 62.5t34 57.5t17 35q21 60 44 66q13 4 17 -17q3 -11 2 -26q0 -26 -7 -64q-22 -110 -78 -206q-55 -97 -135 -147q-53 -33 -105 -33q-27 0 -53 9q-98 33 -98 206q0 117 45 298 q-38 -17 -76 -22q-17 -2 -32 -2q-18 0 -34 3q-29 6 -55 17t-44.5 25t-32.5 26.5t-20.5 20t-6.5 6.5q-17 -135 -48.5 -237t-56.5 -134q-17 -20 -42 10q-24 27 -24 54q0 5 1 10z" />
<glyph unicode="s" horiz-adv-x="708" d="M-105 199q-2 8 -2 16q0 31 29 70q46 60 69 217q21 144 21 233v15q-1 34 26 50q24 14 57 14h9q39 -2 78.5 -11.5t68 -25t30.5 -27.5q10 -46 29.5 -82t47 -61.5t54.5 -42t63 -32.5q63 -22 101 -70q39 -48 49 -106q4 -23 3 -46q0 -36 -8 -74q-16 -62 -52 -113.5t-98 -86 t-138 -36.5h-14q-105 0 -189 42q-90 46 -145 136q-13 -25 -46 -19q-35 7 -43 40zM88 301q59 -118 161 -143q25 -6 47 -6q47 0 82 27q36 28 36 67q0 10 -2 22q-10 44 -43.5 74.5t-70.5 44.5t-87.5 36t-81.5 46v-9q0 -54 -41 -159z" />
<glyph unicode="t" horiz-adv-x="423" d="M6 362q76 715 111 965q8 54 39.5 84t70.5 31h3q38 0 73 -14q37 -14 60 -48q19 -28 19 -59q0 -7 -1 -14q-15 -106 -29 -220q18 -1 35.5 -2t27 -2t15.5 0q38 1 48 -45q3 -15 3 -31q-1 -31 -13 -61q-18 -46 -48 -45h-94q-53 -291 -80 -555q-4 -21 -4 -40q0 -18 4 -35 q8 -34 39 -33q40 1 84 64.5t61 117.5q19 59 44 66q17 5 23 -22q2 -10 2 -24q0 -25 -7 -61q-14 -73 -49 -144t-83.5 -127.5t-113.5 -86.5q-45 -21 -91 -21q-20 0 -40 4q-115 23 -115 246q0 51 6 112z" />
<glyph unicode="u" horiz-adv-x="890" d="M-26 290q-3 26 -3 54q0 70 17 152q23 112 78 231q15 36 47 47q16 5 32 5q17 1 34 -5q34 -12 64 -32t45.5 -47.5t6.5 -47.5q-16 -42 -26 -71t-24.5 -73.5t-20.5 -76.5q-8 -33 -14 -72q-4 -27 -4 -48q0 -10 1 -20q3 -28 11.5 -54.5t28 -43.5t48.5 -24q17 -4 32 -4 q51 0 89 46q49 60 57 161q9 152 35 346q4 57 72 64q12 1 23 1q56 0 111 -28q62 -32 62 -69q0 -11 -20 -161q-16 -118 -23 -186q-2 -14 -2 -26q0 -24 7 -41q10 -26 32 -27q11 -1 22.5 6t21.5 18.5t21 28t19.5 32t17 33.5t13.5 30t9 24l5 12q19 55 47 65q25 8 31 -30 q1 -9 1 -19q0 -21 -5 -49q-17 -83 -49.5 -157t-78 -130t-107.5 -84q-43 -20 -88 -20q-20 0 -40 4q-100 18 -127 131q-18 -48 -53 -79.5t-79 -43.5q-36 -10 -76 -10h-17q-49 2 -96 21q-83 31 -131 102t-57 165z" />
<glyph unicode="v" horiz-adv-x="839" d="M-24 426q12 145 87 301q33 52 85 52q4 -1 10 -1q60 -6 112 -50q39 -34 39 -62q0 -9 -4 -17q-20 -52 -34.5 -95.5t-28.5 -97.5t-16 -96v-20q0 -30 4 -60q6 -38 30 -64.5t64 -35.5q12 -2 23 -3q38 -1 72 29q44 38 67 104q20 58 20 120v16q-15 35 -15 75q-1 29 7 59 q18 74 65 114q58 53 123 53q9 0 17 -1q56 -5 70 -47q4 -10 4 -22q0 -23 -15 -50q-30 -54 -30 -86q0 -28 24 -39q19 -9 57 15t51 40q29 33 47 33q5 0 10 -3q9 -6 9 -20q0 -17 -13 -45q-11 -23 -30 -49q-33 -47 -89 -83q-46 -30 -95 -29q-9 0 -19 1q-30 -101 -73.5 -174.5 t-92 -114.5t-104.5 -59q-46 -15 -90 -15q-10 0 -20 1q-54 4 -111 25q-117 41 -173 149q-46 89 -46 204q0 23 2 48z" />
<glyph unicode="w" horiz-adv-x="1204" d="M-20 428q10 145 77 301q15 36 49 46q15 4 30 4q20 0 42 -7q38 -13 71.5 -35t52 -50t9.5 -48q-8 -23 -21 -61.5t-22.5 -65t-21 -63t-17.5 -63.5t-10.5 -57.5t-1.5 -52.5t9.5 -42.5t22.5 -34t40 -19.5q10 -2 19 -2q27 0 53 19q34 26 57 75q-5 42 -5 84q-1 50 7 98 q14 90 47 148q32 57 100 57q10 0 21 -1q62 -8 98 -48q26 -29 14 -55q-22 -44 -38 -100q-16 -55 -22 -115q-1 -11 0 -23q0 -46 18 -82q24 -45 77 -55q12 -2 23 -2q58 0 92 62q35 66 36 165q0 12 -1 25q-26 47 -26 99q0 22 5 46q16 77 66 119q60 54 126 54q7 0 13 -1 q56 -6 70 -48q4 -10 4 -22q0 -23 -15 -50q-15 -26 -22.5 -49.5t-4.5 -45.5t21 -30q19 -9 57.5 15t51.5 40q29 33 47 33q5 0 10 -3q10 -6 10 -21q0 -17 -13 -44q-11 -24 -30 -49q-37 -48 -91 -83q-45 -29 -92 -29q-9 0 -19 1q-19 -101 -54.5 -174.5t-79.5 -114t-98 -58.5 q-45 -15 -90 -15h-18q-54 4 -111 25q-71 24 -115 77q-44 -53 -99 -78q-51 -23 -100 -23h-8q-53 2 -108 24q-102 42 -152 150q-41 89 -41 203q-1 25 1 50z" />
<glyph unicode="x" horiz-adv-x="1243" d="M-23 381q3 96 37.5 180.5t102.5 144.5t157 70q33 4 63 4q79 0 144 -24q90 -34 148 -103q57 65 135 98q66 28 139 28q13 0 27 -1q84 -5 137 -42.5t67 -91.5q9 -33 9 -68q1 -22 -3 -46q-10 -60 -42 -116q-61 -104 -143 -104h-2q-51 1 -77 37q-22 31 1 54q38 49 38 82 t-34 37q-10 1 -19 1q-76 0 -118 -74q-26 -46 -27 -96q1 -39 17 -81q36 -94 147 -110q27 -3 53 -3q92 1 166 45q94 58 151 212q19 65 50 77q24 10 32 -26q2 -10 2 -24q0 -25 -8 -58q-37 -157 -135.5 -259.5t-249.5 -119.5q-33 -4 -63 -4q-182 0 -279 129q-61 -64 -143 -98 q-75 -31 -157 -31h-15q-57 2 -111.5 27t-100.5 71q-47 45 -73 119q-24 66 -23 146v18zM139 436q38 27 69 27q20 0 36 -11q29 -19 21 -50q-3 -13 -13 -23q-27 -35 -36 -83q-3 -15 -2 -29q0 -32 14 -60q20 -41 73 -47q16 -1 30 -1q84 -1 127 49q50 58 52 165v10q0 81 -45 133 q-48 56 -123 64q-14 2 -28 2q-58 0 -102 -31q-56 -38 -73 -115z" />
<glyph unicode="y" horiz-adv-x="937" d="M-28 328q-1 6 -1 13q0 99 33 201q36 108 105 175q41 41 102 41q19 0 39 -4q67 -13 94 -53q10 -15 10 -29q0 -18 -16 -35q-42 -39 -78.5 -114t-54.5 -151q-10 -41 -10 -78q0 -33 8 -62q16 -64 73 -78q15 -4 30 -4q44 0 90 30q61 40 102 115.5t45 157.5q4 211 6 237 q3 34 31.5 54.5t67.5 21.5h7q36 0 69 -8q38 -10 63 -35t22 -57q-8 -88 -23 -210t-26 -200l-10 -78q29 8 54.5 24.5t45 42.5t33.5 47t27.5 54t19 46.5t14.5 41.5q15 44 40 47q21 3 29 -29q3 -11 3 -25q0 -23 -8 -54q-8 -35 -13 -55.5t-17.5 -57.5t-25.5 -62.5t-35.5 -58.5 t-49 -56.5t-65 -46.5t-83.5 -38q-13 -109 -44 -200t-72.5 -151.5t-90.5 -105.5t-98.5 -66t-95.5 -27q-16 -1 -30 -1q-29 0 -56 7q-38 12 -62 38q-55 59 -55 135q0 8 1 17q6 86 48.5 164.5t103.5 134.5q42 39 82 61q-47 -12 -92 -12q-58 0 -111 20q-82 31 -127.5 120.5 t-47.5 195.5zM261 -337q0 -35 17 -49q9 -7 22 -7q12 0 28 7q34 13 75 58q48 51 80.5 134.5t42.5 162.5q-69 -20 -143 -91.5t-100 -125.5q-22 -50 -22 -89zM471 63q39 24 72 39l2 14q2 13 2 19q-51 -57 -76 -72z" />
<glyph unicode="z" horiz-adv-x="851" d="M-18 338q-2 24 -2 47q0 81 30 152q39 91 116.5 149t193.5 81q59 12 124 11q61 0 127 -10q54 -13 88 -47.5t31 -63.5q-7 -49 -78 -144q-56 -74 -63 -95q-2 -7 -2 -12q0 -25 40 -28q6 -1 13 -1q33 -1 51.5 -23t22 -53t2.5 -62.5t-6 -52.5l-4 -22q23 7 44.5 21.5t38.5 31.5 t32.5 38.5t26.5 40.5t21.5 39.5t15.5 34t10 26.5l5 12q20 57 47 66q21 6 27 -26q2 -9 2 -20q0 -25 -8 -61q-8 -41 -20 -80t-36 -89.5t-54.5 -91t-79 -76.5t-107.5 -53q-15 -104 -47 -192t-73 -147t-89 -103t-97 -64.5t-94 -26.5q-15 -2 -28 -1q-29 -1 -55 7q-38 12 -62 38 q-44 46 -52 110q-2 18 -3 37q0 46 15 91q21 64 56 122t78 103q58 63 137 102t148 51q8 26 12 42.5t7.5 39t1 37t-9 29t-21.5 23t-37 12.5q-13 -1 -31 1t-39 2t-34 11t-16 29t15.5 56.5t59.5 92.5q21 27 -8 42q-15 8 -34 8q-24 0 -53 -13q-71 -31 -102 -121q-8 -23 -8 -48.5 t10 -51t40 -41.5q28 -16 72 -16h5q31 0 41 -34q3 -10 3 -20q0 -28 -23 -52q-20 -20 -52 -26q-21 -4 -41 -4q-73 0 -141 50q-88 64 -100 186zM170 -336q4 -36 20 -52q9 -9 24 -8q12 0 29 6q36 14 76 58q94 100 117 281q-80 -23 -148 -75.5t-98 -121.5q-21 -46 -21 -79 q1 -5 1 -9z" />
<glyph unicode="&#xa1;" horiz-adv-x="645" d="M160 -258q-2 29 2 61q56 451 129 848q7 40 24.5 65t38 29t39.5 -4.5t31.5 -36.5t11.5 -67q4 -246 4 -585.5t-8 -436.5q-4 -57 -59 -74q-60 -17 -122 25q-84 56 -91 176zM303 907q3 34 28.5 55.5t57.5 18.5q34 -5 55.5 -31.5t18.5 -60.5t-27.5 -55.5t-58.5 -18.5 q-32 5 -53.5 31.5t-20.5 60.5z" />
<glyph unicode="&#xa2;" horiz-adv-x="892" d="M102 688q0 99 50.5 181.5t133 126.5t175.5 38q55 -6 90 -20q5 10 10.5 19.5t9 15t4.5 6.5q31 53 69 45q29 -6 35 -42q5 -31 -17 -67q-2 -4 -6.5 -10.5t-12.5 -18.5t-14 -22q20 -45 13 -96t-36 -101q-35 -62 -79.5 -81t-82.5 -7q-16 -28 -79 -125q27 -14 55 -16 q103 -14 183 38.5t126 174.5q17 59 43 64q17 3 23 -23t-4 -68q-28 -125 -112 -215.5t-208 -103.5q-103 -11 -188 22q-15 -21 -21 -30q-28 -40 -51 -32q-22 7 -12 45q3 14 12 30l12 20q-59 42 -90 108.5t-31 143.5zM284.5 661q1.5 -43 22.5 -77q41 73 129 225q-6 6 -16 6 q-42 4 -74.5 -18t-47.5 -57.5t-13.5 -78.5z" />
<glyph unicode="&#xa8;" horiz-adv-x="757" d="M285 879q0 35 8.5 52t36.5 17q29 0 37 -16.5t8 -52.5q0 -24 -1.5 -35.5t-12 -22t-31.5 -10.5q-27 0 -36 17.5t-9 50.5zM391 879q0 35 8.5 52t36.5 17q29 0 37 -16.5t8 -52.5q0 -24 -1.5 -35.5t-12 -22t-31.5 -10.5q-27 0 -36 17.5t-9 50.5z" />
<glyph unicode="&#xa9;" horiz-adv-x="1615" d="M168 1118q-10 46 4 95t53 81q28 24 86 54q2 1 17.5 9t21.5 12t17 13.5t16.5 21.5t7.5 28v20q44 -44 31 -74q-8 -18 -51 -47q-10 -7 -43 -28.5t-49 -34.5t-30.5 -36t-10.5 -48q4 -34 39 -41.5t59 2.5q49 11 84.5 44.5t69 80.5t57.5 67q54 50 100 62q45 8 91.5 4.5 t92.5 -33.5t70 -80q8 -17 9 -35.5t-3 -34.5t-13.5 -35t-19.5 -34.5t-26 -36.5q-4 -4 -10 -11t-9 -10t-7 -10t-3 -11.5t2 -14.5q4 -13 18 -23t25 -12q53 -6 115 22q10 5 46 27t59.5 30.5t43.5 4.5q42 -7 90.5 -44t55.5 -79q7 -35 -5 -93.5t-12 -76.5q1 -12 21.5 -40.5 t19.5 -45.5q0 -6 -13.5 -21.5t-12.5 -23.5q1 -7 8.5 -18.5t9.5 -16.5q2 -10 -11 -30.5t-11 -24.5q4 -7 11 -16t10 -12.5t5 -11.5t-4 -15q-14 -21 -14 -45q72 40 103.5 66t39.5 63q5 21 -6 28q-6 4 -12.5 0.5t-9.5 -12.5q-1 -1 -4 -9t-5.5 -12t-5.5 -4q-8 2 -6 18.5t6 22.5 q8 20 29 20.5t29 -14.5q12 -12 8 -32t-11 -34t-16 -26q-15 -20 -57 -45q-29 -20 -82 -51v-10q40 22 74 -8q18 -18 19 -43.5t-12.5 -44.5t-33.5 -29.5t-45 0.5q-8 -46 -57 -77.5t-109 -43.5q-86 -16 -170 -10q-106 3 -158 82q-22 -36 -57 -41q-45 -7 -63.5 31t-1.5 78t59 38 q-4 11 -8 41q-66 18 -121 49q-26 20 -23 47q2 17 14.5 26t26.5 8.5t26 -12t13 -30.5q-2 -11 -11 -1.5t-21 20.5t-25 -2q-8 -11 -1 -24t23 -23q35 -19 86 -35q-4 4 -4 10q15 6 15.5 19.5t-11.5 23.5q-4 3 -21 10t-20 15q-5 13 15 34t12 37q-7 12 -36.5 28.5t-37.5 35.5 q-3 3 -1 11t2 10.5t4 10t6 10t7 9.5t7 10q9 17 8.5 27.5t-13 22t-25.5 18.5t-28.5 16t-21.5 16q-32 32 -36 80t16 80q4 7 15 18.5t20 21t18 22.5t8.5 22.5t-8.5 22.5q-10 10 -25 8q-18 -4 -36 -14t-40.5 -26.5t-33.5 -23.5q-77 -50 -179 -20q-38 11 -69.5 35t-38.5 61z M178 1184q-8 -91 47 -127q45 -30 106 -32.5t111 26.5q9 5 28 19t34.5 23.5t33 18t33 8t25.5 -11.5q12 -13 14.5 -25.5t-4.5 -24.5t-15.5 -22t-20.5 -22.5t-17 -20.5q-21 -27 -19.5 -74t33.5 -79q7 -7 32.5 -20t42.5 -29t17 -39q0 -12 -19.5 -35.5t-16.5 -40.5q7 -25 51 -41 q0 39 30 78.5t72 58.5q27 12 55 12q38 -7 58.5 -11.5t51.5 -18.5t56 -35q-11 115 -77 166q-15 12 -35 16t-32.5 3t-40 -5.5t-36.5 -5.5q-63 -4 -88 2q-28 6 -44.5 34.5t-14.5 59.5q2 38 62 102.5t71 88.5q13 23 10.5 48.5t-8.5 42t-14 25.5q-52 52 -107 41q-39 -10 -95 -51 t-83 -74q-28 -33 -68 -56.5t-78 -27.5q-46 -6 -61 5q-14 7 -24.5 24.5t-12.5 32.5q-1 38 26.5 67.5t77.5 60t68 46.5q12 11 17 18.5t3.5 20t-14.5 29.5q3 -34 -25.5 -58t-77.5 -49.5t-71 -46.5q-44 -40 -47 -94zM489 1247q31 25 43.5 34.5t42.5 29.5t48.5 25.5t44 6 t47.5 -11.5q65 -36 63 -112q-1 -32 -22.5 -63t-56 -65.5t-48.5 -56.5q-16 -27 -16 -45q-2 -15 4.5 -37.5t15.5 -31.5q17 -17 43 -21q29 -5 115 8q59 5 74 0q97 -29 121 -196q6 26 17.5 55t26 55.5t25 44.5t24 38.5t13.5 21.5q14 21 31.5 37.5t38 27.5t41.5 6t37 -28 q-9 43 -19 57q-15 17 -44 35t-54 26q-45 15 -96 -16q-118 -69 -179 -63q-21 4 -40.5 17.5t-24.5 35.5q1 9 0 12.5t5 13t8.5 13t10 12.5t9.5 12q64 73 59 131q-8 62 -70.5 100t-121.5 36q-66 -4 -105 -31q-77 -54 -111 -113zM672 546.5q-2 -5.5 2 -9t9.5 -6.5t14 -7t13.5 -8 q25 -22 10 -49q-3 -7 -6 -4q0 -2 1 -6t1 -6q8 -2 23.5 -6.5t23.5 -6.5q7 120 59 191q-34 32 -37.5 74t19.5 71q-43 -10 -78.5 -47t-44.5 -76q-3 -14 12 -37q16 -27 -12 -55q-8 -7 -10 -12.5zM676 346q-13 -36 6 -61q10 -15 31.5 -18.5t34.5 7.5q22 13 34 35q1 4 6.5 -3 t8.5 -13q50 -61 143 -70q191 -14 291 64q37 32 35 63q0 6 -6 21.5t-7 19.5q-1 3 -6 23q-1 5 -4 18t-4 21q-69 -37 -127 -62q-12 -6 -16 -1t8 11q21 12 65 34t68 36q0 17 -4 45q0 27 -2 39q0 5 -1 19t-1 22q-2 16 -10 39q-4 11 -10 19t-19 17.5t-14 10.5q8 5 13 11t6 14.5 t1 15t-4 18t-6 17.5t-7.5 18.5t-7.5 16.5q-17 -9 -33.5 -20t-38.5 -27t-34 -25q-6 -5 -20 -16.5t-19 -14.5q-13 -6 -20 4q-41 51 -142 74q-28 8 -38 5t-19 -23q-25 -48 27 -121q-51 -67 -58 -193q4 -1 11.5 -3t11.5 -3q28 -7 209 -33q19 -3 18 -10q-1 -5 -12 -6 q-143 15 -238 37q0 -3 -1 -9.5t-1 -9.5q0 -2 0.5 -9.5t0.5 -14v-13.5t-1.5 -12t-3.5 -6q-4 -3 -20 4t-19 12q-4 4 -8 21q-34 1 -47 -35zM694 309q-7 20 7 32t33 9t24 -20q-2 -1 -12.5 -5t-13.5 -6t-7 -9.5t-4 -18.5q-7 9 0 22t16 19q-9 15 -27 5.5t-16 -28.5zM725 430 q2 -10 6 -29.5t6 -29.5q11 -15 25 -11v60q-6 2 -18.5 5t-18.5 5zM741 143q0 9 9 23q5 8 18 8q8 0 12 -2l8 -8v24q0 4 3 7q2 2 6 2t4 -2q2 -2 2 -7v-69q0 -4 -2 -6q0 -2 -4 -2t-6 2q-3 3 -3 6v2l-6 -6q-1 0 -3 -1t-3 -1q-2 -2 -8 -2q-8 0 -10 2q-5 3 -8 8q-4 4 -7 10 q0 1 -1 5.5t-1 6.5zM758 143q0 -8 2 -12l6 -6q2 -2 6 -2q6 0 8 2l6 6q0 2 1 5.5t1 6.5q0 2 -1 5.5t-1 5.5l-6 6q-2 2 -8 2q-4 0 -6 -2l-6 -6q-2 -4 -2 -11zM815 141q0 7 4 19q3 7 10 10q12 4 19 4q6 0 10 -2q4 0 8 -4l6 -6q0 -1 1 -3t1 -3l-2 -4q-2 -2 -6 -2h-2l-4 4l-6 6 q-2 2 -6 2q-8 0 -12 -4q-5 -10 -5 -17q0 -2 3 -8q0 -4 2 -6q1 -1 3 -2t3 -2h6q4 0 8 2q4 4 4 6l4 4q0 2 4 2l4 -2q2 -2 2 -6q0 -2 -2 -6q0 -2 -4 -6q-1 -1 -4.5 -2t-5.5 -2q-2 -2 -12 -2q-15 0 -23 8q-8 12 -8 22zM838 563q7 17 36.5 27t57.5 8q23 0 35 -12q4 -5 3.5 -14.5 t-5.5 -14.5q14 -18 11.5 -43t-18.5 -45q-18 -18 -46 -30t-50 -9q45 13 56 23q-31 -5 -53 15t-15 54q11 32 47 45q-12 0 -32 -2t-27 -2zM866 528q-11 -30 2 -46.5t39 -18.5q40 -3 56.5 36t-13.5 56q-2 0 -10 4h-16q-18 0 -35 -9.5t-23 -21.5zM885 143q0 9 2 13q1 2 3 5t3 5 q2 2 10 6q4 2 12 2q9 0 13 -2q8 -4 10 -6q6 -6 6 -10q2 -4 2 -13q0 -10 -2 -14q0 -2 -2.5 -5.5t-3.5 -4.5q-2 -2 -10 -6q-2 -2 -13 -2q-8 0 -12 2q-8 4 -10 6q-1 2 -3 5t-3 5q-2 4 -2 14zM901 143q0 -8 2 -12q0 -2 4 -6q2 -2 8 -2q5 0 13 4q4 8 4 16q0 7 -4 15q-8 4 -13 4 q-6 0 -8 -2q-4 -4 -4 -6q-2 -4 -2 -11zM918 510q3 10 14 10q4 0 8 -4t4 -8q-3 -12 -14 -12q-12 0 -12 14zM934 512q0 -4 4 -4t4 4t-4 4t-4 -4zM950 117q0 2 4 6l15 20l-13 19q-4 4 -4 6l2 4q2 2 7 2q2 0 4 -2l4 -4l10 -14l10 14q0 4 4 4q0 2 4 2t4 -2q3 0 3 -4v-4l-3 -2 l-12 -19l15 -20q2 -2 2 -6t-2 -4q-2 -2 -5 -2q-4 0 -6 2l-4 4l-10 16l-12 -16l-4 -4q0 -2 -5 -2q-4 0 -6 2q0 1 -1 2t-1 2zM977.5 423.5q-1.5 8.5 0.5 15.5t3 7q1 -3 1 -10t1 -10.5t6 -7.5q6 -2 16 3.5t19 4.5q7 -21 24.5 -16.5t26.5 20.5q17 -8 25 -2q7 9 0 23q15 -9 6 -27 q-6 -6 -15.5 -6.5t-13.5 4.5q-14 -19 -28 -21q-12 0 -21 9l-10 8q-3 0 -13.5 -4.5t-19.5 -1.5q-6 3 -7.5 11.5zM1010 94q0 4 2 4q2 2 4 2h4h2h4l2 2q1 1 2 3.5t2 3.5v4l-18 47l-2 6q0 4 2 4q0 2 2 2q2 2 4 2q4 0 4 -2q1 -1 2 -3t2 -3l12 -39l13 37q1 1 2 3t2 3q0 2 2 4h4h2 l4 -4v-2v-4q-2 -2 -2 -4l-20 -54l-5 -10q-3 -6 -8 -6q-2 -2 -10 -2h-10q-4 4 -4 6zM1018 698q9 9 56 64.5t78.5 82t53.5 23.5q28 -4 43 -24q1 8 8 33.5t8 39t-3 37.5q-7 22 -26.5 31.5t-39.5 3.5q-18 -6 -39 -23t-29 -30q-34 -51 -53 -82.5t-37 -75.5t-20 -80zM1032 610 q0 4 1 12t1 9q1 -11 2 -31.5t2 -32.5q3 -54 17 -98q-7 9 -11 20.5t-6.5 30.5t-3 26.5t-1.5 34.5t-1 29zM1042 362q0 12 23 19q27 4 27 -8q1 -2 0 -3t-4 -1.5t-6 0t-7 0t-8 -1.5q-5 -1 -11.5 -4t-8.5 -3.5t-5 2.5zM1042 715q39 34 95 71q51 36 63 25q-12 -8 -14 -12 q41 -69 8 -119q18 -14 28.5 -34t13 -33t4.5 -42t3 -36l6 -60q3 3 13 8q0 19 6 37q1 3 4.5 9t5.5 11t2 9q2 7 -1 12.5t-10 12t-9 8.5q-10 15 14 47q8 13 -2.5 30t-11.5 25q0 8 13 24.5t13 24.5q-2 12 -18.5 34t-20.5 34q-1 5 0 15.5t0 14.5q-3 14 -21.5 23t-31.5 6 q-8 -1 -19 -7.5t-23.5 -17.5t-24 -22t-25.5 -27t-22.5 -26t-21 -25.5t-16.5 -19.5zM1049 350q0 6 22 10q24 7 27 0q0 -1 -3.5 -1.5t-10 -1t-11.5 -1.5t-12.5 -4t-8.5 -3t-3 1zM1071 119q0 2 4 6q0 2 4 2q6 0 6 -2q5 -5 5 -6t-5 -6q0 -2 -4 -2q-6 0 -6 2q-4 4 -4 6z M1089.5 579q-1.5 13 8.5 17q94 13 114 -33q-8 4 -14 4l4 -4q13 -20 10 -43.5t-22 -36.5q20 0 33 13q-6 -15 -25 -23q-62 -26 -98 10q-33 33 -2 78q-7 5 -8.5 18zM1094.5 533q-4.5 -19 11.5 -39q29 -35 67 -14q31 17 31 48q0 26 -28 43h-2q-29 0 -56 -6q-19 -13 -23.5 -32z M1104 141q0 7 4 19q3 7 10 10q8 4 17 4q8 0 12 -2q4 0 8 -4t4 -6q2 -2 2 -6t-2 -4q0 -2 -4 -2h-4q0 1 -1 2t-1 2l-6 6q-2 2 -8 2q-7 0 -11 -4t-4 -17v-8q0 -2 4 -6l4 -4h7q6 0 8 2l6 6l2 4l4 2q1 0 3 -1t3 -1q0 -1 1 -3t1 -3q-2 -2 -2 -6l-6 -6l-8 -4q-4 -2 -12 -2 q-15 0 -23 8t-8 22zM1143 520q0 4 3.5 8t8.5 4q12 0 12 -14q-4 -12 -14 -10q-5 0 -8 4t-2 8zM1155 524q0 -4 4 -4t4 4t-4 4t-4 -4zM1174 143q0 9 2 13q0 4 6 10q1 1 4 3t4 3q4 2 14 2q9 0 13 -2q2 -1 5 -3t5 -3q1 -2 3 -5t3 -5q0 -2 1 -6.5t1 -6.5q0 -3 -1 -7.5t-1 -6.5 q-1 -2 -3 -5t-3 -5q-2 -1 -5 -3t-5 -3q-4 -2 -13 -2q-10 0 -14 2q-1 1 -4 3t-4 3q-6 6 -6 10q-2 4 -2 14zM1188 143q0 -8 2 -12l6 -6q2 -2 8 -2t10 4q5 10 5 16q0 5 -5 15q-4 4 -10 4t-8 -2l-6 -6q-2 -4 -2 -11zM1245 121v45q0 1 1 3t1 3q2 2 6 2q5 0 7 -2q0 -1 1 -3t1 -3 v-2q3 5 8 8q2 2 10 2q6 0 10 -2q4 -4 6 -8q1 2 5 5l4 3q4 2 10 2q8 0 12 -2q4 -4 6 -8q2 -2 2 -12v-31q0 -6 -2 -8t-6 -2t-6 2t-2 8v26v9q0 1 -1 2t-1 2q-2 2 -6 2t-6 -2q-5 0 -5 -4q-2 -4 -2 -15v-20q0 -6 -2 -8t-6 -2t-6 2q0 1 -1 3.5t-1 4.5v24v9q0 4 -2 6t-6 2 q-7 0 -10 -6l-1 -6q-1 -6 -1 -9v-20q0 -6 -2 -8t-7 -2q-4 0 -6 2q0 1 -1 3.5t-1 4.5zM1251 459l6 -37q3 3 10 6.5t9 5.5q-10 19 -12 31q-2 -1 -6.5 -3t-6.5 -3zM1260 410q1 -9 8 -27.5t8 -28.5q24 -11 42 -1.5t28.5 26.5t7.5 38.5t-21 33.5q-28 12 -53 -2q1 -3 3 -8t3 -8 t0 -5q-2 -4 -12 -9t-14 -9zM1284 379q0 23 21 34t36 -3q-26 5 -36 -11q16 4 22 -14q-25 12 -43 -6z" />
<glyph unicode="&#xad;" horiz-adv-x="872" d="M201 467q3 28 24 48t54 22q46 4 93.5 5t121 0t86.5 -1q55 0 78.5 -45.5t1 -92t-79.5 -49.5q-156 -8 -293 -8q-30 0 -52.5 19t-29.5 46.5t-4 55.5z" />
<glyph unicode="&#xb4;" horiz-adv-x="696" d="M238 846q-4 26 11 35q3 2 7 2q67 2 129 86q19 19 42.5 13t39 -33t2.5 -50q-22 -41 -81 -64.5t-114 -21.5q-32 1 -36 33z" />
<glyph unicode="&#xbf;" d="M206 -85q8 82 44.5 157.5t104 142t155.5 104.5q119 52 160.5 119.5t56.5 231.5q4 40 46 49q44 10 79 -21q29 -26 27 -69q0 -6 -1 -19q-2 -42 -4 -65t-8.5 -66t-17 -70.5t-30.5 -66.5t-47 -67.5t-69 -58.5t-94 -54q-102 -46 -153 -111.5t-48 -130.5t50 -123q29 -36 71 -49 t82 -1t73 40.5t49 80t5 112.5q-9 52 41.5 77t103.5 1q57 -25 64 -91q10 -87 -16.5 -172.5t-88.5 -153t-161 -92.5t-236 9q-88 23 -145.5 78.5t-79 126t-13.5 152.5zM731 893q4 33 31.5 52t60.5 11q32 -8 51 -36t13 -62t-33 -52.5t-59 -10.5q-32 6 -51 35t-13 63z" />
<glyph unicode="&#xc0;" d="M-133 -171q12 12 33 24q78 55 164 174.5t155.5 255.5t139.5 296t115 280t82.5 224t41.5 113q52 126 179 174q108 41 207 9q86 -28 106 -97q5 -18 4 -37q-7 -171 -35.5 -639t-46.5 -538q-17 -81 -104 -110q-71 -24 -130 -2q-49 19 -36 55q2 8 8 16q43 62 86 526 q-26 27 -103.5 -5t-155 -94t-106.5 -114q-112 -233 -205 -358q-113 -142 -263 -191q-91 -29 -135 -9q-33 15 -1 47zM563 545q59 89 148 134.5t147 45.5q8 70 13.5 136t8 120.5t0 87.5t-9.5 33q-22 3 -52 -34t-63 -104.5t-64 -137t-67.5 -152.5t-60.5 -129zM784 1538 q-13 23 2.5 50t39 33t42.5 -13q62 -84 129 -86q16 0 19 -24q3 -32 -22 -43q-7 -3 -15 -3q-55 -2 -114 21.5t-81 64.5z" />
<glyph unicode="&#xc1;" d="M-133 -171q12 12 33 24q78 55 164 174.5t155.5 255.5t139.5 296t115 280t82.5 224t41.5 113q52 126 179 174q108 41 207 9q86 -28 106 -97q5 -18 4 -37q-7 -171 -35.5 -639t-46.5 -538q-17 -81 -104 -110q-71 -24 -130 -2q-49 19 -36 55q2 8 8 16q43 62 86 526 q-26 27 -103.5 -5t-155 -94t-106.5 -114q-112 -233 -205 -358q-113 -142 -263 -191q-91 -29 -135 -9q-33 15 -1 47zM563 545q59 89 148 134.5t147 45.5q8 70 13.5 136t8 120.5t0 87.5t-9.5 33q-22 3 -52 -34t-63 -104.5t-64 -137t-67.5 -152.5t-60.5 -129zM775 1485 q-4 26 11 35q3 2 7 2q67 2 129 86q19 19 42.5 13t39 -33t2.5 -50q-22 -41 -81 -64.5t-114 -21.5q-32 1 -36 33z" />
<glyph unicode="&#xc2;" d="M-133 -171q12 12 33 24q78 55 164 174.5t155.5 255.5t139.5 296t115 280t82.5 224t41.5 113q52 126 179 174q108 41 207 9q86 -28 106 -97q5 -18 4 -37q-7 -171 -35.5 -639t-46.5 -538q-17 -81 -104 -110q-71 -24 -130 -2q-49 19 -36 55q2 8 8 16q43 62 86 526 q-26 27 -103.5 -5t-155 -94t-106.5 -114q-112 -233 -205 -358q-113 -142 -263 -191q-91 -29 -135 -9q-33 15 -1 47zM563 545q59 89 148 134.5t147 45.5q8 70 13.5 136t8 120.5t0 87.5t-9.5 33q-22 3 -52 -34t-63 -104.5t-64 -137t-67.5 -152.5t-60.5 -129zM739 1503 q20 28 72.5 65.5t81.5 45.5q34 -7 96 -58t68 -67q7 -15 -16.5 -27t-50.5 -12.5t-42 10.5q-20 27 -55 62q-6 -7 -24.5 -30.5t-28.5 -33.5q-16 -11 -42.5 -7.5t-47 20t-11.5 32.5z" />
<glyph unicode="&#xc3;" d="M-133 -171q12 12 33 24q78 55 164 174.5t155.5 255.5t139.5 296t115 280t82.5 224t41.5 113q52 126 179 174q108 41 207 9q86 -28 106 -97q5 -18 4 -37q-7 -171 -35.5 -639t-46.5 -538q-17 -81 -104 -110q-71 -24 -130 -2q-49 19 -36 55q2 8 8 16q43 62 86 526 q-26 27 -103.5 -5t-155 -94t-106.5 -114q-112 -233 -205 -358q-113 -142 -263 -191q-91 -29 -135 -9q-33 15 -1 47zM563 545q59 89 148 134.5t147 45.5q8 70 13.5 136t8 120.5t0 87.5t-9.5 33q-22 3 -52 -34t-63 -104.5t-64 -137t-67.5 -152.5t-60.5 -129zM787 1477 q-13 33 11 62q12 13 29 20q34 12 75.5 -4.5t58.5 -8.5q34 18 48 -13q13 -29 -8 -58q-10 -15 -26 -21q-29 -9 -71 4.5t-79 -2.5q-27 -9 -38 21z" />
<glyph unicode="&#xc4;" d="M-133 -171q12 12 33 24q78 55 164 174.5t155.5 255.5t139.5 296t115 280t82.5 224t41.5 113q52 126 179 174q108 41 207 9q86 -28 106 -97q5 -18 4 -37q-7 -171 -35.5 -639t-46.5 -538q-17 -81 -104 -110q-71 -24 -130 -2q-49 19 -36 55q2 8 8 16q43 62 86 526 q-26 27 -103.5 -5t-155 -94t-106.5 -114q-112 -233 -205 -358q-113 -142 -263 -191q-91 -29 -135 -9q-33 15 -1 47zM563 545q59 89 148 134.5t147 45.5q8 70 13.5 136t8 120.5t0 87.5t-9.5 33q-22 3 -52 -34t-63 -104.5t-64 -137t-67.5 -152.5t-60.5 -129zM801 1518 q0 35 8.5 52t36.5 17q29 0 37 -16.5t8 -52.5q0 -24 -1.5 -35.5t-12 -22t-31.5 -10.5q-27 0 -36 17.5t-9 50.5zM907 1518q0 35 8.5 52t36.5 17q29 0 37 -16.5t8 -52.5q0 -24 -1.5 -35.5t-12 -22t-31.5 -10.5q-27 0 -36 17.5t-9 50.5z" />
<glyph unicode="&#xc5;" d="M-133 -171q12 12 33 24q78 55 164 174.5t155.5 255.5t139.5 296t115 280t82.5 224t41.5 113q52 126 179 174q108 41 207 9q86 -28 106 -97q5 -18 4 -37q-7 -171 -35.5 -639t-46.5 -538q-17 -81 -104 -110q-71 -24 -130 -2q-49 19 -36 55q2 8 8 16q43 62 86 526 q-26 27 -103.5 -5t-155 -94t-106.5 -114q-112 -233 -205 -358q-113 -142 -263 -191q-91 -29 -135 -9q-33 15 -1 47zM563 545q59 89 148 134.5t147 45.5q8 70 13.5 136t8 120.5t0 87.5t-9.5 33q-22 3 -52 -34t-63 -104.5t-64 -137t-67.5 -152.5t-60.5 -129zM786 1452 q0 46 34 78.5t81 32.5t82 -32.5t35 -78.5q0 -47 -34.5 -80t-82.5 -33q-47 0 -81 33t-34 80zM854 1444q0 -21 13.5 -36t33.5 -15t33.5 15t13.5 36q0 22 -13.5 37.5t-33.5 15.5t-33.5 -15.5t-13.5 -37.5z" />
<glyph unicode="&#xc6;" horiz-adv-x="1730" d="M-133 -171q12 12 33 24q78 55 164 174.5t155.5 255.5t139.5 296t115 280t82.5 224t41.5 113q32 78 96 127.5t132 62t132 -1t101 -51.5q25 37 86 55.5t158 19.5t189.5 -6t225.5 -22q133 -19 110 -134q-17 -86 -102 -181q-43 -48 -77 -66q5 20 -24.5 40.5t-79 34t-106 21.5 t-110.5 4.5t-86 -18.5q-97 -363 -100 -376q235 -11 285 8q18 7 18 18q34 -25 38 -85.5t-27 -116.5t-87 -68q-90 -12 -289 -12q-9 -36 -25.5 -92t-19.5 -66q-1 -16 -4 -43.5t-4 -38.5q46 -15 149 -26.5t220.5 -12.5t213.5 27.5t113 87.5q3 9 11 -11q23 -53 8 -120 q-24 -104 -141 -148q-248 -94 -564 -37q-57 12 -77 17q-57 -46 -138 -40q-65 5 -81 39q-8 19 8 42q43 62 86 526q-26 27 -103.5 -5t-155 -94t-106.5 -114q-112 -233 -205 -358q-113 -142 -263 -191q-91 -29 -135 -9q-33 15 -1 47zM563 545q59 89 148 134.5t147 45.5 q8 70 13.5 136t8 120.5t0 87.5t-9.5 33q-22 3 -52 -34t-63 -104.5t-64 -137t-67.5 -152.5t-60.5 -129z" />
<glyph unicode="&#xc7;" horiz-adv-x="1110" d="M18 637q44 260 185 465q150 219 349 275q93 26 191 12q72 -11 126.5 -39.5t87 -68.5t52 -87.5t23.5 -100t-1 -101.5t-19 -95q-48 -135 -160 -148q-77 -9 -144 40q-54 39 -49 76q2 17 17 28q27 20 34 72.5t-18.5 101t-81.5 53.5q-53 4 -107 -32.5t-99.5 -100.5t-82.5 -148 t-60 -173.5t-28 -178.5t9.5 -162.5t57.5 -126t110 -67.5q73 -13 129.5 -7t99.5 37.5t72 70t48.5 90.5t29 98.5t12.5 95.5q3 54 56.5 79.5t106.5 -3t54 -107.5q-5 -73 -27 -145t-65.5 -141.5t-103 -123.5t-145 -88.5t-185.5 -39.5q-2 -6 -7.5 -17.5t-7.5 -17.5 q97 -33 66 -115q-10 -28 -31.5 -43.5t-46.5 -16.5t-50 5.5t-44 19.5q-18 15 -16.5 29.5t17 24t27.5 2.5q15 -9 30.5 -15t31.5 -4t22 17q4 6 1.5 11.5t-3 10t-6.5 9t-9 7t-11 6t-12 5.5t-12.5 4.5t-12.5 3.5t-11.5 3t-9.5 3q-11 3 13 68q-8 1 -18 2t-22.5 2t-19.5 2 q-208 31 -296 231q-81 187 -36 453z" />
<glyph unicode="&#xc8;" horiz-adv-x="935" d="M0 160q2 46 51 264t113 491.5t86 389.5q5 20 16.5 36t31.5 26.5t41.5 18.5t55 12t62.5 6t74.5 0t79.5 -4t89 -7.5t92.5 -9.5t98.5 -11q133 -19 110 -134q-18 -86 -103 -181q-43 -48 -77 -66q5 20 -21 41t-71 36t-96 24t-101.5 6.5t-82.5 -17.5q-11 -41 -46 -171t-55 -205 q235 -11 285 8q18 7 18 18q34 -25 38 -85.5t-27 -116.5t-87 -68q-90 -12 -288 -12q-17 -60 -40.5 -140t-27.5 -94q17 -11 89.5 -23.5t170.5 -18t194 -0.5t169.5 33.5t87.5 78.5q3 9 11 -11q22 -53 7 -120q-24 -104 -141 -148q-248 -94 -563 -37q-141 25 -193.5 70.5 t-50.5 120.5zM610 1538q-13 23 2.5 50t39 33t42.5 -13q62 -84 129 -86q16 0 19 -24q3 -32 -22 -43q-7 -3 -15 -3q-55 -2 -114 21.5t-81 64.5z" />
<glyph unicode="&#xc9;" horiz-adv-x="935" d="M0 160q2 46 51 264t113 491.5t86 389.5q5 20 16.5 36t31.5 26.5t41.5 18.5t55 12t62.5 6t74.5 0t79.5 -4t89 -7.5t92.5 -9.5t98.5 -11q133 -19 110 -134q-18 -86 -103 -181q-43 -48 -77 -66q5 20 -21 41t-71 36t-96 24t-101.5 6.5t-82.5 -17.5q-11 -41 -46 -171t-55 -205 q235 -11 285 8q18 7 18 18q34 -25 38 -85.5t-27 -116.5t-87 -68q-90 -12 -288 -12q-17 -60 -40.5 -140t-27.5 -94q17 -11 89.5 -23.5t170.5 -18t194 -0.5t169.5 33.5t87.5 78.5q3 9 11 -11q22 -53 7 -120q-24 -104 -141 -148q-248 -94 -563 -37q-141 25 -193.5 70.5 t-50.5 120.5zM596 1485q-4 26 11 35q3 2 7 2q67 2 129 86q19 19 42.5 13t39 -33t2.5 -50q-22 -41 -80.5 -64.5t-113.5 -21.5q-32 1 -37 33z" />
<glyph unicode="&#xca;" horiz-adv-x="935" d="M0 160q2 46 51 264t113 491.5t86 389.5q5 20 16.5 36t31.5 26.5t41.5 18.5t55 12t62.5 6t74.5 0t79.5 -4t89 -7.5t92.5 -9.5t98.5 -11q133 -19 110 -134q-18 -86 -103 -181q-43 -48 -77 -66q5 20 -21 41t-71 36t-96 24t-101.5 6.5t-82.5 -17.5q-11 -41 -46 -171t-55 -205 q235 -11 285 8q18 7 18 18q34 -25 38 -85.5t-27 -116.5t-87 -68q-90 -12 -288 -12q-17 -60 -40.5 -140t-27.5 -94q17 -11 89.5 -23.5t170.5 -18t194 -0.5t169.5 33.5t87.5 78.5q3 9 11 -11q22 -53 7 -120q-24 -104 -141 -148q-248 -94 -563 -37q-141 25 -193.5 70.5 t-50.5 120.5zM563 1503q20 28 72.5 65.5t81.5 45.5q34 -7 96 -58t68 -67q7 -15 -16.5 -27t-50.5 -12.5t-42 10.5q-20 27 -55 62q-6 -7 -24.5 -30.5t-28.5 -33.5q-16 -11 -42.5 -7.5t-47 20t-11.5 32.5z" />
<glyph unicode="&#xcb;" horiz-adv-x="935" d="M0 160q2 46 51 264t113 491.5t86 389.5q5 20 16.5 36t31.5 26.5t41.5 18.5t55 12t62.5 6t74.5 0t79.5 -4t89 -7.5t92.5 -9.5t98.5 -11q133 -19 110 -134q-18 -86 -103 -181q-43 -48 -77 -66q5 20 -21 41t-71 36t-96 24t-101.5 6.5t-82.5 -17.5q-11 -41 -46 -171t-55 -205 q235 -11 285 8q18 7 18 18q34 -25 38 -85.5t-27 -116.5t-87 -68q-90 -12 -288 -12q-17 -60 -40.5 -140t-27.5 -94q17 -11 89.5 -23.5t170.5 -18t194 -0.5t169.5 33.5t87.5 78.5q3 9 11 -11q22 -53 7 -120q-24 -104 -141 -148q-248 -94 -563 -37q-141 25 -193.5 70.5 t-50.5 120.5zM621 1518q0 35 8.5 52t36.5 17q29 0 37 -16.5t8 -52.5q0 -24 -1.5 -35.5t-12 -22t-31.5 -10.5q-27 0 -36 17.5t-9 50.5zM727 1518q0 35 8.5 52t36.5 17q29 0 37 -16.5t8 -52.5q0 -24 -1.5 -35.5t-12 -22t-31.5 -10.5q-27 0 -36 17.5t-9 50.5z" />
<glyph unicode="&#xcc;" horiz-adv-x="430" d="M0 119q156 387 143 1229q0 38 73 43t143.5 -24.5t64.5 -74.5q-28 -378 -82 -701t-117 -521q-19 -58 -42.5 -89t-46 -33.5t-45.5 10.5t-41 39.5t-31.5 58.5t-18.5 63zM184 1538q-13 23 2.5 50t39 33t42.5 -13q62 -84 129 -86q16 0 19 -24q3 -32 -22 -43q-7 -3 -15 -3 q-55 -2 -114 21.5t-81 64.5z" />
<glyph unicode="&#xcd;" horiz-adv-x="430" d="M0 119q156 387 143 1229q0 38 73 43t143.5 -24.5t64.5 -74.5q-28 -378 -82 -701t-117 -521q-19 -58 -42.5 -89t-46 -33.5t-45.5 10.5t-41 39.5t-31.5 58.5t-18.5 63zM181 1485q-4 26 11 35q3 2 7 2q67 2 129 86q19 19 42.5 13t39 -33t2.5 -50q-22 -41 -81 -64.5 t-114 -21.5q-32 1 -36 33z" />
<glyph unicode="&#xce;" horiz-adv-x="430" d="M0 119q156 387 143 1229q0 38 73 43t143.5 -24.5t64.5 -74.5q-28 -378 -82 -701t-117 -521q-19 -58 -42.5 -89t-46 -33.5t-45.5 10.5t-41 39.5t-31.5 58.5t-18.5 63zM143 1503q20 28 72.5 65.5t81.5 45.5q34 -7 96 -58t68 -67q7 -15 -16.5 -27t-50.5 -12.5t-42 10.5 q-20 27 -55 62q-6 -7 -24.5 -30.5t-28.5 -33.5q-16 -11 -42.5 -7.5t-47 20t-11.5 32.5z" />
<glyph unicode="&#xcf;" horiz-adv-x="430" d="M0 119q156 387 143 1229q0 38 73 43t143.5 -24.5t64.5 -74.5q-28 -378 -82 -701t-117 -521q-19 -58 -42.5 -89t-46 -33.5t-45.5 10.5t-41 39.5t-31.5 58.5t-18.5 63zM195 1518q0 35 8.5 52t36.5 17q29 0 37 -16.5t8 -52.5q0 -24 -1.5 -35.5t-12 -22t-31.5 -10.5 q-27 0 -36 17.5t-9 50.5zM301 1518q0 35 8.5 52t36.5 17q29 0 37 -16.5t8 -52.5q0 -24 -1.5 -35.5t-12 -22t-31.5 -10.5q-27 0 -36 17.5t-9 50.5z" />
<glyph unicode="&#xd0;" horiz-adv-x="1067" d="M0 74q17 119 43 446q-44 29 -42 92.5t54 81.5q11 123 21 264q-28 45 14 63q45 19 111 -8q85 -34 112 -114q17 -50 6 -111q-6 -31 -14 -86h76q55 0 78.5 -46t1 -92.5t-79.5 -47.5q-23 0 -60 -1t-51 -1q-45 -249 -82 -403q115 -21 213 5.5t165.5 89.5t112 148t62.5 185 q31 170 -6 307.5t-137 209t-242 50.5q-128 -33 -189.5 -12.5t-88.5 114.5q-22 68 17 120t81 58q83 12 168 9t172.5 -23t164 -60.5t142 -103t106.5 -150t57.5 -202t-5.5 -258.5q-99 -700 -799 -647q-100 18 -143.5 48.5t-38.5 74.5z" />
<glyph unicode="&#xd1;" horiz-adv-x="1150" d="M8 33q94 178 173 536.5t85 720.5q0 5 -3 15.5t-3.5 18.5t3.5 18t22.5 20.5t50.5 19.5q34 10 111 11.5t143.5 -10.5t64.5 -35q-61 -557 -10 -967q26 -205 61 -251q12 -15 21 -1q43 71 63 173.5t22 216.5t1.5 231t11 249.5t41.5 239.5q43 171 232 207q64 13 112 10t76 -18 t24 -52.5t-46 -93.5q-56 -77 -96 -192.5t-60 -233.5t-41 -253t-38 -251.5t-50.5 -228.5t-79.5 -184q-41 -64 -94.5 -88.5t-118.5 1.5t-127 109q-26 34 -45 87.5t-29.5 129t-17 147t-8.5 176.5t-2.5 179t0 192t0.5 181q-3 -283 -66 -609.5t-127 -465.5q-13 -32 -97 -40 q-91 -7 -141 22q-42 23 -18 63zM679 1477q-13 33 11 62q12 13 29 20q34 12 75 -4.5t58 -8.5q34 18 48 -13q13 -29 -8 -58q-10 -15 -26 -21q-29 -9 -70.5 4.5t-78.5 -2.5q-27 -9 -38 21z" />
<glyph unicode="&#xd2;" horiz-adv-x="1085" d="M5 582.5q16 142.5 64 283.5t126.5 260t171.5 193q59 51 142.5 67.5t149.5 6t117 -32.5q143 -68 198 -232.5t32 -465.5q-19 -241 -129 -412.5t-273 -263.5q-52 -23 -114 -32.5t-127 -4t-127 38t-105 88.5q-79 94 -110.5 229t-15.5 277.5zM243.5 472.5q-6.5 -109.5 28 -210 t111.5 -158.5q86 7 158 60.5t116.5 134.5t74 178.5t33 195.5t-8 181.5t-47.5 140.5t-88 68q-63 13 -130 -35.5t-119.5 -134.5t-87 -198.5t-41 -222zM606 1538q-13 23 2.5 50t39 33t42.5 -13q62 -84 129 -86q16 0 19 -24q3 -32 -22 -43q-7 -3 -15 -3q-55 -2 -114 21.5 t-81 64.5z" />
<glyph unicode="&#xd3;" horiz-adv-x="1085" d="M5 582.5q16 142.5 64 283.5t126.5 260t171.5 193q59 51 142.5 67.5t149.5 6t117 -32.5q143 -68 198 -232.5t32 -465.5q-19 -241 -129 -412.5t-273 -263.5q-52 -23 -114 -32.5t-127 -4t-127 38t-105 88.5q-79 94 -110.5 229t-15.5 277.5zM243.5 472.5q-6.5 -109.5 28 -210 t111.5 -158.5q86 7 158 60.5t116.5 134.5t74 178.5t33 195.5t-8 181.5t-47.5 140.5t-88 68q-63 13 -130 -35.5t-119.5 -134.5t-87 -198.5t-41 -222zM592 1485q-4 26 11 35q3 2 7 2q67 2 129 86q19 19 42.5 13t39 -33t2.5 -50q-22 -41 -80.5 -64.5t-113.5 -21.5q-32 1 -37 33 z" />
<glyph unicode="&#xd4;" horiz-adv-x="1085" d="M5 582.5q16 142.5 64 283.5t126.5 260t171.5 193q59 51 142.5 67.5t149.5 6t117 -32.5q143 -68 198 -232.5t32 -465.5q-19 -241 -129 -412.5t-273 -263.5q-52 -23 -114 -32.5t-127 -4t-127 38t-105 88.5q-79 94 -110.5 229t-15.5 277.5zM243.5 472.5q-6.5 -109.5 28 -210 t111.5 -158.5q86 7 158 60.5t116.5 134.5t74 178.5t33 195.5t-8 181.5t-47.5 140.5t-88 68q-63 13 -130 -35.5t-119.5 -134.5t-87 -198.5t-41 -222zM559 1503q20 28 72.5 65.5t81.5 45.5q34 -7 96 -58t68 -67q7 -15 -16.5 -27t-50.5 -12.5t-42 10.5q-20 27 -55 62 q-5 -6 -24.5 -30t-29.5 -34q-16 -11 -42 -7.5t-46.5 20t-11.5 32.5z" />
<glyph unicode="&#xd5;" horiz-adv-x="1085" d="M5 582.5q16 142.5 64 283.5t126.5 260t171.5 193q59 51 142.5 67.5t149.5 6t117 -32.5q143 -68 198 -232.5t32 -465.5q-19 -241 -129 -412.5t-273 -263.5q-52 -23 -114 -32.5t-127 -4t-127 38t-105 88.5q-79 94 -110.5 229t-15.5 277.5zM243.5 472.5q-6.5 -109.5 28 -210 t111.5 -158.5q86 7 158 60.5t116.5 134.5t74 178.5t33 195.5t-8 181.5t-47.5 140.5t-88 68q-63 13 -130 -35.5t-119.5 -134.5t-87 -198.5t-41 -222zM607 1477q-13 33 11 62q12 13 29 20q34 12 75 -4.5t58 -8.5q34 18 48 -13q13 -29 -7 -58q-10 -15 -26 -21q-29 -9 -71 4.5 t-79 -2.5q-27 -9 -38 21z" />
<glyph unicode="&#xd6;" horiz-adv-x="1085" d="M5 582.5q16 142.5 64 283.5t126.5 260t171.5 193q59 51 142.5 67.5t149.5 6t117 -32.5q143 -68 198 -232.5t32 -465.5q-19 -241 -129 -412.5t-273 -263.5q-52 -23 -114 -32.5t-127 -4t-127 38t-105 88.5q-79 94 -110.5 229t-15.5 277.5zM243.5 472.5q-6.5 -109.5 28 -210 t111.5 -158.5q86 7 158 60.5t116.5 134.5t74 178.5t33 195.5t-8 181.5t-47.5 140.5t-88 68q-63 13 -130 -35.5t-119.5 -134.5t-87 -198.5t-41 -222zM616 1518q0 34 9 51.5t37 17.5q29 0 37 -16.5t8 -52.5q0 -24 -1.5 -35.5t-12 -22t-31.5 -10.5q-46 0 -46 68zM723 1518 q0 35 8.5 52t36.5 17q29 0 37 -16.5t8 -52.5q0 -24 -1.5 -35.5t-12 -22t-31.5 -10.5q-27 0 -36 17.5t-9 50.5z" />
<glyph unicode="&#xd7;" horiz-adv-x="634" d="M104.5 316.5q2.5 40.5 29 67.5t62.5 36.5t74 -23.5q29 -29 45 -41l39 39q23 23 54.5 25.5t57.5 -13t44.5 -39t18 -54.5t-24.5 -58q-7 -7 -21.5 -22.5t-21.5 -22.5l39 -39q18 -18 25 -40t2 -41.5t-16 -38t-29 -30t-38 -16.5t-43 1t-43 24q-6 5 -19 17t-20 18 q-7 -6 -40 -39q-25 -26 -56.5 -29.5t-56.5 12.5t-41.5 40t-14.5 57t27 61q11 11 35 39l-41 41q-29 28 -26.5 68.5z" />
<glyph unicode="&#xd8;" horiz-adv-x="1085" d="M5 582.5q16 142.5 64 283.5t126.5 260t171.5 193q80 69 206 76q55 40 129.5 24t102.5 -76q126 -72 174.5 -234t26.5 -447q-19 -241 -129 -412.5t-273 -263.5q-78 -33 -166 -39q-28 -19 -58 -17t-50 25q-128 24 -199 121q-79 94 -110.5 229t-15.5 277.5zM248.5 365.5 q14.5 -124.5 77.5 -205.5q18 109 72 434.5t69 415.5q-69 -60 -124 -169t-82 -230t-12.5 -245.5zM522 152q81 51 138.5 153.5t81.5 216.5t22 228t-33 194q-38 -147 -115.5 -439t-93.5 -353z" />
<glyph unicode="&#xd9;" horiz-adv-x="1036" d="M1 490.5q-2 132.5 17.5 259.5t47 246t53 199.5t43.5 121.5q33 69 157 85q99 13 165 -13q53 -20 30 -50q-60 -92 -117 -210.5t-103.5 -248t-70 -257t-21.5 -234.5t46 -184.5t129 -102.5q87 -17 155 35.5t109 164t57 264.5t1 347.5t-60 403.5q-11 41 48 57q69 19 152 -9 q96 -33 114 -105q2 -9 3 -19q15 -174 14.5 -328.5t-17.5 -293t-52 -250t-89 -199.5t-128.5 -140t-171 -73t-215.5 2q-107 24 -175.5 103.5t-93.5 187.5t-27 240.5zM469 1538q-13 23 2.5 50t39 33t42.5 -13q62 -84 129 -86q16 0 19 -24q3 -32 -22 -43q-7 -3 -15 -3 q-55 -2 -114 21.5t-81 64.5z" />
<glyph unicode="&#xda;" horiz-adv-x="1036" d="M1 490.5q-2 132.5 17.5 259.5t47 246t53 199.5t43.5 121.5q33 69 157 85q99 13 165 -13q53 -20 30 -50q-60 -92 -117 -210.5t-103.5 -248t-70 -257t-21.5 -234.5t46 -184.5t129 -102.5q87 -17 155 35.5t109 164t57 264.5t1 347.5t-60 403.5q-11 41 48 57q69 19 152 -9 q96 -33 114 -105q2 -9 3 -19q15 -174 14.5 -328.5t-17.5 -293t-52 -250t-89 -199.5t-128.5 -140t-171 -73t-215.5 2q-107 24 -175.5 103.5t-93.5 187.5t-27 240.5zM459 1485q-4 26 11 35q3 2 7 2q67 2 129 86q19 19 42.5 13t39 -33t2.5 -50q-22 -41 -80.5 -64.5 t-113.5 -21.5q-32 1 -37 33z" />
<glyph unicode="&#xdb;" horiz-adv-x="1036" d="M1 490.5q-2 132.5 17.5 259.5t47 246t53 199.5t43.5 121.5q33 69 157 85q99 13 165 -13q53 -20 30 -50q-60 -92 -117 -210.5t-103.5 -248t-70 -257t-21.5 -234.5t46 -184.5t129 -102.5q87 -17 155 35.5t109 164t57 264.5t1 347.5t-60 403.5q-11 41 48 57q69 19 152 -9 q96 -33 114 -105q2 -9 3 -19q15 -174 14.5 -328.5t-17.5 -293t-52 -250t-89 -199.5t-128.5 -140t-171 -73t-215.5 2q-107 24 -175.5 103.5t-93.5 187.5t-27 240.5zM428 1503q20 28 72.5 65.5t81.5 45.5q34 -7 95.5 -58t67.5 -67q7 -15 -16.5 -27t-50 -12.5t-41.5 10.5 q-20 27 -55 62q-5 -6 -24.5 -30t-29.5 -34q-16 -11 -42 -7.5t-46.5 20t-11.5 32.5z" />
<glyph unicode="&#xdc;" horiz-adv-x="1036" d="M1 490.5q-2 132.5 17.5 259.5t47 246t53 199.5t43.5 121.5q33 69 157 85q99 13 165 -13q53 -20 30 -50q-60 -92 -117 -210.5t-103.5 -248t-70 -257t-21.5 -234.5t46 -184.5t129 -102.5q87 -17 155 35.5t109 164t57 264.5t1 347.5t-60 403.5q-11 41 48 57q69 19 152 -9 q96 -33 114 -105q2 -9 3 -19q15 -174 14.5 -328.5t-17.5 -293t-52 -250t-89 -199.5t-128.5 -140t-171 -73t-215.5 2q-107 24 -175.5 103.5t-93.5 187.5t-27 240.5zM489 1518q0 34 9 51.5t37 17.5q29 0 37 -16.5t8 -52.5q0 -24 -1.5 -35.5t-12 -22t-31.5 -10.5q-46 0 -46 68z M596 1518q0 35 8.5 52t36.5 17q29 0 37 -16.5t8 -52.5q0 -24 -1.5 -35.5t-12 -22t-31.5 -10.5q-27 0 -36 17.5t-9 50.5z" />
<glyph unicode="&#xdd;" horiz-adv-x="1026" d="M1 874q7 94 22.5 183t33.5 152.5t35 101.5q44 88 136 86q70 -1 118 -47q46 -47 21 -90q-14 -21 -34.5 -68t-43.5 -116.5t-40 -145t-17.5 -153.5t17 -142t70 -110t136.5 -58q68 -8 119.5 -0.5t83.5 36t53 58t26 90t6 107t-11.5 132.5t-23 144t-30.5 163q-7 34 -10 52 q-17 45 32 87q50 44 116 38q87 -7 123 -104q8 -21 13 -47q28 -147 32.5 -282t-17.5 -254t-69 -209.5t-127 -147t-187 -66.5q-29 -93 -95 -256q-9 -27 -32 -43.5t-47 -17t-44.5 20t-25.5 59.5q-4 25 -8.5 65t-9.5 102t-7 85q-97 23 -164.5 84.5t-99 142t-44.5 177.5t-6 191z M408 1485q-4 26 11 35q3 2 7 2q67 2 129 86q19 19 42.5 13t39 -33t2.5 -50q-22 -41 -81 -64.5t-114 -21.5q-32 1 -36 33z" />
<glyph unicode="&#xe0;" horiz-adv-x="923" d="M-24 401q5 157 101 263q113 124 306 114q109 -6 174 -69q4 39 33 56.5t67 13.5t75.5 -18t62 -38t22.5 -47q-4 -36 -20 -153.5t-23 -186.5q-5 -47 3 -74.5t34 -19.5q30 8 60 53t44 78.5t19 50.5q22 59 47 66q15 4 20 -20q6 -28 -6 -85q-17 -84 -47.5 -156t-73.5 -128 t-102.5 -82.5t-126.5 -14.5q-59 11 -96 70q-91 -72 -221 -72q-175 1 -273 133q-84 112 -79 266zM166 298q19 -86 93 -121q29 -14 65 -17q66 -5 116.5 27.5t69 83.5t15.5 104t-42 94t-104 49q-123 15 -183 -69q-48 -66 -30 -151zM248 899q-13 23 2.5 50t39 33t42.5 -13 q62 -84 129 -86q16 0 18 -24q4 -32 -22 -43q-7 -3 -15 -3q-55 -2 -113.5 21.5t-80.5 64.5z" />
<glyph unicode="&#xe1;" horiz-adv-x="923" d="M-24 401q5 157 101 263q113 124 306 114q109 -6 174 -69q4 39 33 56.5t67 13.5t75.5 -18t62 -38t22.5 -47q-4 -36 -20 -153.5t-23 -186.5q-5 -47 3 -74.5t34 -19.5q30 8 60 53t44 78.5t19 50.5q22 59 47 66q15 4 20 -20q6 -28 -6 -85q-17 -84 -47.5 -156t-73.5 -128 t-102.5 -82.5t-126.5 -14.5q-59 11 -96 70q-91 -72 -221 -72q-175 1 -273 133q-84 112 -79 266zM166 298q19 -86 93 -121q29 -14 65 -17q66 -5 116.5 27.5t69 83.5t15.5 104t-42 94t-104 49q-123 15 -183 -69q-48 -66 -30 -151zM226 846q-4 26 11 35q3 2 7 2q67 2 129 86 q19 19 42.5 13t39 -33t2.5 -50q-22 -41 -81 -64.5t-114 -21.5q-32 1 -36 33z" />
<glyph unicode="&#xe2;" horiz-adv-x="923" d="M-24 401q5 157 101 263q113 124 306 114q109 -6 174 -69q4 39 33 56.5t67 13.5t75.5 -18t62 -38t22.5 -47q-4 -36 -20 -153.5t-23 -186.5q-5 -47 3 -74.5t34 -19.5q30 8 60 53t44 78.5t19 50.5q22 59 47 66q15 4 20 -20q6 -28 -6 -85q-17 -84 -47.5 -156t-73.5 -128 t-102.5 -82.5t-126.5 -14.5q-59 11 -96 70q-91 -72 -221 -72q-175 1 -273 133q-84 112 -79 266zM166 298q19 -86 93 -121q29 -14 65 -17q66 -5 116.5 27.5t69 83.5t15.5 104t-42 94t-104 49q-123 15 -183 -69q-48 -66 -30 -151zM199 864q20 28 72 65.5t81 45.5q34 -7 96 -58 t68 -67q7 -15 -16.5 -27t-50 -12.5t-41.5 10.5q-17 23 -56 62q-6 -7 -24.5 -30.5t-28.5 -33.5q-16 -11 -42 -7.5t-46.5 20t-11.5 32.5z" />
<glyph unicode="&#xe3;" horiz-adv-x="923" d="M-24 401q5 157 101 263q113 124 306 114q109 -6 174 -69q4 39 33 56.5t67 13.5t75.5 -18t62 -38t22.5 -47q-4 -36 -20 -153.5t-23 -186.5q-5 -47 3 -74.5t34 -19.5q30 8 60 53t44 78.5t19 50.5q22 59 47 66q15 4 20 -20q6 -28 -6 -85q-17 -84 -47.5 -156t-73.5 -128 t-102.5 -82.5t-126.5 -14.5q-59 11 -96 70q-91 -72 -221 -72q-175 1 -273 133q-84 112 -79 266zM166 298q19 -86 93 -121q29 -14 65 -17q66 -5 116.5 27.5t69 83.5t15.5 104t-42 94t-104 49q-123 15 -183 -69q-48 -66 -30 -151zM238 838q-12 33 12 62q12 13 29 20 q34 12 75 -4.5t58 -8.5q34 18 48 -13q13 -29 -8 -58q-10 -15 -26 -21q-29 -9 -71 4.5t-79 -2.5q-27 -9 -38 21z" />
<glyph unicode="&#xe4;" horiz-adv-x="923" d="M-24 401q5 157 101 263q113 124 306 114q109 -6 174 -69q4 39 33 56.5t67 13.5t75.5 -18t62 -38t22.5 -47q-4 -36 -20 -153.5t-23 -186.5q-5 -47 3 -74.5t34 -19.5q30 8 60 53t44 78.5t19 50.5q22 59 47 66q15 4 20 -20q6 -28 -6 -85q-17 -84 -47.5 -156t-73.5 -128 t-102.5 -82.5t-126.5 -14.5q-59 11 -96 70q-91 -72 -221 -72q-175 1 -273 133q-84 112 -79 266zM166 298q19 -86 93 -121q29 -14 65 -17q66 -5 116.5 27.5t69 83.5t15.5 104t-42 94t-104 49q-123 15 -183 -69q-48 -66 -30 -151zM260 879q0 35 8.5 52t36.5 17q29 0 37 -16.5 t8 -52.5q0 -24 -1.5 -35.5t-12 -22t-31.5 -10.5q-27 0 -36 17.5t-9 50.5zM367 879q0 35 8.5 52t36.5 17q29 0 37 -16.5t8 -52.5q0 -24 -1.5 -35.5t-12 -22t-31.5 -10.5q-27 0 -36 17.5t-9 50.5z" />
<glyph unicode="&#xe5;" horiz-adv-x="923" d="M-24 401q5 157 101 263q113 124 306 114q109 -6 174 -69q4 39 33 56.5t67 13.5t75.5 -18t62 -38t22.5 -47q-4 -36 -20 -153.5t-23 -186.5q-5 -47 3 -74.5t34 -19.5q30 8 60 53t44 78.5t19 50.5q22 59 47 66q15 4 20 -20q6 -28 -6 -85q-17 -84 -47.5 -156t-73.5 -128 t-102.5 -82.5t-126.5 -14.5q-59 11 -96 70q-91 -72 -221 -72q-175 1 -273 133q-84 112 -79 266zM166 298q19 -86 93 -121q29 -14 65 -17q66 -5 116.5 27.5t69 83.5t15.5 104t-42 94t-104 49q-123 15 -183 -69q-48 -66 -30 -151zM231 920q0 46 34 78t81 32q48 0 82.5 -32.5 t34.5 -77.5q0 -47 -34.5 -80t-82.5 -33q-47 0 -81 33t-34 80zM299 911q0 -21 13.5 -36t33.5 -15t33.5 15t13.5 36q0 22 -13.5 38t-33.5 16t-33.5 -16t-13.5 -38z" />
<glyph unicode="&#xe6;" horiz-adv-x="1521" d="M-26 401q5 157 101 263q113 124 306 114q109 -6 174 -69q4 39 33 56.5t67 13.5t75.5 -18t62 -38t22.5 -47q-1 -11 -6 -52.5t-8 -68.5q55 110 159 172.5t222 50.5q123 -12 186 -113q57 -93 33 -204q-25 -120 -132 -183q-106 -62 -263 -45q41 -61 127 -73q68 -8 142.5 13.5 t147.5 83t111 155.5q20 70 48 79q21 7 26 -25q6 -30 -6 -83q-39 -176 -136.5 -269.5t-273.5 -111.5q-209 -20 -330 98q-87 -118 -219 -96q-59 11 -96 70q-91 -72 -221 -72q-175 1 -273 133q-84 112 -79 266zM164 298q19 -86 93 -121q29 -14 65 -17q66 -5 116.5 27.5t69 83.5 t15.5 104t-42 94t-104 49q-123 15 -183 -69q-48 -66 -30 -151zM973 362q53 -16 103.5 -0.5t84.5 52.5q25 42 14.5 71.5t-42.5 32.5q-67 9 -111 -39t-49 -117z" />
<glyph unicode="&#xe7;" horiz-adv-x="733" d="M0 369q1 118 60.5 215.5t157.5 149.5t208 44q68 -4 116 -27.5t71 -58.5t29 -79t-5.5 -89.5t-36.5 -89.5q-63 -107 -150 -111q-53 -3 -79 30q-21 26 0 48q26 32 34.5 58.5t1 42t-29.5 18.5q-91 10 -137.5 -73.5t-10 -177t147.5 -107.5q123 -18 217.5 44t148.5 208 q21 68 51 76q23 6 30 -28q6 -31 -5 -79q-35 -149 -134.5 -256t-248.5 -123q-5 -1 -16.5 -2t-16.5 -2q-7 -11 -14 -37q93 -29 66 -115q-10 -28 -32 -42.5t-47.5 -15.5t-50.5 6t-44 20q-18 15 -16.5 29.5t17 23t27.5 0.5q14 -9 30 -14.5t32 -3t22 17.5q4 6 1.5 11.5t-3 10 t-6.5 9t-9 7t-11 6t-12 5.5t-12.5 4.5t-12.5 3.5t-11.5 3t-9.5 3q-5 0 -0.5 20.5t15.5 49.5q-152 18 -237 122.5t-85 244.5z" />
<glyph unicode="&#xe8;" horiz-adv-x="743" d="M-25 369q1 118 60.5 216.5t157.5 150.5t208 42q123 -12 186 -113q57 -93 33 -204q-25 -120 -132 -183q-106 -62 -263 -45q45 -62 127 -73q50 -5 106 6.5t112 39.5t105.5 81.5t78.5 124.5q20 71 48 80q17 5 23 -24q7 -30 -4 -85q-69 -346 -409 -381q-103 -11 -188 15.5 t-138.5 79t-82.5 123t-28 149.5zM193 362q53 -16 103.5 -0.5t84.5 52.5q25 42 14 71.5t-43 32.5q-67 9 -110.5 -39t-48.5 -117zM262 899q-13 23 2.5 50t39 33t42.5 -13q62 -84 129 -86q16 0 19 -24q3 -32 -22 -43q-7 -3 -15 -3q-55 -2 -114 21.5t-81 64.5z" />
<glyph unicode="&#xe9;" horiz-adv-x="743" d="M-25 369q1 118 60.5 216.5t157.5 150.5t208 42q123 -12 186 -113q57 -93 33 -204q-25 -120 -132 -183q-106 -62 -263 -45q45 -62 127 -73q50 -5 106 6.5t112 39.5t105.5 81.5t78.5 124.5q20 71 48 80q17 5 23 -24q7 -30 -4 -85q-69 -346 -409 -381q-103 -11 -188 15.5 t-138.5 79t-82.5 123t-28 149.5zM193 362q53 -16 103.5 -0.5t84.5 52.5q25 42 14 71.5t-43 32.5q-67 9 -110.5 -39t-48.5 -117zM248 846q-4 26 11 35q3 2 7 2q67 2 129 86q19 19 42.5 13t39 -33t2.5 -50q-22 -41 -80.5 -64.5t-113.5 -21.5q-32 1 -37 33z" />
<glyph unicode="&#xea;" horiz-adv-x="743" d="M-25 369q1 118 60.5 216.5t157.5 150.5t208 42q123 -12 186 -113q57 -93 33 -204q-25 -120 -132 -183q-106 -62 -263 -45q45 -62 127 -73q50 -5 106 6.5t112 39.5t105.5 81.5t78.5 124.5q20 71 48 80q17 5 23 -24q7 -30 -4 -85q-69 -346 -409 -381q-103 -11 -188 15.5 t-138.5 79t-82.5 123t-28 149.5zM193 362q53 -16 103.5 -0.5t84.5 52.5q25 42 14 71.5t-43 32.5q-67 9 -110.5 -39t-48.5 -117zM217 864q20 28 72.5 65.5t81.5 45.5q34 -7 96 -58t68 -67q7 -15 -16.5 -27t-50.5 -12.5t-42 10.5q-20 27 -55 62q-5 -6 -24.5 -30t-29.5 -34 q-16 -11 -42 -7.5t-46.5 20t-11.5 32.5z" />
<glyph unicode="&#xeb;" horiz-adv-x="743" d="M-25 369q1 118 60.5 216.5t157.5 150.5t208 42q123 -12 186 -113q57 -93 33 -204q-25 -120 -132 -183q-106 -62 -263 -45q45 -62 127 -73q50 -5 106 6.5t112 39.5t105.5 81.5t78.5 124.5q20 71 48 80q17 5 23 -24q7 -30 -4 -85q-69 -346 -409 -381q-103 -11 -188 15.5 t-138.5 79t-82.5 123t-28 149.5zM193 362q53 -16 103.5 -0.5t84.5 52.5q25 42 14 71.5t-43 32.5q-67 9 -110.5 -39t-48.5 -117zM274 879q0 35 8.5 52t36.5 17q20 0 30.5 -10t13 -23t2.5 -36q0 -17 -1 -26.5t-5 -20.5t-14 -16t-26 -5q-27 0 -36 17.5t-9 50.5zM381 879 q0 35 8.5 52t36.5 17q29 0 37 -16.5t8 -52.5q0 -24 -1.5 -35.5t-12 -22t-31.5 -10.5q-27 0 -36 17.5t-9 50.5z" />
<glyph unicode="&#xec;" horiz-adv-x="434" d="M0.5 188q-8.5 155 57.5 485q2 12 3 19q10 50 41.5 71t69.5 13.5t73.5 -26.5t58.5 -46.5t20 -48.5q-7 -62 -27 -184t-21 -127q-9 -51 -4 -75.5t27 -30.5q31 -8 68.5 49t68.5 143q17 47 45 58q26 11 31 -26q4 -27 -6 -73q-20 -83 -54.5 -156.5t-81 -131t-108 -84.5 t-127.5 -13q-126 29 -134.5 184zM125 899q-13 23 2.5 50t39 33t42.5 -13q62 -84 129 -86q16 0 18 -24q4 -32 -22 -43q-7 -3 -15 -3q-55 -2 -113.5 21.5t-80.5 64.5z" />
<glyph unicode="&#xed;" horiz-adv-x="434" d="M0.5 188q-8.5 155 57.5 485q2 12 3 19q10 50 41.5 71t69.5 13.5t73.5 -26.5t58.5 -46.5t20 -48.5q-7 -62 -27 -184t-21 -127q-9 -51 -4 -75.5t27 -30.5q31 -8 68.5 49t68.5 143q17 47 45 58q26 11 31 -26q4 -27 -6 -73q-20 -83 -54.5 -156.5t-81 -131t-108 -84.5 t-127.5 -13q-126 29 -134.5 184zM121 846q-4 26 11 35q3 2 7 2q67 2 129 86q19 19 42.5 13t39 -33t2.5 -50q-22 -41 -80.5 -64.5t-113.5 -21.5q-32 1 -37 33z" />
<glyph unicode="&#xee;" horiz-adv-x="434" d="M0.5 188q-8.5 155 57.5 485q2 12 3 19q10 50 41.5 71t69.5 13.5t73.5 -26.5t58.5 -46.5t20 -48.5q-7 -62 -27 -184t-21 -127q-9 -51 -4 -75.5t27 -30.5q31 -8 68.5 49t68.5 143q17 47 45 58q26 11 31 -26q4 -27 -6 -73q-20 -83 -54.5 -156.5t-81 -131t-108 -84.5 t-127.5 -13q-126 29 -134.5 184zM70 864q20 28 72 65.5t81 45.5q34 -7 96 -58t68 -67q7 -15 -16.5 -27t-50 -12.5t-41.5 10.5q-17 23 -56 62q-6 -7 -24.5 -30.5t-28.5 -33.5q-16 -11 -42 -7.5t-46.5 20t-11.5 32.5z" />
<glyph unicode="&#xef;" horiz-adv-x="434" d="M0.5 188q-8.5 155 57.5 485q2 12 3 19q10 50 41.5 71t69.5 13.5t73.5 -26.5t58.5 -46.5t20 -48.5q-7 -62 -27 -184t-21 -127q-9 -51 -4 -75.5t27 -30.5q31 -8 68.5 49t68.5 143q17 47 45 58q26 11 31 -26q4 -27 -6 -73q-20 -83 -54.5 -156.5t-81 -131t-108 -84.5 t-127.5 -13q-126 29 -134.5 184zM125 879q0 35 8.5 52t36.5 17q29 0 37 -16.5t8 -52.5q0 -24 -1.5 -35.5t-12 -22t-31.5 -10.5q-27 0 -36 17.5t-9 50.5zM231 879q0 35 8.5 52t36.5 17q20 0 30.5 -10t13 -23t2.5 -36q0 -17 -1 -26.5t-5 -20.5t-14 -16t-26 -5q-27 0 -36 17.5 t-9 50.5z" />
<glyph unicode="&#xf1;" horiz-adv-x="802" d="M-27 123q2 31 9.5 123t20 233.5t20.5 237.5q3 34 30 51t63 15t72.5 -13t63.5 -32t31 -42q1 -17 -14 -82.5t-17 -78.5q50 133 122.5 197.5t155.5 47.5q199 -41 117 -411q-18 -88 -18 -101q1 -25 22 -24h2q38 3 78 48t60 83t24 53q21 58 45 65q15 5 20 -19q5 -28 -8 -87 q-39 -180 -151 -291.5t-236 -87.5q-69 24 -84 103.5t17 273.5q17 102 -11 131q-23 23 -53 -21q-17 -26 -32 -71q-11 -30 -48.5 -144t-60.5 -174q-19 -49 -51.5 -76.5t-65.5 -29.5t-62 10.5t-46.5 43t-14.5 69.5zM406 838q-13 33 11 62q12 13 29 20q34 12 75.5 -4.5 t58.5 -8.5q34 18 48 -13q13 -29 -8 -58q-10 -15 -26 -21q-29 -9 -71 4.5t-79 -2.5q-27 -9 -38 21z" />
<glyph unicode="&#xf2;" horiz-adv-x="792" d="M-24 398q6 157 102 263q113 125 307 115q152 -7 235 -95.5t89 -221.5q24 16 42 33t26.5 28.5t23.5 34.5q25 38 55 35q27 -3 26 -37q-2 -34 -34 -82q-67 -100 -146 -158q-25 -128 -123.5 -220.5t-248.5 -92.5q-175 0 -274 132q-84 112 -80 266zM179.5 293.5 q7.5 -48.5 46 -86.5t98.5 -49q66 -11 115.5 17t74.5 81q-77 0 -131 43q-46 41 -61.5 100.5t2.5 118.5q-53 -8 -91 -44.5t-49.5 -84t-4 -96zM287 899q-13 23 2.5 50t39 33t42.5 -13q62 -84 129 -86q16 0 18 -24q4 -32 -22 -43q-7 -3 -15 -3q-55 -2 -113.5 21.5t-80.5 64.5z M479 479q-13 -41 4 -67q19 -21 45 -21q-6 53 -49 88z" />
<glyph unicode="&#xf3;" horiz-adv-x="792" d="M-24 398q6 157 102 263q113 125 307 115q152 -7 235 -95.5t89 -221.5q24 16 42 33t26.5 28.5t23.5 34.5q25 38 55 35q27 -3 26 -37q-2 -34 -34 -82q-67 -100 -146 -158q-25 -128 -123.5 -220.5t-248.5 -92.5q-175 0 -274 132q-84 112 -80 266zM179.5 293.5 q7.5 -48.5 46 -86.5t98.5 -49q66 -11 115.5 17t74.5 81q-77 0 -131 43q-46 41 -61.5 100.5t2.5 118.5q-53 -8 -91 -44.5t-49.5 -84t-4 -96zM273 846q-4 26 11 35q3 2 7 2q67 2 129 86q19 19 42.5 13t39 -33t2.5 -50q-22 -41 -81 -64.5t-114 -21.5q-32 1 -36 33zM479 479 q-13 -41 4 -67q19 -21 45 -21q-6 53 -49 88z" />
<glyph unicode="&#xf4;" horiz-adv-x="792" d="M-24 398q6 157 102 263q113 125 307 115q152 -7 235 -95.5t89 -221.5q24 16 42 33t26.5 28.5t23.5 34.5q25 38 55 35q27 -3 26 -37q-2 -34 -34 -82q-67 -100 -146 -158q-25 -128 -123.5 -220.5t-248.5 -92.5q-175 0 -274 132q-84 112 -80 266zM179.5 293.5 q7.5 -48.5 46 -86.5t98.5 -49q66 -11 115.5 17t74.5 81q-77 0 -131 43q-46 41 -61.5 100.5t2.5 118.5q-53 -8 -91 -44.5t-49.5 -84t-4 -96zM240 864q20 28 72 65.5t81 45.5q34 -7 96 -58t68 -67q7 -15 -16.5 -27t-50 -12.5t-41.5 10.5q-17 23 -56 62q-6 -7 -24.5 -30.5 t-28.5 -33.5q-16 -11 -42 -7.5t-46.5 20t-11.5 32.5zM479 479q-13 -41 4 -67q19 -21 45 -21q-6 53 -49 88z" />
<glyph unicode="&#xf5;" horiz-adv-x="792" d="M-24 398q6 157 102 263q113 125 307 115q152 -7 235 -95.5t89 -221.5q24 16 42 33t26.5 28.5t23.5 34.5q25 38 55 35q27 -3 26 -37q-2 -34 -34 -82q-67 -100 -146 -158q-25 -128 -123.5 -220.5t-248.5 -92.5q-175 0 -274 132q-84 112 -80 266zM179.5 293.5 q7.5 -48.5 46 -86.5t98.5 -49q66 -11 115.5 17t74.5 81q-77 0 -131 43q-46 41 -61.5 100.5t2.5 118.5q-53 -8 -91 -44.5t-49.5 -84t-4 -96zM286 838q-13 33 11 62q12 13 29 20q34 12 75 -4.5t58 -8.5q34 18 48 -13q13 -29 -8 -58q-10 -15 -26 -21q-29 -9 -70.5 4.5 t-78.5 -2.5q-27 -9 -38 21zM479 479q-13 -41 4 -67q19 -21 45 -21q-6 53 -49 88z" />
<glyph unicode="&#xf6;" horiz-adv-x="792" d="M-24 398q6 157 102 263q113 125 307 115q152 -7 235 -95.5t89 -221.5q24 16 42 33t26.5 28.5t23.5 34.5q25 38 55 35q27 -3 26 -37q-2 -34 -34 -82q-67 -100 -146 -158q-25 -128 -123.5 -220.5t-248.5 -92.5q-175 0 -274 132q-84 112 -80 266zM179.5 293.5 q7.5 -48.5 46 -86.5t98.5 -49q66 -11 115.5 17t74.5 81q-77 0 -131 43q-46 41 -61.5 100.5t2.5 118.5q-53 -8 -91 -44.5t-49.5 -84t-4 -96zM297 879q0 35 8.5 52t36.5 17q29 0 37 -16.5t8 -52.5q0 -24 -1.5 -35.5t-12 -22t-31.5 -10.5q-27 0 -36 17.5t-9 50.5zM403 879 q0 34 9 51.5t37 17.5q29 0 37 -16.5t8 -52.5q0 -24 -1.5 -35.5t-12 -22t-31.5 -10.5q-46 0 -46 68zM479 479q-13 -41 4 -67q19 -21 45 -21q-6 53 -49 88z" />
<glyph unicode="&#xf7;" horiz-adv-x="628" d="M205 98q2 38 37 63.5t84 24.5q47 -3 80 -32.5t32 -67.5t-36.5 -64t-82.5 -24q-49 3 -82.5 32.5t-31.5 67.5zM205 381q2 40 37 65.5t84 22.5q47 -3 80 -32.5t32 -67.5t-36.5 -63.5t-82.5 -22.5q-49 1 -82.5 30t-31.5 68z" />
<glyph unicode="&#xf8;" horiz-adv-x="792" d="M-17 454q14 84 55.5 152.5t118.5 115t177 52.5q24 28 69.5 33.5t83.5 -13t41 -51.5q84 -39 130 -114t51 -170q24 16 42 33t26.5 28.5t23.5 34.5q25 38 55 35q27 -3 26 -37q-2 -34 -34 -82q-67 -100 -146 -158q-25 -128 -123.5 -220.5t-248.5 -92.5q-33 0 -47 2 q-18 -24 -48 -28t-51.5 14t-17.5 49q-72 37 -118.5 106t-62.5 148t-2 163zM178.5 374.5q-16.5 -82.5 28.5 -145.5q9 48 30 146.5t25 120.5q-67 -39 -83.5 -121.5zM340 156q60 -6 105.5 22.5t68.5 77.5q-77 0 -127 39q-10 -31 -47 -139zM479 479q-13 -41 4 -67q19 -21 45 -21 q-6 53 -49 88z" />
<glyph unicode="&#xf9;" horiz-adv-x="919" d="M-26 290q-9 94 14 206.5t78 230.5q15 36 47 47t66 -0.5t64 -31.5t45.5 -47.5t6.5 -47.5q-16 -42 -26 -71t-24.5 -73.5t-21 -77t-13 -71.5t-3.5 -67.5t11.5 -55t28 -43.5t48.5 -24q72 -18 121 42.5t57 160.5q9 152 35 346q3 57 71.5 64t134.5 -26.5t62 -74.5 q-4 -38 -20 -156.5t-23 -185.5q-5 -41 5 -67t32 -27q11 -1 22.5 6t21.5 18.5t21 28t19.5 32t17 33.5t13.5 30t9 24l5 12q19 55 47 65q25 8 31 -30q4 -26 -4 -68q-17 -83 -49.5 -157t-78 -130t-107 -84t-128.5 -16q-100 18 -127 131q-18 -48 -53 -79.5t-79 -43.5t-93 -9.5 t-96 20.5q-83 31 -131 102t-57 165zM295 899q-13 23 2.5 50t39 33t42.5 -13q62 -84 129 -86q16 0 18 -24q4 -32 -22 -43q-7 -3 -15 -3q-55 -2 -113.5 21.5t-80.5 64.5z" />
<glyph unicode="&#xfa;" horiz-adv-x="919" d="M-26 290q-9 94 14 206.5t78 230.5q15 36 47 47t66 -0.5t64 -31.5t45.5 -47.5t6.5 -47.5q-16 -42 -26 -71t-24.5 -73.5t-21 -77t-13 -71.5t-3.5 -67.5t11.5 -55t28 -43.5t48.5 -24q72 -18 121 42.5t57 160.5q9 152 35 346q3 57 71.5 64t134.5 -26.5t62 -74.5 q-4 -38 -20 -156.5t-23 -185.5q-5 -41 5 -67t32 -27q11 -1 22.5 6t21.5 18.5t21 28t19.5 32t17 33.5t13.5 30t9 24l5 12q19 55 47 65q25 8 31 -30q4 -26 -4 -68q-17 -83 -49.5 -157t-78 -130t-107 -84t-128.5 -16q-100 18 -127 131q-18 -48 -53 -79.5t-79 -43.5t-93 -9.5 t-96 20.5q-83 31 -131 102t-57 165zM281 846q-4 26 11 35q3 2 7 2q67 2 129 86q19 19 42.5 13t39 -33t2.5 -50q-22 -41 -81 -64.5t-114 -21.5q-32 1 -36 33z" />
<glyph unicode="&#xfb;" horiz-adv-x="919" d="M-26 290q-9 94 14 206.5t78 230.5q15 36 47 47t66 -0.5t64 -31.5t45.5 -47.5t6.5 -47.5q-16 -42 -26 -71t-24.5 -73.5t-21 -77t-13 -71.5t-3.5 -67.5t11.5 -55t28 -43.5t48.5 -24q72 -18 121 42.5t57 160.5q9 152 35 346q3 57 71.5 64t134.5 -26.5t62 -74.5 q-4 -38 -20 -156.5t-23 -185.5q-5 -41 5 -67t32 -27q11 -1 22.5 6t21.5 18.5t21 28t19.5 32t17 33.5t13.5 30t9 24l5 12q19 55 47 65q25 8 31 -30q4 -26 -4 -68q-17 -83 -49.5 -157t-78 -130t-107 -84t-128.5 -16q-100 18 -127 131q-18 -48 -53 -79.5t-79 -43.5t-93 -9.5 t-96 20.5q-83 31 -131 102t-57 165zM254 864q20 28 72.5 65.5t81.5 45.5q34 -7 95.5 -58t67.5 -67q7 -15 -16.5 -27t-50 -12.5t-41.5 10.5q-20 27 -55 62q-5 -6 -24.5 -30t-29.5 -34q-16 -11 -42 -7.5t-46.5 20t-11.5 32.5z" />
<glyph unicode="&#xfc;" horiz-adv-x="919" d="M-26 290q-9 94 14 206.5t78 230.5q15 36 47 47t66 -0.5t64 -31.5t45.5 -47.5t6.5 -47.5q-16 -42 -26 -71t-24.5 -73.5t-21 -77t-13 -71.5t-3.5 -67.5t11.5 -55t28 -43.5t48.5 -24q72 -18 121 42.5t57 160.5q9 152 35 346q3 57 71.5 64t134.5 -26.5t62 -74.5 q-4 -38 -20 -156.5t-23 -185.5q-5 -41 5 -67t32 -27q11 -1 22.5 6t21.5 18.5t21 28t19.5 32t17 33.5t13.5 30t9 24l5 12q19 55 47 65q25 8 31 -30q4 -26 -4 -68q-17 -83 -49.5 -157t-78 -130t-107 -84t-128.5 -16q-100 18 -127 131q-18 -48 -53 -79.5t-79 -43.5t-93 -9.5 t-96 20.5q-83 31 -131 102t-57 165zM309 879q0 35 8.5 52t36.5 17q29 0 37 -16.5t8 -52.5q0 -24 -1.5 -35.5t-12 -22t-31.5 -10.5q-27 0 -36 17.5t-9 50.5zM416 879q0 35 8.5 52t36.5 17q29 0 37 -16.5t8 -52.5q0 -24 -1.5 -35.5t-12 -22t-31.5 -10.5q-27 0 -36 17.5 t-9 50.5z" />
<glyph unicode="&#xfd;" horiz-adv-x="937" d="M-28.5 327.5q-2.5 105.5 33 214t104.5 175.5q54 53 141 37q67 -13 94 -53q22 -33 -6 -64q-42 -39 -78.5 -114t-54.5 -151.5t-2 -140t73 -77.5q58 -14 119.5 26t102.5 115.5t45 157.5q4 211 6 237q3 34 31.5 54.5t67.5 21.5t76.5 -8.5t62.5 -34.5t22 -57q-8 -88 -23 -210 t-26 -200l-10 -78q29 8 54.5 24.5t45 42.5t33.5 47t27.5 54t19 46.5t14.5 41.5q15 44 40 47q21 3 29 -29q7 -30 -5 -79q-8 -35 -13 -55.5t-17.5 -57.5t-25.5 -62.5t-35.5 -58.5t-49 -56.5t-65 -46.5t-83.5 -38q-13 -109 -44 -200t-72.5 -151.5t-90.5 -105.5t-98.5 -66 t-96 -26.5t-85 6t-62.5 37.5q-61 65 -54.5 151.5t49 165t103.5 134.5q42 39 82 61q-108 -28 -203 8q-82 31 -127.5 120.5t-48 195zM261.5 -334.5q-0.5 -37.5 16.5 -51.5t50.5 -0.5t74.5 58.5q48 51 80.5 134.5t42.5 162.5q-69 -20 -143 -91.5t-100 -125.5 q-21 -49 -21.5 -86.5zM347 846q-4 26 11 35q3 2 7 2q67 2 129 86q19 19 42.5 13t39 -33t2.5 -50q-22 -41 -81 -64.5t-114 -21.5q-32 1 -36 33zM471 63q39 24 72 39l2 14q2 13 2 19q-51 -57 -76 -72z" />
<glyph unicode="&#xff;" horiz-adv-x="937" d="M-28.5 327.5q-2.5 105.5 33 214t104.5 175.5q54 53 141 37q67 -13 94 -53q22 -33 -6 -64q-42 -39 -78.5 -114t-54.5 -151.5t-2 -140t73 -77.5q58 -14 119.5 26t102.5 115.5t45 157.5q4 211 6 237q3 34 31.5 54.5t67.5 21.5t76.5 -8.5t62.5 -34.5t22 -57q-8 -88 -23 -210 t-26 -200l-10 -78q29 8 54.5 24.5t45 42.5t33.5 47t27.5 54t19 46.5t14.5 41.5q15 44 40 47q21 3 29 -29q7 -30 -5 -79q-8 -35 -13 -55.5t-17.5 -57.5t-25.5 -62.5t-35.5 -58.5t-49 -56.5t-65 -46.5t-83.5 -38q-13 -109 -44 -200t-72.5 -151.5t-90.5 -105.5t-98.5 -66 t-96 -26.5t-85 6t-62.5 37.5q-61 65 -54.5 151.5t49 165t103.5 134.5q42 39 82 61q-108 -28 -203 8q-82 31 -127.5 120.5t-48 195zM261.5 -334.5q-0.5 -37.5 16.5 -51.5t50.5 -0.5t74.5 58.5q48 51 80.5 134.5t42.5 162.5q-69 -20 -143 -91.5t-100 -125.5 q-21 -49 -21.5 -86.5zM342 879q0 35 8.5 52t36.5 17q29 0 37 -16.5t8 -52.5q0 -24 -1.5 -35.5t-12 -22t-31.5 -10.5q-27 0 -36 17.5t-9 50.5zM449 879q0 35 8.5 52t36.5 17q29 0 37 -16.5t8 -52.5q0 -24 -1.5 -35.5t-12 -22t-31.5 -10.5q-27 0 -36 17.5t-9 50.5zM471 63 q39 24 72 39l2 14q2 13 2 19q-51 -57 -76 -72z" />
<glyph unicode="&#x152;" horiz-adv-x="1615" d="M5 582.5q16 142.5 64 283.5t126.5 260t171.5 193q59 51 142.5 67.5t149.5 6t117 -32.5q88 -45 142 -119q6 37 12 62q39 159 756 75q133 -19 110 -134q-18 -86 -103 -181q-43 -48 -77 -66q5 20 -33 40.5t-100 34t-130 21.5t-130.5 4.5t-94.5 -18.5q-72 -273 -100 -377 q301 -14 303 27q34 -25 38 -85.5t-27 -116.5t-87 -68q-97 -13 -288 -13q-17 -60 -40.5 -139.5t-27.5 -93.5q17 -11 89.5 -23.5t170.5 -18t194 -0.5t169.5 33.5t87.5 78.5q3 9 11 -11q22 -53 7 -120q-24 -104 -141 -148q-248 -94 -563 -37q-165 28 -215 90q-36 -31 -105 -71 q-52 -23 -114 -32.5t-127 -4t-127 38t-105 88.5q-79 94 -110.5 229t-15.5 277.5zM243.5 472.5q-6.5 -109.5 28 -210t111.5 -158.5q86 7 158 60.5t116.5 134.5t74 178.5t33 195.5t-8 181.5t-47.5 140.5t-88 68q-63 13 -130 -35.5t-119.5 -134.5t-87 -198.5t-41 -222z" />
<glyph unicode="&#x153;" horiz-adv-x="1353" d="M-24 399q6 158 102 263q113 124 305 114q204 -12 285 -164q60 85 153 130.5t195 35.5q123 -12 186 -113q57 -93 33 -204q-26 -120 -133 -183q-106 -62 -264 -45q45 -62 129 -73q49 -5 104.5 6.5t111.5 39.5t106 81.5t79 124.5q21 72 48 81q16 4 22 -23q7 -30 -4 -87 q-68 -346 -408 -381q-134 -13 -232.5 32.5t-152.5 133.5q-48 -76 -128.5 -122t-184.5 -46q-175 0 -273 132q-84 113 -79 267zM175.5 341.5q-1.5 -42.5 12.5 -79.5t49.5 -66t86.5 -38q64 -11 114 17t76 81q-76 0 -133 43q-45 41 -60 100.5t3 118.5q-44 -7 -78 -34 t-51.5 -63.5t-19 -79zM477 479q-13 -39 6 -67q19 -21 45 -21q-6 54 -51 88zM805 362q54 -16 105 -0.5t85 52.5q25 42 14.5 71.5t-42.5 32.5q-74 8 -123 -51q-4 -8 -10 -14q-26 -44 -29 -91z" />
<glyph unicode="&#x178;" horiz-adv-x="1026" d="M1 874q7 94 22.5 183t33.5 152.5t35 101.5q44 88 136 86q70 -1 118 -47q46 -47 21 -90q-14 -21 -34.5 -68t-43.5 -116.5t-40 -145t-17.5 -153.5t17 -142t70 -110t136.5 -58q68 -8 119.5 -0.5t83.5 36t53 58t26 90t6 107t-11.5 132.5t-23 144t-30.5 163q-7 34 -10 52 q-17 45 32 87q50 44 116 38q87 -7 123 -104q8 -21 13 -47q28 -147 32.5 -282t-17.5 -254t-69 -209.5t-127 -147t-187 -66.5q-29 -93 -95 -256q-9 -27 -32 -43.5t-47 -17t-44.5 20t-25.5 59.5q-4 25 -8.5 65t-9.5 102t-7 85q-97 23 -164.5 84.5t-99 142t-44.5 177.5t-6 191z M414 1518q0 35 8.5 52t36.5 17q29 0 37 -16.5t8 -52.5q0 -24 -1.5 -35.5t-12 -22t-31.5 -10.5q-27 0 -36 17.5t-9 50.5zM520 1518q0 35 8.5 52t36.5 17q29 0 37 -16.5t8 -52.5q0 -24 -1.5 -35.5t-12 -22t-31.5 -10.5q-27 0 -36 17.5t-9 50.5z" />
<glyph unicode="&#x2c6;" horiz-adv-x="770" d="M219 864q20 28 72.5 65.5t81.5 45.5q34 -7 96 -58t68 -67q7 -15 -16.5 -27t-50.5 -12.5t-42 10.5q-20 27 -55 62q-5 -6 -24.5 -30t-29.5 -34q-16 -11 -42 -7.5t-46.5 20t-11.5 32.5z" />
<glyph unicode="&#x2dc;" horiz-adv-x="733" d="M288 838q-13 33 11 62q12 13 29 20q34 12 75 -4.5t58 -8.5q34 18 48 -13q13 -29 -8 -58q-10 -15 -26 -21q-29 -9 -70.5 4.5t-78.5 -2.5q-27 -9 -38 21z" />
<glyph unicode="&#x2000;" horiz-adv-x="811" />
<glyph unicode="&#x2001;" horiz-adv-x="1622" />
<glyph unicode="&#x2002;" horiz-adv-x="811" />
<glyph unicode="&#x2003;" horiz-adv-x="1622" />
<glyph unicode="&#x2004;" horiz-adv-x="540" />
<glyph unicode="&#x2005;" horiz-adv-x="405" />
<glyph unicode="&#x2006;" horiz-adv-x="270" />
<glyph unicode="&#x2007;" horiz-adv-x="270" />
<glyph unicode="&#x2008;" horiz-adv-x="202" />
<glyph unicode="&#x2009;" horiz-adv-x="324" />
<glyph unicode="&#x200a;" horiz-adv-x="90" />
<glyph unicode="&#x2010;" horiz-adv-x="872" d="M201 467q3 28 24 48t54 22q46 4 93.5 5t121 0t86.5 -1q55 0 78.5 -45.5t1 -92t-79.5 -49.5q-156 -8 -293 -8q-30 0 -52.5 19t-29.5 46.5t-4 55.5z" />
<glyph unicode="&#x2011;" horiz-adv-x="872" d="M201 467q3 28 24 48t54 22q46 4 93.5 5t121 0t86.5 -1q55 0 78.5 -45.5t1 -92t-79.5 -49.5q-156 -8 -293 -8q-30 0 -52.5 19t-29.5 46.5t-4 55.5z" />
<glyph unicode="&#x2012;" horiz-adv-x="872" d="M201 467q3 28 24 48t54 22q46 4 93.5 5t121 0t86.5 -1q55 0 78.5 -45.5t1 -92t-79.5 -49.5q-156 -8 -293 -8q-30 0 -52.5 19t-29.5 46.5t-4 55.5z" />
<glyph unicode="&#x2013;" horiz-adv-x="1021" d="M201 467q3 28 24 48t54 22q35 3 101.5 4t122 1t129 -0.5t91.5 -0.5q55 0 78.5 -45.5t1 -92t-79.5 -49.5q-156 -8 -436 -8q-30 0 -52.5 19t-29.5 46.5t-4 55.5z" />
<glyph unicode="&#x2014;" horiz-adv-x="1433" d="M207 467q3 28 24 48t54 22q35 3 168 4t259 1t275 -0.5t154 -0.5q55 0 78.5 -45.5t1 -92t-79.5 -49.5q-50 -3 -405.5 -5.5t-442.5 -2.5q-30 0 -52.5 19t-29.5 46.5t-4 55.5z" />
<glyph unicode="&#x2019;" horiz-adv-x="595" d="M105.5 1064q6.5 13 22.5 23t37 30.5t40 43t32 59.5t13 80q-1 78 52 105q45 22 86 -6q52 -36 38 -116q-1 -5 -2 -9q-9 -41 -33.5 -79.5t-55.5 -65.5t-67 -49.5t-67.5 -31.5t-56.5 -12.5t-35 8.5q-10 7 -3.5 20z" />
<glyph unicode="&#x202f;" horiz-adv-x="324" />
<glyph unicode="&#x205f;" horiz-adv-x="405" />
<glyph unicode="&#x20ac;" horiz-adv-x="1060" d="M98 533.5q3 19.5 24 34t54 16.5q9 0 26.5 1t26.5 1q3 28 9 59h-54q-30 0 -52.5 13.5t-29.5 32.5t-4 38.5t24 34t54 16.5t96 2q65 185 193 300t285 92q75 -11 123.5 -49t65.5 -90t17 -105.5t-16 -104.5q-37 -104 -125 -105q-59 -1 -102 38q-37 34 -18 59q3 3 7 6 q20 15 25 52t-13.5 71t-58.5 37q-56 6 -110 -50t-96 -151h28q55 0 78.5 -32t1 -64.5t-79.5 -34.5q-18 -2 -71 -2q-1 -4 -13 -63h84q55 0 78.5 -32t1 -64.5t-79.5 -34.5q-23 -2 -86 -2q6 -68 37 -113t86 -57q52 -9 92 -5t70 26.5t51 49.5t34.5 63.5t20.5 70t9 67.5 q2 22 18 39.5t38.5 22t44.5 0.5t37 -26t15 -56q-4 -58 -23.5 -116t-58.5 -111.5t-92.5 -91.5t-131 -55t-167.5 -3q-108 14 -168.5 93t-73.5 198h-45q-30 0 -52.5 13.5t-29.5 32.5t-4 38.5z" />
<glyph unicode="&#x25fc;" horiz-adv-x="778" d="M0 0v778h778v-778h-778z" />
</font>
</defs>
</svg>
